<ttFont>
    <TTGlyph name=".notdef" xMin="68" yMin="0" xMax="612" yMax="1365">
      <contour>
        <pt x="68" y="0" on="1"/>
        <pt x="68" y="1365" on="1"/>
        <pt x="612" y="1365" on="1"/>
        <pt x="612" y="0" on="1"/>
      </contour>
      <contour>
        <pt x="136" y="68" on="1"/>
        <pt x="544" y="68" on="1"/>
        <pt x="544" y="1297" on="1"/>
        <pt x="136" y="1297" on="1"/>
      </contour>
    </TTGlyph>
    <TTGlyph name="A" xMin="6" yMin="0" xMax="1270" yMax="1488">
      <contour>
        <pt x="6" y="0" on="1"/>
        <pt x="587" y="1488" on="1"/>
        <pt x="710" y="1488" on="1"/>
        <pt x="1270" y="0" on="1"/>
        <pt x="1138" y="0" on="1"/>
        <pt x="948" y="505" on="1"/>
        <pt x="331" y="505" on="1"/>
        <pt x="133" y="0" on="1"/>
      </contour>
      <contour>
        <pt x="380" y="599" on="1"/>
        <pt x="902" y="599" on="1"/>
        <pt x="677" y="1245" on="0"/>
        <pt x="647" y="1359" on="1"/>
        <pt x="635" y="1315" on="0"/>
        <pt x="501" y="935" on="0"/>
        <pt x="440" y="767" on="1"/>
      </contour>
    </TTGlyph>
    <TTGlyph name="AE" xMin="6" yMin="0" xMax="1801" yMax="1488">
      <contour>
        <pt x="6" y="0" on="1"/>
        <pt x="892" y="1488" on="1"/>
        <pt x="1786" y="1488" on="1"/>
        <pt x="1779" y="1377" on="1"/>
        <pt x="1060" y="1377" on="1"/>
        <pt x="1101" y="822" on="1"/>
        <pt x="1744" y="822" on="1"/>
        <pt x="1744" y="713" on="1"/>
        <pt x="1109" y="713" on="1"/>
        <pt x="1158" y="111" on="1"/>
        <pt x="1801" y="111" on="1"/>
        <pt x="1790" y="0" on="1"/>
        <pt x="1053" y="0" on="1"/>
        <pt x="1014" y="505" on="1"/>
        <pt x="441" y="505" on="1"/>
        <pt x="148" y="0" on="1"/>
      </contour>
      <contour>
        <pt x="495" y="600" on="1"/>
        <pt x="1006" y="600" on="1"/>
        <pt x="950" y="1378" on="1"/>
      </contour>
    </TTGlyph>
    <TTGlyph name="Aacute" xMin="6" yMin="0" xMax="1270" yMax="2003">
      <component glyphName="acute" x="474" y="329" flags="0x1004"/>
      <component glyphName="A" x="0" y="0" flags="0x1204"/>
    </TTGlyph>
    <TTGlyph name="Abreve" xMin="6" yMin="0" xMax="1270" yMax="1868">
      <component glyphName="breve" x="246" y="260" flags="0x1004"/>
      <component glyphName="A" x="0" y="0" flags="0x1204"/>
    </TTGlyph>
    <TTGlyph name="Acircumflex" xMin="6" yMin="0" xMax="1270" yMax="1975">
      <component glyphName="circumflex" x="236" y="306" flags="0x1004"/>
      <component glyphName="A" x="0" y="0" flags="0x1204"/>
    </TTGlyph>
    <TTGlyph name="Adieresis" xMin="6" yMin="0" xMax="1270" yMax="1793">
      <component glyphName="dieresis" x="246" y="350" flags="0x1004"/>
      <component glyphName="A" x="0" y="0" flags="0x1204"/>
    </TTGlyph>
    <TTGlyph name="Agrave" xMin="6" yMin="0" xMax="1270" yMax="2003">
      <component glyphName="grave" x="142" y="329" flags="0x1004"/>
      <component glyphName="A" x="0" y="0" flags="0x1204"/>
    </TTGlyph>
    <TTGlyph name="Amacron" xMin="6" yMin="0" xMax="1270" yMax="1722">
      <component glyphName="macron" x="72" y="346" flags="0x1004"/>
      <component glyphName="A" x="0" y="0" flags="0x1204"/>
    </TTGlyph>
    <TTGlyph name="Aogonek" xMin="6" yMin="-409" xMax="1270" yMax="1488">
      <component glyphName="ogonek" x="327" y="28" flags="0x1004"/>
      <component glyphName="A" x="0" y="0" flags="0x1004"/>
    </TTGlyph>
    <TTGlyph name="Aring" xMin="6" yMin="0" xMax="1270" yMax="1859">
      <component glyphName="ring" x="326" y="185" flags="0x1004"/>
      <component glyphName="A" x="0" y="0" flags="0x1204"/>
    </TTGlyph>
    <TTGlyph name="Atilde" xMin="6" yMin="0" xMax="1270" yMax="1802">
      <component glyphName="tilde" x="203" y="280" flags="0x1004"/>
      <component glyphName="A" x="0" y="0" flags="0x1204"/>
    </TTGlyph>
    <TTGlyph name="B" xMin="182" yMin="0" xMax="1195" yMax="1488">
      <contour>
        <pt x="182" y="0" on="1"/>
        <pt x="182" y="1488" on="1"/>
        <pt x="588" y="1488" on="1"/>
        <pt x="865" y="1488" on="0"/>
        <pt x="1120" y="1304" on="0"/>
        <pt x="1120" y="1116" on="1"/>
        <pt x="1120" y="1094" on="0"/>
        <pt x="1119" y="1072" on="0"/>
        <pt x="1111" y="1007" on="0"/>
        <pt x="1094" y="963" on="0"/>
        <pt x="1058" y="898" on="0"/>
        <pt x="1007" y="850" on="0"/>
        <pt x="925" y="801" on="0"/>
        <pt x="873" y="785" on="1"/>
        <pt x="1029" y="762" on="0"/>
        <pt x="1195" y="558" on="0"/>
        <pt x="1195" y="419" on="1"/>
        <pt x="1195" y="222" on="0"/>
        <pt x="945" y="0" on="0"/>
        <pt x="686" y="0" on="1"/>
      </contour>
      <contour>
        <pt x="310" y="100" on="1"/>
        <pt x="653" y="100" on="1"/>
        <pt x="1058" y="100" on="0"/>
        <pt x="1058" y="419" on="1"/>
        <pt x="1058" y="592" on="0"/>
        <pt x="834" y="727" on="0"/>
        <pt x="595" y="727" on="1"/>
        <pt x="310" y="727" on="1"/>
      </contour>
      <contour>
        <pt x="310" y="825" on="1"/>
        <pt x="651" y="825" on="1"/>
        <pt x="730" y="825" on="0"/>
        <pt x="844" y="849" on="0"/>
        <pt x="937" y="910" on="0"/>
        <pt x="984" y="1023" on="0"/>
        <pt x="984" y="1107" on="1"/>
        <pt x="984" y="1263" on="0"/>
        <pt x="791" y="1384" on="0"/>
        <pt x="582" y="1384" on="1"/>
        <pt x="310" y="1384" on="1"/>
      </contour>
    </TTGlyph>
    <TTGlyph name="C" xMin="118" yMin="-23" xMax="1240" yMax="1514">
      <contour>
        <pt x="813" y="-23" on="1"/>
        <pt x="642" y="-23" on="0"/>
        <pt x="374" y="94" on="0"/>
        <pt x="205" y="302" on="0"/>
        <pt x="118" y="582" on="0"/>
        <pt x="118" y="749" on="1"/>
        <pt x="118" y="971" on="0"/>
        <pt x="281" y="1314" on="0"/>
        <pt x="605" y="1514" on="0"/>
        <pt x="826" y="1514" on="1"/>
        <pt x="1069" y="1514" on="0"/>
        <pt x="1240" y="1412" on="1"/>
        <pt x="1179" y="1313" on="1"/>
        <pt x="1023" y="1407" on="0"/>
        <pt x="827" y="1407" on="1"/>
        <pt x="690" y="1407" on="0"/>
        <pt x="472" y="1304" on="0"/>
        <pt x="333" y="1122" on="0"/>
        <pt x="260" y="882" on="0"/>
        <pt x="260" y="742" on="1"/>
        <pt x="260" y="605" on="0"/>
        <pt x="327" y="372" on="0"/>
        <pt x="462" y="189" on="0"/>
        <pt x="686" y="84" on="0"/>
        <pt x="832" y="84" on="1"/>
        <pt x="989" y="84" on="0"/>
        <pt x="1182" y="171" on="1"/>
        <pt x="1208" y="68" on="1"/>
        <pt x="1062" y="-23" on="0"/>
      </contour>
    </TTGlyph>
    <TTGlyph name="Cacute" xMin="118" yMin="-23" xMax="1240" yMax="2003">
      <component glyphName="acute" x="516" y="329" flags="0x1004"/>
      <component glyphName="C" x="0" y="0" flags="0x1204"/>
    </TTGlyph>
    <TTGlyph name="Ccaron" xMin="118" yMin="-23" xMax="1240" yMax="1975">
      <component glyphName="caron" x="278" y="306" flags="0x1004"/>
      <component glyphName="C" x="0" y="0" flags="0x1204"/>
    </TTGlyph>
    <TTGlyph name="Ccedilla" xMin="118" yMin="-430" xMax="1240" yMax="1514">
      <component glyphName="cedilla" x="404" y="-20" flags="0x1004"/>
      <component glyphName="C" x="0" y="0" flags="0x1204"/>
    </TTGlyph>
    <TTGlyph name="Ccircumflex" xMin="118" yMin="-23" xMax="1240" yMax="1975">
      <component glyphName="circumflex" x="278" y="306" flags="0x1004"/>
      <component glyphName="C" x="0" y="0" flags="0x1204"/>
    </TTGlyph>
    <TTGlyph name="Cdotaccent" xMin="118" yMin="-23" xMax="1240" yMax="1801">
      <component glyphName="dotaccent" x="496" y="285" flags="0x1004"/>
      <component glyphName="C" x="0" y="0" flags="0x1204"/>
    </TTGlyph>
    <TTGlyph name="D" xMin="182" yMin="0" xMax="1380" yMax="1488">
      <contour>
        <pt x="310" y="107" on="1"/>
        <pt x="602" y="107" on="1"/>
        <pt x="912" y="107" on="0"/>
        <pt x="1237" y="424" on="0"/>
        <pt x="1237" y="738" on="1"/>
        <pt x="1237" y="910" on="0"/>
        <pt x="1146" y="1160" on="0"/>
        <pt x="970" y="1311" on="0"/>
        <pt x="730" y="1382" on="0"/>
        <pt x="573" y="1382" on="1"/>
        <pt x="310" y="1382" on="1"/>
      </contour>
      <contour>
        <pt x="182" y="0" on="1"/>
        <pt x="182" y="1488" on="1"/>
        <pt x="585" y="1488" on="1"/>
        <pt x="767" y="1488" on="0"/>
        <pt x="1054" y="1402" on="0"/>
        <pt x="1266" y="1225" on="0"/>
        <pt x="1380" y="936" on="0"/>
        <pt x="1380" y="743" on="1"/>
        <pt x="1380" y="378" on="0"/>
        <pt x="978" y="0" on="0"/>
        <pt x="616" y="0" on="1"/>
      </contour>
    </TTGlyph>
    <TTGlyph name="Dcaron" xMin="182" yMin="0" xMax="1380" yMax="1975">
      <component glyphName="caron" x="380" y="306" flags="0x1004"/>
      <component glyphName="D" x="0" y="0" flags="0x1204"/>
    </TTGlyph>
    <TTGlyph name="Dcroat" xMin="40" yMin="0" xMax="1380" yMax="1488">
      <contour>
        <pt x="310" y="107" on="1"/>
        <pt x="602" y="107" on="1"/>
        <pt x="912" y="107" on="0"/>
        <pt x="1237" y="424" on="0"/>
        <pt x="1237" y="738" on="1"/>
        <pt x="1237" y="910" on="0"/>
        <pt x="1146" y="1160" on="0"/>
        <pt x="970" y="1311" on="0"/>
        <pt x="730" y="1382" on="0"/>
        <pt x="573" y="1382" on="1"/>
        <pt x="310" y="1382" on="1"/>
        <pt x="310" y="833" on="1"/>
        <pt x="552" y="833" on="1"/>
        <pt x="552" y="737" on="1"/>
        <pt x="310" y="737" on="1"/>
      </contour>
      <contour>
        <pt x="182" y="0" on="1"/>
        <pt x="182" y="737" on="1"/>
        <pt x="40" y="737" on="1"/>
        <pt x="40" y="833" on="1"/>
        <pt x="182" y="833" on="1"/>
        <pt x="182" y="1488" on="1"/>
        <pt x="585" y="1488" on="1"/>
        <pt x="767" y="1488" on="0"/>
        <pt x="1054" y="1402" on="0"/>
        <pt x="1266" y="1225" on="0"/>
        <pt x="1380" y="936" on="0"/>
        <pt x="1380" y="743" on="1"/>
        <pt x="1380" y="378" on="0"/>
        <pt x="978" y="0" on="0"/>
        <pt x="616" y="0" on="1"/>
      </contour>
    </TTGlyph>
    <TTGlyph name="E" xMin="182" yMin="0" xMax="1028" yMax="1488">
      <contour>
        <pt x="182" y="0" on="1"/>
        <pt x="182" y="1488" on="1"/>
        <pt x="1011" y="1488" on="1"/>
        <pt x="1006" y="1382" on="1"/>
        <pt x="310" y="1382" on="1"/>
        <pt x="310" y="822" on="1"/>
        <pt x="972" y="822" on="1"/>
        <pt x="972" y="713" on="1"/>
        <pt x="310" y="713" on="1"/>
        <pt x="310" y="107" on="1"/>
        <pt x="1028" y="107" on="1"/>
        <pt x="1017" y="0" on="1"/>
      </contour>
    </TTGlyph>
    <TTGlyph name="Eacute" xMin="182" yMin="0" xMax="1028" yMax="2003">
      <component glyphName="acute" x="442" y="329" flags="0x1004"/>
      <component glyphName="E" x="0" y="0" flags="0x1204"/>
    </TTGlyph>
    <TTGlyph name="Ecaron" xMin="182" yMin="0" xMax="1028" yMax="1975">
      <component glyphName="caron" x="204" y="306" flags="0x1004"/>
      <component glyphName="E" x="0" y="0" flags="0x1204"/>
    </TTGlyph>
    <TTGlyph name="Ecircumflex" xMin="182" yMin="0" xMax="1028" yMax="1975">
      <component glyphName="circumflex" x="204" y="306" flags="0x1004"/>
      <component glyphName="E" x="0" y="0" flags="0x1204"/>
    </TTGlyph>
    <TTGlyph name="Edieresis" xMin="182" yMin="0" xMax="1028" yMax="1793">
      <component glyphName="dieresis" x="212" y="350" flags="0x1004"/>
      <component glyphName="E" x="0" y="0" flags="0x1204"/>
    </TTGlyph>
    <TTGlyph name="Edotaccent" xMin="182" yMin="0" xMax="1028" yMax="1801">
      <component glyphName="dotaccent" x="422" y="285" flags="0x1004"/>
      <component glyphName="E" x="0" y="0" flags="0x1204"/>
    </TTGlyph>
    <TTGlyph name="Egrave" xMin="182" yMin="0" xMax="1028" yMax="2003">
      <component glyphName="grave" x="108" y="329" flags="0x1004"/>
      <component glyphName="E" x="0" y="0" flags="0x1204"/>
    </TTGlyph>
    <TTGlyph name="Emacron" xMin="182" yMin="0" xMax="1028" yMax="1722">
      <component glyphName="macron" x="40" y="346" flags="0x1004"/>
      <component glyphName="E" x="0" y="0" flags="0x1204"/>
    </TTGlyph>
    <TTGlyph name="Eogonek" xMin="182" yMin="-409" xMax="1028" yMax="1488">
      <component glyphName="ogonek" x="294" y="28" flags="0x1004"/>
      <component glyphName="E" x="0" y="0" flags="0x1004"/>
    </TTGlyph>
    <TTGlyph name="F" xMin="182" yMin="0" xMax="982" yMax="1488">
      <contour>
        <pt x="182" y="0" on="1"/>
        <pt x="182" y="1488" on="1"/>
        <pt x="982" y="1488" on="1"/>
        <pt x="976" y="1377" on="1"/>
        <pt x="311" y="1377" on="1"/>
        <pt x="311" y="789" on="1"/>
        <pt x="946" y="789" on="1"/>
        <pt x="946" y="686" on="1"/>
        <pt x="311" y="686" on="1"/>
        <pt x="311" y="0" on="1"/>
      </contour>
    </TTGlyph>
    <TTGlyph name="G" xMin="118" yMin="-23" xMax="1329" yMax="1514">
      <contour>
        <pt x="821" y="-23" on="1"/>
        <pt x="685" y="-23" on="0"/>
        <pt x="456" y="54" on="0"/>
        <pt x="290" y="192" on="0"/>
        <pt x="175" y="383" on="0"/>
        <pt x="118" y="612" on="0"/>
        <pt x="118" y="740" on="1"/>
        <pt x="118" y="965" on="0"/>
        <pt x="286" y="1312" on="0"/>
        <pt x="619" y="1514" on="0"/>
        <pt x="847" y="1514" on="1"/>
        <pt x="1097" y="1514" on="0"/>
        <pt x="1291" y="1399" on="1"/>
        <pt x="1234" y="1296" on="1"/>
        <pt x="1152" y="1346" on="0"/>
        <pt x="945" y="1407" on="0"/>
        <pt x="848" y="1407" on="1"/>
        <pt x="702" y="1407" on="0"/>
        <pt x="473" y="1303" on="0"/>
        <pt x="331" y="1120" on="0"/>
        <pt x="258" y="882" on="0"/>
        <pt x="258" y="742" on="1"/>
        <pt x="258" y="593" on="0"/>
        <pt x="332" y="353" on="0"/>
        <pt x="480" y="178" on="0"/>
        <pt x="712" y="83" on="0"/>
        <pt x="864" y="83" on="1"/>
        <pt x="1021" y="83" on="0"/>
        <pt x="1210" y="158" on="1"/>
        <pt x="1210" y="634" on="1"/>
        <pt x="841" y="634" on="1"/>
        <pt x="849" y="745" on="1"/>
        <pt x="1329" y="745" on="1"/>
        <pt x="1329" y="89" on="1"/>
        <pt x="1207" y="26" on="0"/>
        <pt x="978" y="-23" on="0"/>
      </contour>
    </TTGlyph>
    <TTGlyph name="Gbreve" xMin="118" yMin="-23" xMax="1329" yMax="1868">
      <component glyphName="breve" x="332" y="260" flags="0x1004"/>
      <component glyphName="G" x="0" y="0" flags="0x1204"/>
    </TTGlyph>
    <TTGlyph name="Gcircumflex" xMin="118" yMin="-23" xMax="1329" yMax="1975">
      <component glyphName="circumflex" x="322" y="306" flags="0x1004"/>
      <component glyphName="G" x="0" y="0" flags="0x1204"/>
    </TTGlyph>
    <TTGlyph name="Gcommaaccent" xMin="118" yMin="-628" xMax="1329" yMax="1514">
      <component glyphName="glyph00382" x="440" y="20" flags="0x1004"/>
      <component glyphName="G" x="0" y="0" flags="0x1204"/>
    </TTGlyph>
    <TTGlyph name="Gdotaccent" xMin="118" yMin="-23" xMax="1329" yMax="1801">
      <component glyphName="dotaccent" x="541" y="285" flags="0x1004"/>
      <component glyphName="G" x="0" y="0" flags="0x1204"/>
    </TTGlyph>
    <TTGlyph name="H" xMin="182" yMin="0" xMax="1292" yMax="1488">
      <contour>
        <pt x="182" y="0" on="1"/>
        <pt x="182" y="1488" on="1"/>
        <pt x="310" y="1488" on="1"/>
        <pt x="310" y="830" on="1"/>
        <pt x="1164" y="830" on="1"/>
        <pt x="1164" y="1488" on="1"/>
        <pt x="1292" y="1488" on="1"/>
        <pt x="1292" y="0" on="1"/>
        <pt x="1164" y="0" on="1"/>
        <pt x="1164" y="718" on="1"/>
        <pt x="310" y="718" on="1"/>
        <pt x="310" y="0" on="1"/>
      </contour>
    </TTGlyph>
    <TTGlyph name="Hbar" xMin="62" yMin="0" xMax="1389" yMax="1521">
      <contour>
        <pt x="155" y="0" on="1"/>
        <pt x="155" y="1125" on="1"/>
        <pt x="62" y="1125" on="1"/>
        <pt x="62" y="1212" on="1"/>
        <pt x="155" y="1212" on="1"/>
        <pt x="155" y="1521" on="1"/>
        <pt x="290" y="1521" on="1"/>
        <pt x="290" y="1212" on="1"/>
        <pt x="1162" y="1212" on="1"/>
        <pt x="1162" y="1521" on="1"/>
        <pt x="1297" y="1521" on="1"/>
        <pt x="1297" y="1212" on="1"/>
        <pt x="1389" y="1212" on="1"/>
        <pt x="1389" y="1125" on="1"/>
        <pt x="1297" y="1125" on="1"/>
        <pt x="1297" y="0" on="1"/>
        <pt x="1162" y="0" on="1"/>
        <pt x="1162" y="721" on="1"/>
        <pt x="290" y="721" on="1"/>
        <pt x="290" y="0" on="1"/>
      </contour>
      <contour>
        <pt x="290" y="845" on="1"/>
        <pt x="1162" y="845" on="1"/>
        <pt x="1162" y="1125" on="1"/>
        <pt x="290" y="1125" on="1"/>
      </contour>
    </TTGlyph>
    <TTGlyph name="Hcircumflex" xMin="182" yMin="0" xMax="1292" yMax="1975">
      <component glyphName="circumflex" x="336" y="306" flags="0x1004"/>
      <component glyphName="H" x="0" y="0" flags="0x1204"/>
    </TTGlyph>
    <TTGlyph name="I" xMin="193" yMin="0" xMax="321" yMax="1488">
      <contour>
        <pt x="193" y="0" on="1"/>
        <pt x="193" y="1488" on="1"/>
        <pt x="321" y="1488" on="1"/>
        <pt x="321" y="0" on="1"/>
      </contour>
    </TTGlyph>
    <TTGlyph name="IJ" xMin="193" yMin="-138" xMax="881" yMax="1514">
      <component glyphName="I" x="0" y="0" flags="0x1004"/>
      <component glyphName="J" x="514" y="0" flags="0x1004"/>
    </TTGlyph>
    <TTGlyph name="Iacute" xMin="193" yMin="0" xMax="568" yMax="2003">
      <component glyphName="acute" x="94" y="329" flags="0x1004"/>
      <component glyphName="I" x="0" y="0" flags="0x1204"/>
    </TTGlyph>
    <TTGlyph name="Ibreve" xMin="24" yMin="0" xMax="490" yMax="1868">
      <component glyphName="breve" x="-134" y="260" flags="0x1004"/>
      <component glyphName="I" x="0" y="0" flags="0x1204"/>
    </TTGlyph>
    <TTGlyph name="Icircumflex" xMin="-9" yMin="0" xMax="523" yMax="1975">
      <component glyphName="circumflex" x="-144" y="306" flags="0x1004"/>
      <component glyphName="I" x="0" y="0" flags="0x1204"/>
    </TTGlyph>
    <TTGlyph name="Idieresis" xMin="0" yMin="0" xMax="514" yMax="1793">
      <component glyphName="dieresis" x="-136" y="350" flags="0x1004"/>
      <component glyphName="I" x="0" y="0" flags="0x1204"/>
    </TTGlyph>
    <TTGlyph name="Idotaccent" xMin="180" yMin="0" xMax="334" yMax="1801">
      <component glyphName="dotaccent" x="74" y="285" flags="0x1004"/>
      <component glyphName="I" x="0" y="0" flags="0x1204"/>
    </TTGlyph>
    <TTGlyph name="Igrave" xMin="-56" yMin="0" xMax="321" yMax="2003">
      <component glyphName="grave" x="-240" y="329" flags="0x1004"/>
      <component glyphName="I" x="0" y="0" flags="0x1204"/>
    </TTGlyph>
    <TTGlyph name="Imacron" xMin="-52" yMin="0" xMax="566" yMax="1722">
      <component glyphName="macron" x="-308" y="346" flags="0x1004"/>
      <component glyphName="I" x="0" y="0" flags="0x1204"/>
    </TTGlyph>
    <TTGlyph name="Iogonek" xMin="7" yMin="-409" xMax="335" yMax="1488">
      <component glyphName="ogonek" x="-112" y="28" flags="0x1004"/>
      <component glyphName="I" x="0" y="0" flags="0x1204"/>
    </TTGlyph>
    <TTGlyph name="Itilde" xMin="-28" yMin="0" xMax="542" yMax="1802">
      <component glyphName="tilde" x="-178" y="280" flags="0x1004"/>
      <component glyphName="I" x="0" y="0" flags="0x1204"/>
    </TTGlyph>
    <TTGlyph name="J" xMin="-20" yMin="-138" xMax="367" yMax="1514">
      <contour>
        <pt x="1" y="-138" on="1"/>
        <pt x="-20" y="-46" on="1"/>
        <pt x="40" y="-43" on="1"/>
        <pt x="72" y="-43" on="0"/>
        <pt x="124" y="-33" on="0"/>
        <pt x="162" y="-20" on="0"/>
        <pt x="191" y="8" on="0"/>
        <pt x="210" y="30" on="0"/>
        <pt x="224" y="73" on="0"/>
        <pt x="230" y="101" on="0"/>
        <pt x="234" y="155" on="0"/>
        <pt x="234" y="186" on="0"/>
        <pt x="234" y="216" on="1"/>
        <pt x="234" y="1514" on="1"/>
        <pt x="367" y="1514" on="1"/>
        <pt x="367" y="303" on="1"/>
        <pt x="367" y="240" on="0"/>
        <pt x="366" y="178" on="0"/>
        <pt x="360" y="79" on="0"/>
        <pt x="347" y="33" on="0"/>
        <pt x="324" y="-37" on="0"/>
        <pt x="288" y="-68" on="0"/>
        <pt x="235" y="-109" on="0"/>
        <pt x="165" y="-126" on="0"/>
        <pt x="72" y="-138" on="0"/>
        <pt x="13" y="-138" on="1"/>
      </contour>
    </TTGlyph>
    <TTGlyph name="Jcircumflex" xMin="-92" yMin="-138" xMax="439" yMax="1975">
      <component glyphName="circumflex" x="-228" y="306" flags="0x1004"/>
      <component glyphName="J" x="0" y="0" flags="0x1204"/>
    </TTGlyph>
    <TTGlyph name="K" xMin="182" yMin="0" xMax="1226" yMax="1488">
      <contour>
        <pt x="182" y="0" on="1"/>
        <pt x="182" y="1488" on="1"/>
        <pt x="311" y="1488" on="1"/>
        <pt x="311" y="719" on="1"/>
        <pt x="355" y="768" on="0"/>
        <pt x="499" y="927" on="0"/>
        <pt x="804" y="1264" on="0"/>
        <pt x="905" y="1376" on="1"/>
        <pt x="1006" y="1488" on="1"/>
        <pt x="1175" y="1488" on="1"/>
        <pt x="554" y="817" on="1"/>
        <pt x="1226" y="0" on="1"/>
        <pt x="1063" y="0" on="1"/>
        <pt x="456" y="739" on="1"/>
        <pt x="311" y="603" on="1"/>
        <pt x="311" y="0" on="1"/>
      </contour>
    </TTGlyph>
    <TTGlyph name="Kcommaaccent" xMin="182" yMin="-605" xMax="1226" yMax="1488">
      <component glyphName="glyph00382" x="420" y="43" flags="0x1004"/>
      <component glyphName="K" x="0" y="0" flags="0x1204"/>
    </TTGlyph>
    <TTGlyph name="L" xMin="182" yMin="0" xMax="980" yMax="1488">
      <contour>
        <pt x="182" y="0" on="1"/>
        <pt x="182" y="1488" on="1"/>
        <pt x="311" y="1488" on="1"/>
        <pt x="311" y="113" on="1"/>
        <pt x="980" y="113" on="1"/>
        <pt x="974" y="0" on="1"/>
      </contour>
    </TTGlyph>
    <TTGlyph name="Lacute" xMin="182" yMin="0" xMax="980" yMax="2003">
      <component glyphName="acute" x="418" y="329" flags="0x1004"/>
      <component glyphName="L" x="0" y="0" flags="0x1204"/>
    </TTGlyph>
    <TTGlyph name="Lcaron" xMin="182" yMin="0" xMax="1407" yMax="1514">
      <contour>
        <pt x="1133" y="1064" on="1"/>
        <pt x="1271" y="1514" on="1"/>
        <pt x="1407" y="1514" on="1"/>
        <pt x="1237" y="1064" on="1"/>
      </contour>
      <contour>
        <pt x="182" y="0" on="1"/>
        <pt x="182" y="1488" on="1"/>
        <pt x="311" y="1488" on="1"/>
        <pt x="311" y="113" on="1"/>
        <pt x="980" y="113" on="1"/>
        <pt x="974" y="0" on="1"/>
      </contour>
    </TTGlyph>
    <TTGlyph name="Lcommaaccent" xMin="182" yMin="-605" xMax="980" yMax="1488">
      <component glyphName="glyph00382" x="297" y="43" flags="0x1004"/>
      <component glyphName="L" x="0" y="0" flags="0x1204"/>
    </TTGlyph>
    <TTGlyph name="Ldot" xMin="182" yMin="0" xMax="980" yMax="1488">
      <component glyphName="glyph00383" x="347" y="97" flags="0x1004"/>
      <component glyphName="L" x="0" y="0" flags="0x1204"/>
    </TTGlyph>
    <TTGlyph name="Lslash" xMin="9" yMin="0" xMax="966" yMax="1518">
      <contour>
        <pt x="156" y="0" on="1"/>
        <pt x="156" y="618" on="1"/>
        <pt x="9" y="545" on="1"/>
        <pt x="9" y="669" on="1"/>
        <pt x="156" y="744" on="1"/>
        <pt x="156" y="1518" on="1"/>
        <pt x="291" y="1518" on="1"/>
        <pt x="291" y="801" on="1"/>
        <pt x="653" y="998" on="1"/>
        <pt x="653" y="862" on="1"/>
        <pt x="291" y="672" on="1"/>
        <pt x="291" y="124" on="1"/>
        <pt x="966" y="124" on="1"/>
        <pt x="955" y="0" on="1"/>
      </contour>
    </TTGlyph>
    <TTGlyph name="M" xMin="182" yMin="0" xMax="1622" yMax="1488">
      <contour>
        <pt x="182" y="0" on="1"/>
        <pt x="182" y="1488" on="1"/>
        <pt x="362" y="1488" on="1"/>
        <pt x="913" y="231" on="1"/>
        <pt x="1449" y="1488" on="1"/>
        <pt x="1622" y="1488" on="1"/>
        <pt x="1622" y="0" on="1"/>
        <pt x="1495" y="0" on="1"/>
        <pt x="1495" y="1001" on="1"/>
        <pt x="1502" y="1339" on="1"/>
        <pt x="1465" y="1219" on="1"/>
        <pt x="976" y="85" on="1"/>
        <pt x="836" y="85" on="1"/>
        <pt x="341" y="1222" on="1"/>
        <pt x="302" y="1342" on="1"/>
        <pt x="309" y="996" on="1"/>
        <pt x="309" y="0" on="1"/>
      </contour>
    </TTGlyph>
    <TTGlyph name="N" xMin="182" yMin="0" xMax="1317" yMax="1488">
      <contour>
        <pt x="182" y="0" on="1"/>
        <pt x="182" y="1488" on="1"/>
        <pt x="331" y="1488" on="1"/>
        <pt x="1150" y="233" on="1"/>
        <pt x="1203" y="160" on="1"/>
        <pt x="1196" y="468" on="0"/>
        <pt x="1196" y="543" on="1"/>
        <pt x="1196" y="1488" on="1"/>
        <pt x="1317" y="1488" on="1"/>
        <pt x="1317" y="0" on="1"/>
        <pt x="1165" y="0" on="1"/>
        <pt x="348" y="1253" on="1"/>
        <pt x="297" y="1326" on="1"/>
        <pt x="305" y="1101" on="0"/>
        <pt x="305" y="938" on="1"/>
        <pt x="305" y="0" on="1"/>
      </contour>
    </TTGlyph>
    <TTGlyph name="Nacute" xMin="182" yMin="0" xMax="1317" yMax="2003">
      <component glyphName="acute" x="586" y="329" flags="0x1004"/>
      <component glyphName="N" x="0" y="0" flags="0x1204"/>
    </TTGlyph>
    <TTGlyph name="Ncaron" xMin="182" yMin="0" xMax="1317" yMax="1975">
      <component glyphName="caron" x="348" y="306" flags="0x1004"/>
      <component glyphName="N" x="0" y="0" flags="0x1204"/>
    </TTGlyph>
    <TTGlyph name="Ncommaaccent" xMin="182" yMin="-605" xMax="1317" yMax="1488">
      <component glyphName="glyph00382" x="466" y="43" flags="0x1004"/>
      <component glyphName="N" x="0" y="0" flags="0x1204"/>
    </TTGlyph>
    <TTGlyph name="Ntilde" xMin="182" yMin="0" xMax="1317" yMax="1802">
      <component glyphName="tilde" x="314" y="280" flags="0x1004"/>
      <component glyphName="N" x="0" y="0" flags="0x1204"/>
    </TTGlyph>
    <TTGlyph name="O" xMin="118" yMin="-23" xMax="1509" yMax="1514">
      <contour>
        <pt x="815" y="82" on="1"/>
        <pt x="999" y="82" on="0"/>
        <pt x="1250" y="250" on="0"/>
        <pt x="1367" y="543" on="0"/>
        <pt x="1367" y="745" on="1"/>
        <pt x="1367" y="1061" on="0"/>
        <pt x="1087" y="1407" on="0"/>
        <pt x="816" y="1407" on="1"/>
        <pt x="543" y="1407" on="0"/>
        <pt x="258" y="1062" on="0"/>
        <pt x="258" y="745" on="1"/>
        <pt x="258" y="438" on="0"/>
        <pt x="541" y="82" on="0"/>
      </contour>
      <contour>
        <pt x="815" y="-23" on="1"/>
        <pt x="645" y="-23" on="0"/>
        <pt x="378" y="90" on="0"/>
        <pt x="207" y="295" on="0"/>
        <pt x="118" y="575" on="0"/>
        <pt x="118" y="744" on="1"/>
        <pt x="118" y="1098" on="0"/>
        <pt x="483" y="1514" on="0"/>
        <pt x="816" y="1514" on="1"/>
        <pt x="1143" y="1514" on="0"/>
        <pt x="1509" y="1095" on="0"/>
        <pt x="1509" y="743" on="1"/>
        <pt x="1509" y="578" on="0"/>
        <pt x="1419" y="299" on="0"/>
        <pt x="1248" y="93" on="0"/>
        <pt x="982" y="-23" on="0"/>
      </contour>
    </TTGlyph>
    <TTGlyph name="OE" xMin="118" yMin="-23" xMax="1835" yMax="1514">
      <contour>
        <pt x="817" y="-23" on="1"/>
        <pt x="640" y="-23" on="0"/>
        <pt x="371" y="91" on="0"/>
        <pt x="202" y="305" on="0"/>
        <pt x="118" y="600" on="0"/>
        <pt x="118" y="785" on="1"/>
        <pt x="118" y="949" on="0"/>
        <pt x="221" y="1223" on="0"/>
        <pt x="401" y="1410" on="0"/>
        <pt x="653" y="1514" on="0"/>
        <pt x="799" y="1514" on="1"/>
        <pt x="907" y="1514" on="0"/>
        <pt x="1088" y="1470" on="0"/>
        <pt x="1139" y="1435" on="1"/>
        <pt x="1139" y="1488" on="1"/>
        <pt x="1813" y="1488" on="1"/>
        <pt x="1797" y="1382" on="1"/>
        <pt x="1267" y="1382" on="1"/>
        <pt x="1267" y="822" on="1"/>
        <pt x="1758" y="822" on="1"/>
        <pt x="1758" y="713" on="1"/>
        <pt x="1267" y="713" on="1"/>
        <pt x="1267" y="107" on="1"/>
        <pt x="1835" y="107" on="1"/>
        <pt x="1821" y="0" on="1"/>
        <pt x="1139" y="0" on="1"/>
        <pt x="1139" y="60" on="1"/>
        <pt x="1120" y="37" on="0"/>
        <pt x="897" y="-23" on="0"/>
      </contour>
      <contour>
        <pt x="819" y="82" on="1"/>
        <pt x="872" y="82" on="0"/>
        <pt x="971" y="99" on="0"/>
        <pt x="1030" y="115" on="0"/>
        <pt x="1100" y="150" on="0"/>
        <pt x="1116" y="160" on="0"/>
        <pt x="1139" y="175" on="1"/>
        <pt x="1139" y="1318" on="1"/>
        <pt x="1003" y="1407" on="0"/>
        <pt x="807" y="1407" on="1"/>
        <pt x="553" y="1407" on="0"/>
        <pt x="258" y="1077" on="0"/>
        <pt x="258" y="771" on="1"/>
        <pt x="258" y="655" on="0"/>
        <pt x="290" y="460" on="0"/>
        <pt x="370" y="281" on="0"/>
        <pt x="495" y="156" on="0"/>
        <pt x="692" y="82" on="0"/>
      </contour>
    </TTGlyph>
    <TTGlyph name="Oacute" xMin="118" yMin="-23" xMax="1509" yMax="2003">
      <component glyphName="acute" x="650" y="329" flags="0x1004"/>
      <component glyphName="O" x="0" y="0" flags="0x1204"/>
    </TTGlyph>
    <TTGlyph name="Obreve" xMin="118" yMin="-23" xMax="1509" yMax="1868">
      <component glyphName="breve" x="422" y="260" flags="0x1004"/>
      <component glyphName="O" x="0" y="0" flags="0x1204"/>
    </TTGlyph>
    <TTGlyph name="Ocircumflex" xMin="118" yMin="-23" xMax="1509" yMax="1975">
      <component glyphName="circumflex" x="412" y="306" flags="0x1004"/>
      <component glyphName="O" x="0" y="0" flags="0x1204"/>
    </TTGlyph>
    <TTGlyph name="Odieresis" xMin="118" yMin="-23" xMax="1509" yMax="1793">
      <component glyphName="dieresis" x="421" y="350" flags="0x1004"/>
      <component glyphName="O" x="0" y="0" flags="0x1204"/>
    </TTGlyph>
    <TTGlyph name="Ograve" xMin="118" yMin="-23" xMax="1509" yMax="2003">
      <component glyphName="grave" x="317" y="329" flags="0x1004"/>
      <component glyphName="O" x="0" y="0" flags="0x1204"/>
    </TTGlyph>
    <TTGlyph name="Ohungarumlaut" xMin="118" yMin="-23" xMax="1509" yMax="1934">
      <component glyphName="hungarumlaut" x="553" y="288" flags="0x1004"/>
      <component glyphName="O" x="0" y="0" flags="0x1204"/>
    </TTGlyph>
    <TTGlyph name="Omacron" xMin="118" yMin="-23" xMax="1509" yMax="1722">
      <component glyphName="macron" x="248" y="346" flags="0x1004"/>
      <component glyphName="O" x="0" y="0" flags="0x1204"/>
    </TTGlyph>
    <TTGlyph name="Oslash" xMin="118" yMin="-229" xMax="1509" yMax="1706">
      <contour>
        <pt x="480" y="-229" on="1"/>
        <pt x="391" y="-192" on="1"/>
        <pt x="487" y="44" on="1"/>
        <pt x="306" y="130" on="0"/>
        <pt x="118" y="495" on="0"/>
        <pt x="118" y="744" on="1"/>
        <pt x="118" y="977" on="0"/>
        <pt x="277" y="1323" on="0"/>
        <pt x="594" y="1517" on="0"/>
        <pt x="816" y="1517" on="1"/>
        <pt x="953" y="1517" on="0"/>
        <pt x="1070" y="1477" on="1"/>
        <pt x="1163" y="1706" on="1"/>
        <pt x="1257" y="1673" on="1"/>
        <pt x="1161" y="1437" on="1"/>
        <pt x="1329" y="1347" on="0"/>
        <pt x="1509" y="987" on="0"/>
        <pt x="1509" y="743" on="1"/>
        <pt x="1509" y="578" on="0"/>
        <pt x="1419" y="299" on="0"/>
        <pt x="1248" y="93" on="0"/>
        <pt x="982" y="-23" on="0"/>
        <pt x="815" y="-23" on="1"/>
        <pt x="684" y="-23" on="0"/>
        <pt x="578" y="10" on="1"/>
      </contour>
      <contour>
        <pt x="530" y="150" on="1"/>
        <pt x="1029" y="1376" on="1"/>
        <pt x="932" y="1410" on="0"/>
        <pt x="816" y="1410" on="1"/>
        <pt x="544" y="1410" on="0"/>
        <pt x="258" y="1062" on="0"/>
        <pt x="258" y="745" on="1"/>
        <pt x="258" y="533" on="0"/>
        <pt x="395" y="226" on="0"/>
      </contour>
      <contour>
        <pt x="815" y="82" on="1"/>
        <pt x="999" y="82" on="0"/>
        <pt x="1250" y="250" on="0"/>
        <pt x="1367" y="543" on="0"/>
        <pt x="1367" y="745" on="1"/>
        <pt x="1367" y="1176" on="0"/>
        <pt x="1118" y="1332" on="1"/>
        <pt x="619" y="111" on="1"/>
        <pt x="708" y="82" on="0"/>
      </contour>
    </TTGlyph>
    <TTGlyph name="Otilde" xMin="118" yMin="-23" xMax="1509" yMax="1802">
      <component glyphName="tilde" x="378" y="280" flags="0x1004"/>
      <component glyphName="O" x="0" y="0" flags="0x1204"/>
    </TTGlyph>
    <TTGlyph name="P" xMin="182" yMin="0" xMax="1088" yMax="1488">
      <contour>
        <pt x="182" y="0" on="1"/>
        <pt x="182" y="1488" on="1"/>
        <pt x="637" y="1488" on="1"/>
        <pt x="733" y="1488" on="0"/>
        <pt x="891" y="1447" on="0"/>
        <pt x="1018" y="1361" on="0"/>
        <pt x="1088" y="1214" on="0"/>
        <pt x="1088" y="1116" on="1"/>
        <pt x="1088" y="1059" on="0"/>
        <pt x="1077" y="968" on="0"/>
        <pt x="1047" y="872" on="0"/>
        <pt x="996" y="800" on="0"/>
        <pt x="913" y="734" on="0"/>
        <pt x="800" y="692" on="0"/>
        <pt x="642" y="668" on="0"/>
        <pt x="543" y="668" on="1"/>
        <pt x="437" y="668" on="0"/>
        <pt x="311" y="681" on="1"/>
        <pt x="311" y="0" on="1"/>
      </contour>
      <contour>
        <pt x="556" y="779" on="1"/>
        <pt x="672" y="779" on="0"/>
        <pt x="834" y="825" on="0"/>
        <pt x="914" y="883" on="0"/>
        <pt x="956" y="989" on="0"/>
        <pt x="961" y="1053" on="0"/>
        <pt x="961" y="1111" on="1"/>
        <pt x="961" y="1115" on="0"/>
        <pt x="961" y="1117" on="1"/>
        <pt x="961" y="1248" on="0"/>
        <pt x="783" y="1376" on="0"/>
        <pt x="642" y="1376" on="1"/>
        <pt x="311" y="1376" on="1"/>
        <pt x="311" y="791" on="1"/>
        <pt x="399" y="779" on="0"/>
      </contour>
    </TTGlyph>
    <TTGlyph name="Q" xMin="118" yMin="-470" xMax="1494" yMax="1514">
      <contour>
        <pt x="1253" y="-470" on="1"/>
        <pt x="1252" y="-468" on="0"/>
        <pt x="1205" y="-408" on="0"/>
        <pt x="1132" y="-310" on="0"/>
        <pt x="1052" y="-196" on="0"/>
        <pt x="971" y="-65" on="0"/>
        <pt x="947" y="-12" on="1"/>
        <pt x="878" y="-23" on="0"/>
        <pt x="807" y="-23" on="1"/>
        <pt x="635" y="-23" on="0"/>
        <pt x="370" y="90" on="0"/>
        <pt x="203" y="296" on="0"/>
        <pt x="118" y="575" on="0"/>
        <pt x="118" y="746" on="1"/>
        <pt x="118" y="1103" on="0"/>
        <pt x="473" y="1514" on="0"/>
        <pt x="809" y="1514" on="1"/>
        <pt x="1138" y="1514" on="0"/>
        <pt x="1494" y="1099" on="0"/>
        <pt x="1494" y="745" on="1"/>
        <pt x="1494" y="482" on="0"/>
        <pt x="1282" y="98" on="0"/>
        <pt x="1069" y="17" on="1"/>
        <pt x="1087" y="-15" on="0"/>
        <pt x="1148" y="-115" on="0"/>
        <pt x="1298" y="-333" on="0"/>
        <pt x="1351" y="-386" on="1"/>
      </contour>
      <contour>
        <pt x="537" y="91" on="0"/>
        <pt x="1077" y="91" on="0"/>
        <pt x="1347" y="437" on="0"/>
        <pt x="1347" y="747" on="1"/>
        <pt x="1347" y="1066" on="0"/>
        <pt x="1075" y="1400" on="0"/>
        <pt x="808" y="1400" on="1"/>
        <pt x="540" y="1400" on="0"/>
        <pt x="262" y="1066" on="0"/>
        <pt x="262" y="747" on="1"/>
        <pt x="262" y="438" on="0"/>
      </contour>
    </TTGlyph>
    <TTGlyph name="R" xMin="182" yMin="0" xMax="1233" yMax="1488">
      <contour>
        <pt x="182" y="0" on="1"/>
        <pt x="182" y="1488" on="1"/>
        <pt x="606" y="1488" on="1"/>
        <pt x="687" y="1488" on="0"/>
        <pt x="806" y="1482" on="0"/>
        <pt x="930" y="1462" on="0"/>
        <pt x="1017" y="1429" on="0"/>
        <pt x="1096" y="1373" on="0"/>
        <pt x="1144" y="1294" on="0"/>
        <pt x="1171" y="1184" on="0"/>
        <pt x="1171" y="1114" on="1"/>
        <pt x="1171" y="977" on="0"/>
        <pt x="1037" y="781" on="0"/>
        <pt x="899" y="746" on="1"/>
        <pt x="959" y="623" on="0"/>
        <pt x="989" y="559" on="1"/>
        <pt x="1233" y="0" on="1"/>
        <pt x="1084" y="0" on="1"/>
        <pt x="874" y="509" on="1"/>
        <pt x="853" y="559" on="0"/>
        <pt x="780" y="725" on="1"/>
        <pt x="760" y="722" on="0"/>
        <pt x="632" y="722" on="1"/>
        <pt x="310" y="728" on="1"/>
        <pt x="310" y="0" on="1"/>
      </contour>
      <contour>
        <pt x="687" y="828" on="1"/>
        <pt x="886" y="828" on="0"/>
        <pt x="1044" y="967" on="0"/>
        <pt x="1044" y="1112" on="1"/>
        <pt x="1044" y="1242" on="0"/>
        <pt x="901" y="1381" on="0"/>
        <pt x="729" y="1381" on="1"/>
        <pt x="310" y="1381" on="1"/>
        <pt x="310" y="831" on="1"/>
        <pt x="545" y="828" on="0"/>
      </contour>
    </TTGlyph>
    <TTGlyph name="Racute" xMin="182" yMin="0" xMax="1233" yMax="2003">
      <component glyphName="acute" x="544" y="329" flags="0x1004"/>
      <component glyphName="R" x="0" y="0" flags="0x1204"/>
    </TTGlyph>
    <TTGlyph name="Rcaron" xMin="182" yMin="0" xMax="1233" yMax="1975">
      <component glyphName="caron" x="306" y="306" flags="0x1004"/>
      <component glyphName="R" x="0" y="0" flags="0x1204"/>
    </TTGlyph>
    <TTGlyph name="Rcommaaccent" xMin="182" yMin="-605" xMax="1233" yMax="1488">
      <component glyphName="glyph00382" x="424" y="43" flags="0x1004"/>
      <component glyphName="R" x="0" y="0" flags="0x1204"/>
    </TTGlyph>
    <TTGlyph name="S" xMin="97" yMin="-23" xMax="1159" yMax="1514">
      <contour>
        <pt x="658" y="-23" on="1"/>
        <pt x="469" y="-23" on="0"/>
        <pt x="179" y="57" on="0"/>
        <pt x="99" y="105" on="1"/>
        <pt x="147" y="196" on="1"/>
        <pt x="358" y="82" on="0"/>
        <pt x="669" y="82" on="1"/>
        <pt x="840" y="82" on="0"/>
        <pt x="1025" y="260" on="0"/>
        <pt x="1025" y="422" on="1"/>
        <pt x="1025" y="482" on="0"/>
        <pt x="1003" y="564" on="0"/>
        <pt x="943" y="639" on="0"/>
        <pt x="828" y="690" on="0"/>
        <pt x="739" y="708" on="1"/>
        <pt x="499" y="756" on="1"/>
        <pt x="298" y="796" on="0"/>
        <pt x="97" y="968" on="0"/>
        <pt x="97" y="1127" on="1"/>
        <pt x="97" y="1230" on="0"/>
        <pt x="177" y="1381" on="0"/>
        <pt x="328" y="1471" on="0"/>
        <pt x="527" y="1514" on="0"/>
        <pt x="654" y="1514" on="1"/>
        <pt x="780" y="1514" on="0"/>
        <pt x="1021" y="1452" on="0"/>
        <pt x="1098" y="1413" on="1"/>
        <pt x="1065" y="1315" on="1"/>
        <pt x="1006" y="1348" on="0"/>
        <pt x="775" y="1407" on="0"/>
        <pt x="651" y="1407" on="1"/>
        <pt x="440" y="1407" on="0"/>
        <pt x="228" y="1266" on="0"/>
        <pt x="228" y="1114" on="1"/>
        <pt x="228" y="1019" on="0"/>
        <pt x="362" y="904" on="0"/>
        <pt x="493" y="876" on="1"/>
        <pt x="761" y="821" on="1"/>
        <pt x="861" y="800" on="0"/>
        <pt x="1000" y="742" on="0"/>
        <pt x="1107" y="650" on="0"/>
        <pt x="1159" y="513" on="0"/>
        <pt x="1159" y="419" on="1"/>
        <pt x="1159" y="209" on="0"/>
        <pt x="884" y="-23" on="0"/>
      </contour>
    </TTGlyph>
    <TTGlyph name="Sacute" xMin="97" yMin="-23" xMax="1159" yMax="2003">
      <component glyphName="acute" x="464" y="329" flags="0x1004"/>
      <component glyphName="S" x="0" y="0" flags="0x1204"/>
    </TTGlyph>
    <TTGlyph name="Scaron" xMin="97" yMin="-23" xMax="1159" yMax="1975">
      <component glyphName="caron" x="226" y="306" flags="0x1004"/>
      <component glyphName="S" x="0" y="0" flags="0x1204"/>
    </TTGlyph>
    <TTGlyph name="Scedilla" xMin="97" yMin="-430" xMax="1159" yMax="1514">
      <component glyphName="cedilla" x="354" y="-20" flags="0x1004"/>
      <component glyphName="S" x="0" y="0" flags="0x1204"/>
    </TTGlyph>
    <TTGlyph name="Scommaaccent" xMin="97" yMin="-628" xMax="1159" yMax="1514">
      <component glyphName="glyph00382" x="344" y="20" flags="0x1004"/>
      <component glyphName="S" x="0" y="0" flags="0x1204"/>
    </TTGlyph>
    <TTGlyph name="T" xMin="8" yMin="0" xMax="1074" yMax="1488">
      <contour>
        <pt x="476" y="0" on="1"/>
        <pt x="476" y="1378" on="1"/>
        <pt x="8" y="1378" on="1"/>
        <pt x="8" y="1488" on="1"/>
        <pt x="1074" y="1488" on="1"/>
        <pt x="1074" y="1378" on="1"/>
        <pt x="606" y="1378" on="1"/>
        <pt x="606" y="0" on="1"/>
      </contour>
    </TTGlyph>
    <TTGlyph name="Tcaron" xMin="8" yMin="0" xMax="1074" yMax="1975">
      <component glyphName="caron" x="140" y="306" flags="0x1004"/>
      <component glyphName="T" x="0" y="0" flags="0x1204"/>
    </TTGlyph>
    <TTGlyph name="Thorn" xMin="182" yMin="0" xMax="1216" yMax="1489">
      <contour>
        <pt x="182" y="0" on="1"/>
        <pt x="182" y="1488" on="1"/>
        <pt x="310" y="1488" on="1"/>
        <pt x="310" y="1191" on="1"/>
        <pt x="679" y="1191" on="1"/>
        <pt x="960" y="1191" on="0"/>
        <pt x="1216" y="1000" on="0"/>
        <pt x="1216" y="765" on="1"/>
        <pt x="1216" y="694" on="0"/>
        <pt x="1189" y="576" on="0"/>
        <pt x="1121" y="470" on="0"/>
        <pt x="1015" y="398" on="0"/>
        <pt x="847" y="356" on="0"/>
        <pt x="738" y="356" on="1"/>
        <pt x="310" y="356" on="1"/>
        <pt x="310" y="0" on="1"/>
      </contour>
      <contour>
        <pt x="310" y="458" on="1"/>
        <pt x="744" y="458" on="1"/>
        <pt x="823" y="458" on="0"/>
        <pt x="943" y="491" on="0"/>
        <pt x="1019" y="547" on="0"/>
        <pt x="1066" y="630" on="0"/>
        <pt x="1085" y="720" on="0"/>
        <pt x="1085" y="775" on="1"/>
        <pt x="1085" y="884" on="0"/>
        <pt x="1016" y="1015" on="0"/>
        <pt x="843" y="1085" on="0"/>
        <pt x="695" y="1085" on="1"/>
        <pt x="310" y="1085" on="1"/>
      </contour>
    </TTGlyph>
    <TTGlyph name="U" xMin="157" yMin="-23" xMax="1251" yMax="1488">
      <contour>
        <pt x="699" y="-23" on="1"/>
        <pt x="555" y="-23" on="0"/>
        <pt x="343" y="55" on="0"/>
        <pt x="217" y="201" on="0"/>
        <pt x="157" y="394" on="0"/>
        <pt x="157" y="517" on="1"/>
        <pt x="157" y="1488" on="1"/>
        <pt x="285" y="1488" on="1"/>
        <pt x="285" y="497" on="1"/>
        <pt x="285" y="284" on="0"/>
        <pt x="495" y="79" on="0"/>
        <pt x="707" y="79" on="1"/>
        <pt x="1123" y="79" on="0"/>
        <pt x="1123" y="498" on="1"/>
        <pt x="1123" y="1488" on="1"/>
        <pt x="1251" y="1488" on="1"/>
        <pt x="1251" y="515" on="1"/>
        <pt x="1251" y="417" on="0"/>
        <pt x="1212" y="255" on="0"/>
        <pt x="1128" y="121" on="0"/>
        <pt x="1000" y="28" on="0"/>
        <pt x="815" y="-23" on="0"/>
      </contour>
    </TTGlyph>
    <TTGlyph name="Uacute" xMin="157" yMin="-23" xMax="1251" yMax="2003">
      <component glyphName="acute" x="540" y="329" flags="0x1004"/>
      <component glyphName="U" x="0" y="0" flags="0x1204"/>
    </TTGlyph>
    <TTGlyph name="Ubreve" xMin="157" yMin="-23" xMax="1251" yMax="1868">
      <component glyphName="breve" x="312" y="260" flags="0x1004"/>
      <component glyphName="U" x="0" y="0" flags="0x1204"/>
    </TTGlyph>
    <TTGlyph name="Ucircumflex" xMin="157" yMin="-23" xMax="1251" yMax="1975">
      <component glyphName="circumflex" x="302" y="306" flags="0x1004"/>
      <component glyphName="U" x="0" y="0" flags="0x1204"/>
    </TTGlyph>
    <TTGlyph name="Udieresis" xMin="157" yMin="-23" xMax="1251" yMax="1793">
      <component glyphName="dieresis" x="312" y="350" flags="0x1004"/>
      <component glyphName="U" x="0" y="0" flags="0x1204"/>
    </TTGlyph>
    <TTGlyph name="Ugrave" xMin="157" yMin="-23" xMax="1251" yMax="2003">
      <component glyphName="grave" x="208" y="329" flags="0x1004"/>
      <component glyphName="U" x="0" y="0" flags="0x1204"/>
    </TTGlyph>
    <TTGlyph name="Uhungarumlaut" xMin="157" yMin="-23" xMax="1251" yMax="1934">
      <component glyphName="hungarumlaut" x="444" y="288" flags="0x1004"/>
      <component glyphName="U" x="0" y="0" flags="0x1204"/>
    </TTGlyph>
    <TTGlyph name="Umacron" xMin="157" yMin="-23" xMax="1251" yMax="1722">
      <component glyphName="macron" x="138" y="346" flags="0x1004"/>
      <component glyphName="U" x="0" y="0" flags="0x1204"/>
    </TTGlyph>
    <TTGlyph name="Uogonek" xMin="157" yMin="-432" xMax="1251" yMax="1488">
      <component glyphName="ogonek" x="334" y="5" flags="0x1004"/>
      <component glyphName="U" x="0" y="0" flags="0x1204"/>
    </TTGlyph>
    <TTGlyph name="Uring" xMin="157" yMin="-23" xMax="1251" yMax="1973">
      <component glyphName="ring" x="392" y="299" flags="0x1004"/>
      <component glyphName="U" x="0" y="0" flags="0x1204"/>
    </TTGlyph>
    <TTGlyph name="Utilde" xMin="157" yMin="-23" xMax="1251" yMax="1802">
      <component glyphName="tilde" x="269" y="280" flags="0x1004"/>
      <component glyphName="U" x="0" y="0" flags="0x1204"/>
    </TTGlyph>
    <TTGlyph name="V" xMin="-5" yMin="0" xMax="1211" yMax="1488">
      <contour>
        <pt x="531" y="0" on="1"/>
        <pt x="-5" y="1488" on="1"/>
        <pt x="137" y="1488" on="1"/>
        <pt x="475" y="529" on="1"/>
        <pt x="495" y="464" on="0"/>
        <pt x="544" y="325" on="0"/>
        <pt x="580" y="213" on="0"/>
        <pt x="599" y="137" on="1"/>
        <pt x="606" y="173" on="0"/>
        <pt x="633" y="257" on="0"/>
        <pt x="696" y="442" on="0"/>
        <pt x="726" y="535" on="1"/>
        <pt x="799" y="767" on="0"/>
        <pt x="1001" y="1283" on="0"/>
        <pt x="1067" y="1488" on="1"/>
        <pt x="1211" y="1488" on="1"/>
        <pt x="668" y="0" on="1"/>
      </contour>
    </TTGlyph>
    <TTGlyph name="W" xMin="2" yMin="0" xMax="1993" yMax="1488">
      <contour>
        <pt x="464" y="0" on="1"/>
        <pt x="2" y="1488" on="1"/>
        <pt x="143" y="1488" on="1"/>
        <pt x="539" y="142" on="1"/>
        <pt x="919" y="1448" on="1"/>
        <pt x="1087" y="1448" on="1"/>
        <pt x="1458" y="143" on="1"/>
        <pt x="1853" y="1488" on="1"/>
        <pt x="1993" y="1488" on="1"/>
        <pt x="1532" y="0" on="1"/>
        <pt x="1389" y="0" on="1"/>
        <pt x="1006" y="1321" on="1"/>
        <pt x="606" y="0" on="1"/>
      </contour>
    </TTGlyph>
    <TTGlyph name="X" xMin="18" yMin="0" xMax="1178" yMax="1488">
      <contour>
        <pt x="18" y="0" on="1"/>
        <pt x="521" y="786" on="1"/>
        <pt x="49" y="1488" on="1"/>
        <pt x="202" y="1488" on="1"/>
        <pt x="603" y="851" on="1"/>
        <pt x="1021" y="1488" on="1"/>
        <pt x="1158" y="1488" on="1"/>
        <pt x="686" y="794" on="1"/>
        <pt x="1178" y="0" on="1"/>
        <pt x="1032" y="0" on="1"/>
        <pt x="600" y="706" on="1"/>
        <pt x="156" y="0" on="1"/>
      </contour>
    </TTGlyph>
    <TTGlyph name="Y" xMin="5" yMin="0" xMax="1161" yMax="1488">
      <contour>
        <pt x="501" y="0" on="1"/>
        <pt x="501" y="589" on="1"/>
        <pt x="5" y="1488" on="1"/>
        <pt x="144" y="1488" on="1"/>
        <pt x="575" y="703" on="1"/>
        <pt x="1020" y="1488" on="1"/>
        <pt x="1161" y="1488" on="1"/>
        <pt x="632" y="593" on="1"/>
        <pt x="632" y="0" on="1"/>
      </contour>
    </TTGlyph>
    <TTGlyph name="Yacute" xMin="5" yMin="0" xMax="1161" yMax="2003">
      <component glyphName="acute" x="420" y="329" flags="0x1004"/>
      <component glyphName="Y" x="0" y="0" flags="0x1204"/>
    </TTGlyph>
    <TTGlyph name="Ydieresis" xMin="5" yMin="0" xMax="1161" yMax="1793">
      <component glyphName="dieresis" x="190" y="350" flags="0x1004"/>
      <component glyphName="Y" x="0" y="0" flags="0x1204"/>
    </TTGlyph>
    <TTGlyph name="Z" xMin="97" yMin="0" xMax="1099" yMax="1488">
      <contour>
        <pt x="97" y="0" on="1"/>
        <pt x="97" y="111" on="1"/>
        <pt x="923" y="1376" on="1"/>
        <pt x="127" y="1376" on="1"/>
        <pt x="127" y="1488" on="1"/>
        <pt x="1091" y="1488" on="1"/>
        <pt x="1091" y="1384" on="1"/>
        <pt x="259" y="113" on="1"/>
        <pt x="1099" y="113" on="1"/>
        <pt x="1091" y="0" on="1"/>
      </contour>
    </TTGlyph>
    <TTGlyph name="Zacute" xMin="97" yMin="0" xMax="1099" yMax="2003">
      <component glyphName="acute" x="434" y="329" flags="0x1004"/>
      <component glyphName="Z" x="0" y="0" flags="0x1204"/>
    </TTGlyph>
    <TTGlyph name="Zcaron" xMin="97" yMin="0" xMax="1099" yMax="1975">
      <component glyphName="caron" x="196" y="306" flags="0x1004"/>
      <component glyphName="Z" x="0" y="0" flags="0x1204"/>
    </TTGlyph>
    <TTGlyph name="Zdotaccent" xMin="97" yMin="0" xMax="1099" yMax="1801">
      <component glyphName="dotaccent" x="416" y="285" flags="0x1004"/>
      <component glyphName="Z" x="0" y="0" flags="0x1204"/>
    </TTGlyph>
    <TTGlyph name="a" xMin="99" yMin="-24" xMax="926" yMax="1116">
      <contour>
        <pt x="440" y="-24" on="1"/>
        <pt x="285" y="-24" on="0"/>
        <pt x="99" y="132" on="0"/>
        <pt x="99" y="277" on="1"/>
        <pt x="99" y="363" on="0"/>
        <pt x="173" y="490" on="0"/>
        <pt x="314" y="569" on="0"/>
        <pt x="495" y="613" on="0"/>
        <pt x="615" y="622" on="1"/>
        <pt x="743" y="630" on="0"/>
        <pt x="805" y="635" on="1"/>
        <pt x="805" y="757" on="1"/>
        <pt x="805" y="883" on="0"/>
        <pt x="690" y="1010" on="0"/>
        <pt x="563" y="1010" on="1"/>
        <pt x="389" y="1010" on="0"/>
        <pt x="238" y="927" on="1"/>
        <pt x="234" y="937" on="0"/>
        <pt x="205" y="1004" on="0"/>
        <pt x="199" y="1022" on="1"/>
        <pt x="261" y="1062" on="0"/>
        <pt x="461" y="1116" on="0"/>
        <pt x="557" y="1116" on="1"/>
        <pt x="754" y="1116" on="0"/>
        <pt x="926" y="947" on="0"/>
        <pt x="926" y="732" on="1"/>
        <pt x="926" y="0" on="1"/>
        <pt x="829" y="0" on="1"/>
        <pt x="824" y="23" on="0"/>
        <pt x="805" y="159" on="0"/>
        <pt x="805" y="161" on="1"/>
        <pt x="676" y="-24" on="0"/>
      </contour>
      <contour>
        <pt x="444" y="75" on="1"/>
        <pt x="572" y="75" on="0"/>
        <pt x="771" y="226" on="0"/>
        <pt x="802" y="360" on="1"/>
        <pt x="802" y="547" on="1"/>
        <pt x="658" y="535" on="0"/>
        <pt x="657" y="535" on="1"/>
        <pt x="413" y="513" on="0"/>
        <pt x="223" y="397" on="0"/>
        <pt x="223" y="275" on="1"/>
        <pt x="223" y="175" on="0"/>
        <pt x="344" y="75" on="0"/>
      </contour>
    </TTGlyph>
    <TTGlyph name="aacute" xMin="99" yMin="-24" xMax="926" yMax="1605">
      <component glyphName="acute" x="349" y="-69" flags="0x1004"/>
      <component glyphName="a" x="0" y="0" flags="0x1204"/>
    </TTGlyph>
    <TTGlyph name="abreve" xMin="99" yMin="-24" xMax="926" yMax="1470">
      <component glyphName="breve" x="121" y="-138" flags="0x1004"/>
      <component glyphName="a" x="0" y="0" flags="0x1204"/>
    </TTGlyph>
    <TTGlyph name="acircumflex" xMin="99" yMin="-24" xMax="926" yMax="1577">
      <component glyphName="circumflex" x="111" y="-92" flags="0x1004"/>
      <component glyphName="a" x="0" y="0" flags="0x1204"/>
    </TTGlyph>
    <TTGlyph name="acute" xMin="126" yMin="1287" xMax="474" yMax="1674">
      <contour>
        <pt x="126" y="1287" on="1"/>
        <pt x="320" y="1674" on="1"/>
        <pt x="474" y="1674" on="1"/>
        <pt x="201" y="1287" on="1"/>
      </contour>
    </TTGlyph>
    <TTGlyph name="adieresis" xMin="99" yMin="-24" xMax="926" yMax="1395">
      <component glyphName="dieresis" x="120" y="-48" flags="0x1004"/>
      <component glyphName="a" x="0" y="0" flags="0x1204"/>
    </TTGlyph>
    <TTGlyph name="ae" xMin="99" yMin="-24" xMax="1556" yMax="1117">
      <contour>
        <pt x="436" y="-24" on="1"/>
        <pt x="372" y="-24" on="0"/>
        <pt x="259" y="7" on="0"/>
        <pt x="158" y="74" on="0"/>
        <pt x="99" y="202" on="0"/>
        <pt x="99" y="289" on="1"/>
        <pt x="99" y="347" on="0"/>
        <pt x="135" y="441" on="0"/>
        <pt x="194" y="505" on="0"/>
        <pt x="285" y="553" on="0"/>
        <pt x="380" y="581" on="0"/>
        <pt x="506" y="599" on="0"/>
        <pt x="616" y="606" on="0"/>
        <pt x="686" y="607" on="1"/>
        <pt x="739" y="607" on="1"/>
        <pt x="739" y="803" on="1"/>
        <pt x="739" y="1009" on="0"/>
        <pt x="550" y="1009" on="1"/>
        <pt x="347" y="1009" on="0"/>
        <pt x="189" y="913" on="1"/>
        <pt x="146" y="1019" on="1"/>
        <pt x="203" y="1056" on="0"/>
        <pt x="428" y="1117" on="0"/>
        <pt x="527" y="1117" on="1"/>
        <pt x="574" y="1117" on="0"/>
        <pt x="673" y="1091" on="0"/>
        <pt x="768" y="1039" on="0"/>
        <pt x="832" y="947" on="0"/>
        <pt x="837" y="889" on="1"/>
        <pt x="873" y="971" on="0"/>
        <pt x="995" y="1076" on="0"/>
        <pt x="1125" y="1117" on="0"/>
        <pt x="1199" y="1117" on="1"/>
        <pt x="1277" y="1117" on="0"/>
        <pt x="1401" y="1063" on="0"/>
        <pt x="1477" y="978" on="0"/>
        <pt x="1527" y="867" on="0"/>
        <pt x="1546" y="761" on="0"/>
        <pt x="1546" y="708" on="1"/>
        <pt x="1546" y="620" on="0"/>
        <pt x="1431" y="531" on="0"/>
        <pt x="1293" y="530" on="1"/>
        <pt x="924" y="513" on="0"/>
        <pt x="869" y="513" on="1"/>
        <pt x="865" y="513" on="1"/>
        <pt x="872" y="309" on="0"/>
        <pt x="1031" y="75" on="0"/>
        <pt x="1191" y="75" on="1"/>
        <pt x="1293" y="75" on="0"/>
        <pt x="1441" y="124" on="0"/>
        <pt x="1535" y="175" on="1"/>
        <pt x="1556" y="75" on="1"/>
        <pt x="1419" y="-24" on="0"/>
        <pt x="1183" y="-24" on="1"/>
        <pt x="996" y="-24" on="0"/>
        <pt x="880" y="95" on="1"/>
        <pt x="777" y="43" on="0"/>
        <pt x="536" y="-24" on="0"/>
      </contour>
      <contour>
        <pt x="446" y="75" on="1"/>
        <pt x="596" y="75" on="0"/>
        <pt x="822" y="165" on="1"/>
        <pt x="777" y="254" on="0"/>
        <pt x="738" y="410" on="0"/>
        <pt x="732" y="515" on="1"/>
        <pt x="601" y="515" on="0"/>
        <pt x="414" y="491" on="0"/>
        <pt x="304" y="453" on="0"/>
        <pt x="242" y="390" on="0"/>
        <pt x="223" y="327" on="0"/>
        <pt x="223" y="282" on="1"/>
        <pt x="223" y="173" on="0"/>
        <pt x="347" y="75" on="0"/>
      </contour>
      <contour>
        <pt x="868" y="607" on="1"/>
        <pt x="1273" y="619" on="0"/>
        <pt x="1293" y="621" on="1"/>
        <pt x="1376" y="627" on="0"/>
        <pt x="1425" y="666" on="0"/>
        <pt x="1425" y="713" on="1"/>
        <pt x="1425" y="852" on="0"/>
        <pt x="1305" y="1011" on="0"/>
        <pt x="1196" y="1011" on="1"/>
        <pt x="1127" y="1011" on="0"/>
        <pt x="1015" y="963" on="0"/>
        <pt x="943" y="885" on="0"/>
        <pt x="893" y="777" on="0"/>
        <pt x="871" y="667" on="0"/>
      </contour>
    </TTGlyph>
    <TTGlyph name="agrave" xMin="99" yMin="-24" xMax="926" yMax="1605">
      <component glyphName="grave" x="16" y="-69" flags="0x1004"/>
      <component glyphName="a" x="0" y="0" flags="0x1204"/>
    </TTGlyph>
    <TTGlyph name="amacron" xMin="99" yMin="-24" xMax="926" yMax="1324">
      <component glyphName="macron" x="-53" y="-52" flags="0x1004"/>
      <component glyphName="a" x="0" y="0" flags="0x1204"/>
    </TTGlyph>
    <TTGlyph name="ampersand" xMin="141" yMin="-22" xMax="1390" yMax="1514">
      <contour>
        <pt x="638" y="-22" on="1"/>
        <pt x="505" y="-22" on="0"/>
        <pt x="308" y="41" on="0"/>
        <pt x="194" y="153" on="0"/>
        <pt x="141" y="294" on="0"/>
        <pt x="141" y="380" on="1"/>
        <pt x="141" y="463" on="0"/>
        <pt x="188" y="602" on="0"/>
        <pt x="282" y="715" on="0"/>
        <pt x="403" y="805" on="0"/>
        <pt x="487" y="849" on="1"/>
        <pt x="450" y="893" on="0"/>
        <pt x="416" y="936" on="0"/>
        <pt x="363" y="1007" on="0"/>
        <pt x="340" y="1054" on="0"/>
        <pt x="312" y="1117" on="0"/>
        <pt x="302" y="1179" on="0"/>
        <pt x="302" y="1213" on="1"/>
        <pt x="302" y="1346" on="0"/>
        <pt x="499" y="1514" on="0"/>
        <pt x="678" y="1514" on="1"/>
        <pt x="830" y="1514" on="0"/>
        <pt x="1027" y="1350" on="0"/>
        <pt x="1027" y="1205" on="1"/>
        <pt x="1027" y="1143" on="0"/>
        <pt x="974" y="1032" on="0"/>
        <pt x="870" y="938" on="0"/>
        <pt x="745" y="861" on="0"/>
        <pt x="659" y="821" on="1"/>
        <pt x="1168" y="288" on="1"/>
        <pt x="1238" y="363" on="0"/>
        <pt x="1284" y="471" on="1"/>
        <pt x="1356" y="414" on="1"/>
        <pt x="1314" y="315" on="0"/>
        <pt x="1235" y="216" on="1"/>
        <pt x="1390" y="62" on="1"/>
        <pt x="1315" y="-6" on="1"/>
        <pt x="1161" y="147" on="1"/>
        <pt x="1055" y="67" on="0"/>
        <pt x="802" y="-22" on="0"/>
      </contour>
      <contour>
        <pt x="626" y="74" on="1"/>
        <pt x="758" y="74" on="0"/>
        <pt x="1014" y="153" on="0"/>
        <pt x="1089" y="219" on="1"/>
        <pt x="564" y="773" on="1"/>
        <pt x="262" y="608" on="0"/>
        <pt x="262" y="376" on="1"/>
        <pt x="262" y="298" on="0"/>
        <pt x="321" y="179" on="0"/>
        <pt x="424" y="109" on="0"/>
        <pt x="552" y="74" on="0"/>
      </contour>
      <contour>
        <pt x="601" y="891" on="1"/>
        <pt x="637" y="909" on="0"/>
        <pt x="676" y="929" on="0"/>
        <pt x="740" y="965" on="0"/>
        <pt x="776" y="989" on="0"/>
        <pt x="827" y="1026" on="0"/>
        <pt x="856" y="1057" on="0"/>
        <pt x="890" y="1099" on="0"/>
        <pt x="907" y="1140" on="0"/>
        <pt x="919" y="1190" on="0"/>
        <pt x="919" y="1217" on="1"/>
        <pt x="919" y="1311" on="0"/>
        <pt x="787" y="1414" on="0"/>
        <pt x="690" y="1414" on="1"/>
        <pt x="543" y="1414" on="0"/>
        <pt x="413" y="1306" on="0"/>
        <pt x="413" y="1214" on="1"/>
        <pt x="413" y="1139" on="0"/>
        <pt x="529" y="956" on="0"/>
      </contour>
    </TTGlyph>
    <TTGlyph name="aogonek" xMin="99" yMin="-433" xMax="926" yMax="1116">
      <component glyphName="ogonek" x="202" y="4" flags="0x1004"/>
      <component glyphName="a" x="0" y="0" flags="0x1004"/>
    </TTGlyph>
    <TTGlyph name="approxequal" xMin="137" yMin="367" xMax="1161" yMax="1103">
      <contour>
        <pt x="140" y="367" on="1"/>
        <pt x="159" y="521" on="0"/>
        <pt x="309" y="686" on="0"/>
        <pt x="429" y="686" on="1"/>
        <pt x="473" y="686" on="0"/>
        <pt x="571" y="652" on="0"/>
        <pt x="632" y="618" on="0"/>
        <pt x="684" y="585" on="1"/>
        <pt x="695" y="578" on="0"/>
        <pt x="760" y="535" on="0"/>
        <pt x="790" y="518" on="0"/>
        <pt x="839" y="492" on="0"/>
        <pt x="877" y="481" on="0"/>
        <pt x="894" y="481" on="1"/>
        <pt x="1021" y="481" on="0"/>
        <pt x="1056" y="684" on="1"/>
        <pt x="1161" y="711" on="1"/>
        <pt x="1141" y="548" on="0"/>
        <pt x="1026" y="394" on="0"/>
        <pt x="897" y="394" on="1"/>
        <pt x="788" y="394" on="0"/>
        <pt x="616" y="510" on="1"/>
        <pt x="498" y="594" on="0"/>
        <pt x="431" y="594" on="1"/>
        <pt x="356" y="594" on="0"/>
        <pt x="269" y="496" on="0"/>
        <pt x="246" y="398" on="1"/>
      </contour>
      <contour>
        <pt x="137" y="758" on="1"/>
        <pt x="155" y="910" on="0"/>
        <pt x="308" y="1076" on="0"/>
        <pt x="428" y="1076" on="1"/>
        <pt x="489" y="1076" on="0"/>
        <pt x="603" y="1023" on="0"/>
        <pt x="687" y="966" on="1"/>
        <pt x="762" y="914" on="0"/>
        <pt x="852" y="871" on="0"/>
        <pt x="892" y="871" on="1"/>
        <pt x="1019" y="871" on="0"/>
        <pt x="1052" y="1073" on="1"/>
        <pt x="1158" y="1103" on="1"/>
        <pt x="1139" y="942" on="0"/>
        <pt x="1020" y="788" on="0"/>
        <pt x="893" y="788" on="1"/>
        <pt x="778" y="788" on="0"/>
        <pt x="613" y="904" on="1"/>
        <pt x="496" y="987" on="0"/>
        <pt x="427" y="987" on="1"/>
        <pt x="352" y="987" on="0"/>
        <pt x="265" y="892" on="0"/>
        <pt x="246" y="796" on="1"/>
      </contour>
    </TTGlyph>
    <TTGlyph name="aring" xMin="99" yMin="-24" xMax="926" yMax="1575">
      <component glyphName="ring" x="200" y="-99" flags="0x1004"/>
      <component glyphName="a" x="0" y="0" flags="0x1204"/>
    </TTGlyph>
    <TTGlyph name="asciicircum" xMin="84" yMin="558" xMax="1071" yMax="1488">
      <contour>
        <pt x="84" y="558" on="1"/>
        <pt x="521" y="1488" on="1"/>
        <pt x="611" y="1488" on="1"/>
        <pt x="1071" y="558" on="1"/>
        <pt x="958" y="558" on="1"/>
        <pt x="565" y="1356" on="1"/>
        <pt x="200" y="558" on="1"/>
      </contour>
    </TTGlyph>
    <TTGlyph name="asciitilde" xMin="116" yMin="524" xMax="1106" yMax="814">
      <contour>
        <pt x="156" y="524" on="1"/>
        <pt x="116" y="603" on="1"/>
        <pt x="151" y="693" on="0"/>
        <pt x="287" y="803" on="0"/>
        <pt x="379" y="803" on="1"/>
        <pt x="436" y="803" on="0"/>
        <pt x="535" y="774" on="0"/>
        <pt x="618" y="735" on="1"/>
        <pt x="637" y="727" on="0"/>
        <pt x="712" y="691" on="0"/>
        <pt x="750" y="675" on="0"/>
        <pt x="804" y="654" on="0"/>
        <pt x="844" y="645" on="0"/>
        <pt x="861" y="645" on="1"/>
        <pt x="920" y="645" on="0"/>
        <pt x="1033" y="748" on="0"/>
        <pt x="1057" y="814" on="1"/>
        <pt x="1106" y="744" on="1"/>
        <pt x="1068" y="638" on="0"/>
        <pt x="952" y="537" on="0"/>
        <pt x="861" y="537" on="1"/>
        <pt x="777" y="537" on="0"/>
        <pt x="640" y="598" on="1"/>
        <pt x="564" y="634" on="0"/>
        <pt x="501" y="663" on="0"/>
        <pt x="410" y="692" on="0"/>
        <pt x="377" y="692" on="1"/>
        <pt x="313" y="692" on="0"/>
        <pt x="193" y="597" on="0"/>
      </contour>
    </TTGlyph>
    <TTGlyph name="asterisk" xMin="99" yMin="573" xMax="1007" yMax="1514">
      <contour>
        <pt x="352" y="573" on="1"/>
        <pt x="218" y="655" on="1"/>
        <pt x="468" y="1005" on="1"/>
        <pt x="99" y="1092" on="1"/>
        <pt x="143" y="1240" on="1"/>
        <pt x="506" y="1077" on="1"/>
        <pt x="468" y="1514" on="1"/>
        <pt x="635" y="1514" on="1"/>
        <pt x="598" y="1077" on="1"/>
        <pt x="962" y="1240" on="1"/>
        <pt x="1007" y="1093" on="1"/>
        <pt x="633" y="1005" on="1"/>
        <pt x="652" y="976" on="0"/>
        <pt x="825" y="749" on="0"/>
        <pt x="888" y="655" on="1"/>
        <pt x="853" y="630" on="0"/>
        <pt x="789" y="598" on="0"/>
        <pt x="756" y="574" on="1"/>
        <pt x="548" y="961" on="1"/>
      </contour>
    </TTGlyph>
    <TTGlyph name="at" xMin="131" yMin="-82" xMax="1735" yMax="1514">
      <contour>
        <pt x="882" y="-82" on="1"/>
        <pt x="656" y="-82" on="0"/>
        <pt x="318" y="97" on="0"/>
        <pt x="131" y="444" on="0"/>
        <pt x="131" y="682" on="1"/>
        <pt x="131" y="857" on="0"/>
        <pt x="256" y="1163" on="0"/>
        <pt x="476" y="1386" on="0"/>
        <pt x="793" y="1514" on="0"/>
        <pt x="978" y="1514" on="1"/>
        <pt x="1194" y="1514" on="0"/>
        <pt x="1536" y="1353" on="0"/>
        <pt x="1735" y="1044" on="0"/>
        <pt x="1735" y="839" on="1"/>
        <pt x="1735" y="747" on="0"/>
        <pt x="1684" y="582" on="0"/>
        <pt x="1596" y="460" on="0"/>
        <pt x="1481" y="371" on="0"/>
        <pt x="1349" y="326" on="0"/>
        <pt x="1281" y="326" on="1"/>
        <pt x="1204" y="326" on="0"/>
        <pt x="1098" y="421" on="0"/>
        <pt x="1084" y="494" on="1"/>
        <pt x="1045" y="423" on="0"/>
        <pt x="892" y="332" on="0"/>
        <pt x="784" y="332" on="1"/>
        <pt x="714" y="332" on="0"/>
        <pt x="615" y="405" on="0"/>
        <pt x="571" y="522" on="0"/>
        <pt x="571" y="598" on="1"/>
        <pt x="571" y="669" on="0"/>
        <pt x="611" y="821" on="0"/>
        <pt x="692" y="963" on="0"/>
        <pt x="803" y="1075" on="0"/>
        <pt x="956" y="1143" on="0"/>
        <pt x="1042" y="1143" on="1"/>
        <pt x="1104" y="1143" on="0"/>
        <pt x="1271" y="1115" on="0"/>
        <pt x="1332" y="1095" on="1"/>
        <pt x="1317" y="1048" on="0"/>
        <pt x="1255" y="866" on="0"/>
        <pt x="1221" y="764" on="0"/>
        <pt x="1192" y="639" on="0"/>
        <pt x="1192" y="599" on="1"/>
        <pt x="1192" y="522" on="0"/>
        <pt x="1244" y="416" on="0"/>
        <pt x="1292" y="416" on="1"/>
        <pt x="1348" y="416" on="0"/>
        <pt x="1462" y="476" on="0"/>
        <pt x="1557" y="583" on="0"/>
        <pt x="1616" y="750" on="0"/>
        <pt x="1616" y="848" on="1"/>
        <pt x="1616" y="1021" on="0"/>
        <pt x="1453" y="1277" on="0"/>
        <pt x="1170" y="1407" on="0"/>
        <pt x="987" y="1407" on="1"/>
        <pt x="867" y="1407" on="0"/>
        <pt x="652" y="1352" on="0"/>
        <pt x="465" y="1234" on="0"/>
        <pt x="329" y="1063" on="0"/>
        <pt x="251" y="818" on="0"/>
        <pt x="251" y="670" on="1"/>
        <pt x="251" y="366" on="0"/>
        <pt x="589" y="17" on="0"/>
        <pt x="885" y="17" on="1"/>
        <pt x="1099" y="17" on="0"/>
        <pt x="1305" y="102" on="1"/>
        <pt x="1331" y="5" on="1"/>
        <pt x="1243" y="-34" on="0"/>
        <pt x="1002" y="-82" on="0"/>
      </contour>
      <contour>
        <pt x="806" y="423" on="1"/>
        <pt x="876" y="423" on="0"/>
        <pt x="975" y="467" on="0"/>
        <pt x="1043" y="574" on="0"/>
        <pt x="1073" y="646" on="0"/>
        <pt x="1099" y="727" on="1"/>
        <pt x="1104" y="741" on="0"/>
        <pt x="1106" y="748" on="1"/>
        <pt x="1148" y="878" on="0"/>
        <pt x="1193" y="1034" on="1"/>
        <pt x="1138" y="1060" on="0"/>
        <pt x="1036" y="1060" on="1"/>
        <pt x="971" y="1060" on="0"/>
        <pt x="857" y="1003" on="0"/>
        <pt x="777" y="909" on="0"/>
        <pt x="719" y="790" on="0"/>
        <pt x="691" y="667" on="0"/>
        <pt x="691" y="610" on="1"/>
        <pt x="691" y="527" on="0"/>
        <pt x="750" y="423" on="0"/>
      </contour>
    </TTGlyph>
    <TTGlyph name="atilde" xMin="99" yMin="-24" xMax="926" yMax="1404">
      <component glyphName="tilde" x="78" y="-118" flags="0x1004"/>
      <component glyphName="a" x="0" y="0" flags="0x1204"/>
    </TTGlyph>
    <TTGlyph name="b" xMin="147" yMin="-24" xMax="1090" yMax="1532">
      <contour>
        <pt x="619" y="-24" on="1"/>
        <pt x="396" y="-24" on="0"/>
        <pt x="264" y="159" on="1"/>
        <pt x="251" y="0" on="1"/>
        <pt x="147" y="0" on="1"/>
        <pt x="147" y="1521" on="1"/>
        <pt x="270" y="1532" on="1"/>
        <pt x="270" y="1163" on="1"/>
        <pt x="270" y="994" on="0"/>
        <pt x="267" y="930" on="1"/>
        <pt x="328" y="1024" on="0"/>
        <pt x="517" y="1116" on="0"/>
        <pt x="619" y="1116" on="1"/>
        <pt x="841" y="1116" on="0"/>
        <pt x="1090" y="799" on="0"/>
        <pt x="1090" y="549" on="1"/>
        <pt x="1090" y="381" on="0"/>
        <pt x="987" y="126" on="0"/>
        <pt x="771" y="-24" on="0"/>
      </contour>
      <contour>
        <pt x="625" y="75" on="1"/>
        <pt x="717" y="75" on="0"/>
        <pt x="852" y="154" on="0"/>
        <pt x="925" y="291" on="0"/>
        <pt x="958" y="450" on="0"/>
        <pt x="958" y="543" on="1"/>
        <pt x="958" y="617" on="0"/>
        <pt x="939" y="748" on="0"/>
        <pt x="890" y="873" on="0"/>
        <pt x="817" y="961" on="0"/>
        <pt x="700" y="1015" on="0"/>
        <pt x="625" y="1015" on="1"/>
        <pt x="452" y="1015" on="0"/>
        <pt x="269" y="766" on="0"/>
        <pt x="270" y="537" on="1"/>
        <pt x="270" y="432" on="0"/>
        <pt x="309" y="267" on="0"/>
        <pt x="392" y="142" on="0"/>
        <pt x="530" y="75" on="0"/>
      </contour>
    </TTGlyph>
    <TTGlyph name="backslash" xMin="62" yMin="-11" xMax="774" yMax="1514">
      <contour>
        <pt x="652" y="-11" on="1"/>
        <pt x="62" y="1514" on="1"/>
        <pt x="184" y="1514" on="1"/>
        <pt x="774" y="-11" on="1"/>
      </contour>
    </TTGlyph>
    <TTGlyph name="bar" xMin="349" yMin="-413" xMax="468" yMax="1606">
      <contour>
        <pt x="349" y="-413" on="1"/>
        <pt x="349" y="1606" on="1"/>
        <pt x="468" y="1606" on="1"/>
        <pt x="468" y="-413" on="1"/>
      </contour>
    </TTGlyph>
    <TTGlyph name="braceleft" xMin="86" yMin="-277" xMax="613" yMax="1557">
      <contour>
        <pt x="613" y="-277" on="1"/>
        <pt x="443" y="-276" on="0"/>
        <pt x="294" y="-86" on="0"/>
        <pt x="294" y="95" on="1"/>
        <pt x="294" y="255" on="1"/>
        <pt x="294" y="317" on="0"/>
        <pt x="287" y="403" on="0"/>
        <pt x="263" y="497" on="0"/>
        <pt x="219" y="553" on="0"/>
        <pt x="141" y="590" on="0"/>
        <pt x="86" y="590" on="1"/>
        <pt x="86" y="689" on="1"/>
        <pt x="121" y="690" on="0"/>
        <pt x="176" y="699" on="0"/>
        <pt x="217" y="716" on="0"/>
        <pt x="249" y="740" on="0"/>
        <pt x="270" y="771" on="0"/>
        <pt x="284" y="809" on="0"/>
        <pt x="290" y="853" on="0"/>
        <pt x="294" y="904" on="0"/>
        <pt x="294" y="960" on="0"/>
        <pt x="294" y="991" on="1"/>
        <pt x="294" y="1013" on="0"/>
        <pt x="294" y="1025" on="1"/>
        <pt x="294" y="1236" on="1"/>
        <pt x="294" y="1384" on="0"/>
        <pt x="462" y="1557" on="0"/>
        <pt x="613" y="1557" on="1"/>
        <pt x="613" y="1461" on="1"/>
        <pt x="503" y="1460" on="0"/>
        <pt x="420" y="1341" on="0"/>
        <pt x="420" y="1197" on="1"/>
        <pt x="420" y="934" on="1"/>
        <pt x="420" y="769" on="0"/>
        <pt x="247" y="637" on="1"/>
        <pt x="294" y="618" on="0"/>
        <pt x="364" y="550" on="0"/>
        <pt x="402" y="467" on="0"/>
        <pt x="420" y="385" on="0"/>
        <pt x="420" y="342" on="1"/>
        <pt x="420" y="82" on="1"/>
        <pt x="420" y="-65" on="0"/>
        <pt x="503" y="-180" on="0"/>
        <pt x="613" y="-181" on="1"/>
      </contour>
    </TTGlyph>
    <TTGlyph name="braceright" xMin="99" yMin="-277" xMax="628" yMax="1557">
      <contour>
        <pt x="99" y="-277" on="1"/>
        <pt x="99" y="-181" on="1"/>
        <pt x="208" y="-180" on="0"/>
        <pt x="293" y="-64" on="0"/>
        <pt x="293" y="82" on="1"/>
        <pt x="293" y="342" on="1"/>
        <pt x="293" y="431" on="0"/>
        <pt x="360" y="551" on="0"/>
        <pt x="464" y="646" on="1"/>
        <pt x="418" y="660" on="0"/>
        <pt x="348" y="725" on="0"/>
        <pt x="310" y="807" on="0"/>
        <pt x="293" y="892" on="0"/>
        <pt x="293" y="934" on="1"/>
        <pt x="293" y="1197" on="1"/>
        <pt x="293" y="1340" on="0"/>
        <pt x="208" y="1460" on="0"/>
        <pt x="99" y="1461" on="1"/>
        <pt x="99" y="1557" on="1"/>
        <pt x="418" y="1557" on="0"/>
        <pt x="418" y="1184" on="1"/>
        <pt x="418" y="1025" on="1"/>
        <pt x="418" y="972" on="0"/>
        <pt x="422" y="901" on="0"/>
        <pt x="435" y="816" on="0"/>
        <pt x="463" y="762" on="0"/>
        <pt x="508" y="714" on="0"/>
        <pt x="580" y="690" on="0"/>
        <pt x="628" y="689" on="1"/>
        <pt x="628" y="590" on="1"/>
        <pt x="572" y="590" on="0"/>
        <pt x="493" y="553" on="0"/>
        <pt x="449" y="496" on="0"/>
        <pt x="425" y="402" on="0"/>
        <pt x="418" y="317" on="0"/>
        <pt x="418" y="255" on="1"/>
        <pt x="418" y="42" on="1"/>
        <pt x="418" y="-104" on="0"/>
        <pt x="253" y="-276" on="0"/>
      </contour>
    </TTGlyph>
    <TTGlyph name="bracketleft" xMin="147" yMin="-264" xMax="595" yMax="1514">
      <contour>
        <pt x="147" y="-264" on="1"/>
        <pt x="147" y="1514" on="1"/>
        <pt x="595" y="1514" on="1"/>
        <pt x="595" y="1414" on="1"/>
        <pt x="283" y="1414" on="1"/>
        <pt x="283" y="-164" on="1"/>
        <pt x="595" y="-164" on="1"/>
        <pt x="595" y="-264" on="1"/>
      </contour>
    </TTGlyph>
    <TTGlyph name="bracketright" xMin="93" yMin="-264" xMax="541" yMax="1514">
      <contour>
        <pt x="93" y="-264" on="1"/>
        <pt x="93" y="-164" on="1"/>
        <pt x="405" y="-164" on="1"/>
        <pt x="405" y="1414" on="1"/>
        <pt x="93" y="1414" on="1"/>
        <pt x="93" y="1514" on="1"/>
        <pt x="541" y="1514" on="1"/>
        <pt x="541" y="-264" on="1"/>
      </contour>
    </TTGlyph>
    <TTGlyph name="breve" xMin="159" yMin="1356" xMax="624" yMax="1608">
      <contour>
        <pt x="389" y="1356" on="1"/>
        <pt x="292" y="1356" on="0"/>
        <pt x="159" y="1489" on="0"/>
        <pt x="159" y="1608" on="1"/>
        <pt x="251" y="1608" on="1"/>
        <pt x="251" y="1521" on="0"/>
        <pt x="322" y="1434" on="0"/>
        <pt x="389" y="1434" on="1"/>
        <pt x="455" y="1434" on="0"/>
        <pt x="530" y="1522" on="0"/>
        <pt x="530" y="1608" on="1"/>
        <pt x="624" y="1608" on="1"/>
        <pt x="624" y="1490" on="0"/>
        <pt x="488" y="1356" on="0"/>
      </contour>
    </TTGlyph>
    <TTGlyph name="brokenbar" xMin="329" yMin="-200" xMax="449" yMax="1550">
      <contour>
        <pt x="329" y="-200" on="1"/>
        <pt x="329" y="502" on="1"/>
        <pt x="449" y="502" on="1"/>
        <pt x="449" y="-200" on="1"/>
      </contour>
      <contour>
        <pt x="329" y="850" on="1"/>
        <pt x="329" y="1549" on="1"/>
        <pt x="449" y="1549" on="1"/>
        <pt x="449" y="850" on="1"/>
      </contour>
    </TTGlyph>
    <TTGlyph name="bullet" xMin="144" yMin="535" xMax="664" yMax="1039">
      <contour>
        <pt x="404" y="535" on="1"/>
        <pt x="341" y="535" on="0"/>
        <pt x="239" y="577" on="0"/>
        <pt x="177" y="647" on="0"/>
        <pt x="145" y="734" on="0"/>
        <pt x="145" y="782" on="1"/>
        <pt x="145" y="831" on="0"/>
        <pt x="179" y="921" on="0"/>
        <pt x="242" y="995" on="0"/>
        <pt x="342" y="1039" on="0"/>
        <pt x="404" y="1039" on="1"/>
        <pt x="467" y="1039" on="0"/>
        <pt x="568" y="996" on="0"/>
        <pt x="630" y="924" on="0"/>
        <pt x="663" y="836" on="0"/>
        <pt x="663" y="739" on="0"/>
        <pt x="630" y="650" on="0"/>
        <pt x="568" y="578" on="0"/>
        <pt x="466" y="535" on="0"/>
      </contour>
    </TTGlyph>
    <TTGlyph name="c" xMin="97" yMin="-24" xMax="882" yMax="1116">
      <contour>
        <pt x="604" y="-24" on="1"/>
        <pt x="445" y="-24" on="0"/>
        <pt x="211" y="132" on="0"/>
        <pt x="97" y="383" on="0"/>
        <pt x="97" y="537" on="1"/>
        <pt x="97" y="655" on="0"/>
        <pt x="165" y="863" on="0"/>
        <pt x="290" y="1023" on="0"/>
        <pt x="487" y="1116" on="0"/>
        <pt x="608" y="1116" on="1"/>
        <pt x="687" y="1116" on="0"/>
        <pt x="844" y="1074" on="0"/>
        <pt x="882" y="1045" on="1"/>
        <pt x="843" y="952" on="1"/>
        <pt x="740" y="1010" on="0"/>
        <pt x="599" y="1010" on="1"/>
        <pt x="428" y="1010" on="0"/>
        <pt x="228" y="751" on="0"/>
        <pt x="228" y="537" on="1"/>
        <pt x="228" y="332" on="0"/>
        <pt x="427" y="79" on="0"/>
        <pt x="599" y="79" on="1"/>
        <pt x="719" y="79" on="0"/>
        <pt x="857" y="139" on="1"/>
        <pt x="876" y="50" on="1"/>
        <pt x="829" y="15" on="0"/>
        <pt x="679" y="-24" on="0"/>
      </contour>
    </TTGlyph>
    <TTGlyph name="cacute" xMin="97" yMin="-24" xMax="882" yMax="1605">
      <component glyphName="acute" x="326" y="-69" flags="0x1004"/>
      <component glyphName="c" x="0" y="0" flags="0x1204"/>
    </TTGlyph>
    <TTGlyph name="caron" xMin="136" yMin="1310" xMax="667" yMax="1669">
      <contour>
        <pt x="307" y="1310" on="1"/>
        <pt x="136" y="1669" on="1"/>
        <pt x="227" y="1669" on="1"/>
        <pt x="402" y="1374" on="1"/>
        <pt x="578" y="1669" on="1"/>
        <pt x="667" y="1669" on="1"/>
        <pt x="499" y="1310" on="1"/>
      </contour>
    </TTGlyph>
    <TTGlyph name="ccaron" xMin="97" yMin="-24" xMax="882" yMax="1577">
      <component glyphName="caron" x="88" y="-92" flags="0x1004"/>
      <component glyphName="c" x="0" y="0" flags="0x1204"/>
    </TTGlyph>
    <TTGlyph name="ccedilla" xMin="97" yMin="-431" xMax="882" yMax="1116">
      <component glyphName="cedilla" x="215" y="-21" flags="0x1004"/>
      <component glyphName="c" x="0" y="0" flags="0x1204"/>
    </TTGlyph>
    <TTGlyph name="ccircumflex" xMin="97" yMin="-24" xMax="882" yMax="1577">
      <component glyphName="circumflex" x="88" y="-92" flags="0x1004"/>
      <component glyphName="c" x="0" y="0" flags="0x1204"/>
    </TTGlyph>
    <TTGlyph name="cdotaccent" xMin="97" yMin="-24" xMax="882" yMax="1403">
      <component glyphName="dotaccent" x="307" y="-113" flags="0x1004"/>
      <component glyphName="c" x="0" y="0" flags="0x1204"/>
    </TTGlyph>
    <TTGlyph name="cedilla" xMin="138" yMin="-410" xMax="304" yMax="11">
      <contour>
        <pt x="138" y="-410" on="1"/>
        <pt x="245" y="11" on="1"/>
        <pt x="304" y="11" on="1"/>
        <pt x="267" y="-410" on="1"/>
      </contour>
    </TTGlyph>
    <TTGlyph name="cent" xMin="97" yMin="-162" xMax="911" yMax="1282">
      <contour>
        <pt x="567" y="-162" on="1"/>
        <pt x="567" y="-28" on="1"/>
        <pt x="476" y="-19" on="0"/>
        <pt x="319" y="56" on="0"/>
        <pt x="211" y="169" on="0"/>
        <pt x="134" y="311" on="0"/>
        <pt x="97" y="462" on="0"/>
        <pt x="97" y="537" on="1"/>
        <pt x="98" y="613" on="0"/>
        <pt x="135" y="769" on="0"/>
        <pt x="213" y="917" on="0"/>
        <pt x="322" y="1036" on="0"/>
        <pt x="477" y="1117" on="0"/>
        <pt x="567" y="1126" on="1"/>
        <pt x="567" y="1281" on="1"/>
        <pt x="644" y="1281" on="1"/>
        <pt x="644" y="1127" on="1"/>
        <pt x="729" y="1123" on="0"/>
        <pt x="872" y="1073" on="0"/>
        <pt x="911" y="1033" on="1"/>
        <pt x="870" y="950" on="1"/>
        <pt x="774" y="1014" on="0"/>
        <pt x="644" y="1023" on="1"/>
        <pt x="644" y="75" on="1"/>
        <pt x="765" y="87" on="0"/>
        <pt x="870" y="156" on="1"/>
        <pt x="908" y="73" on="1"/>
        <pt x="865" y="30" on="0"/>
        <pt x="720" y="-22" on="0"/>
        <pt x="644" y="-28" on="1"/>
        <pt x="644" y="-162" on="1"/>
      </contour>
      <contour>
        <pt x="567" y="77" on="1"/>
        <pt x="567" y="1022" on="1"/>
        <pt x="472" y="1008" on="0"/>
        <pt x="318" y="867" on="0"/>
        <pt x="233" y="654" on="0"/>
        <pt x="233" y="535" on="1"/>
        <pt x="233" y="422" on="0"/>
        <pt x="314" y="225" on="0"/>
        <pt x="468" y="92" on="0"/>
      </contour>
    </TTGlyph>
    <TTGlyph name="circumflex" xMin="136" yMin="1310" xMax="667" yMax="1669">
      <contour>
        <pt x="136" y="1310" on="1"/>
        <pt x="304" y="1669" on="1"/>
        <pt x="496" y="1669" on="1"/>
        <pt x="667" y="1310" on="1"/>
        <pt x="576" y="1310" on="1"/>
        <pt x="401" y="1605" on="1"/>
        <pt x="225" y="1310" on="1"/>
      </contour>
    </TTGlyph>
    <TTGlyph name="colon" xMin="167" yMin="-37" xMax="346" yMax="1136">
      <contour>
        <pt x="167" y="-37" on="1"/>
        <pt x="167" y="174" on="1"/>
        <pt x="346" y="174" on="1"/>
        <pt x="346" y="-37" on="1"/>
      </contour>
      <contour>
        <pt x="167" y="927" on="1"/>
        <pt x="167" y="1136" on="1"/>
        <pt x="346" y="1136" on="1"/>
        <pt x="346" y="927" on="1"/>
      </contour>
    </TTGlyph>
    <TTGlyph name="comma" xMin="130" yMin="-275" xMax="339" yMax="235">
      <contour>
        <pt x="130" y="-275" on="1"/>
        <pt x="210" y="235" on="1"/>
        <pt x="339" y="235" on="1"/>
        <pt x="339" y="194" on="1"/>
        <pt x="298" y="16" on="0"/>
        <pt x="202" y="-275" on="1"/>
      </contour>
    </TTGlyph>
    <TTGlyph name="copyright" xMin="129" yMin="-116" xMax="1726" yMax="1514">
      <contour>
        <pt x="930" y="174" on="1"/>
        <pt x="793" y="174" on="0"/>
        <pt x="572" y="313" on="0"/>
        <pt x="450" y="556" on="0"/>
        <pt x="450" y="707" on="1"/>
        <pt x="450" y="861" on="0"/>
        <pt x="571" y="1101" on="0"/>
        <pt x="797" y="1237" on="0"/>
        <pt x="946" y="1237" on="1"/>
        <pt x="1120" y="1237" on="0"/>
        <pt x="1254" y="1142" on="1"/>
        <pt x="1230" y="1032" on="1"/>
        <pt x="1186" y="1073" on="0"/>
        <pt x="1020" y="1130" on="0"/>
        <pt x="940" y="1130" on="1"/>
        <pt x="869" y="1130" on="0"/>
        <pt x="749" y="1085" on="0"/>
        <pt x="666" y="1007" on="0"/>
        <pt x="608" y="900" on="0"/>
        <pt x="582" y="780" on="0"/>
        <pt x="582" y="714" on="1"/>
        <pt x="582" y="621" on="0"/>
        <pt x="628" y="465" on="0"/>
        <pt x="718" y="346" on="0"/>
        <pt x="865" y="280" on="0"/>
        <pt x="960" y="280" on="1"/>
        <pt x="1028" y="280" on="0"/>
        <pt x="1183" y="330" on="0"/>
        <pt x="1222" y="359" on="1"/>
        <pt x="1258" y="257" on="1"/>
        <pt x="1205" y="225" on="0"/>
        <pt x="1019" y="174" on="0"/>
      </contour>
      <contour>
        <pt x="927" y="-24" on="1"/>
        <pt x="1032" y="-24" on="0"/>
        <pt x="1230" y="33" on="0"/>
        <pt x="1406" y="151" on="0"/>
        <pt x="1538" y="318" on="0"/>
        <pt x="1614" y="555" on="0"/>
        <pt x="1614" y="694" on="1"/>
        <pt x="1614" y="834" on="0"/>
        <pt x="1535" y="1075" on="0"/>
        <pt x="1400" y="1245" on="0"/>
        <pt x="1222" y="1366" on="0"/>
        <pt x="1020" y="1424" on="0"/>
        <pt x="915" y="1424" on="1"/>
        <pt x="812" y="1424" on="0"/>
        <pt x="618" y="1368" on="0"/>
        <pt x="445" y="1250" on="0"/>
        <pt x="316" y="1083" on="0"/>
        <pt x="241" y="843" on="0"/>
        <pt x="241" y="701" on="1"/>
        <pt x="241" y="583" on="0"/>
        <pt x="295" y="376" on="0"/>
        <pt x="391" y="219" on="0"/>
        <pt x="520" y="95" on="0"/>
        <pt x="674" y="17" on="0"/>
        <pt x="840" y="-24" on="0"/>
      </contour>
      <contour>
        <pt x="924" y="-116" on="1"/>
        <pt x="803" y="-116" on="0"/>
        <pt x="574" y="-52" on="0"/>
        <pt x="370" y="81" on="0"/>
        <pt x="218" y="270" on="0"/>
        <pt x="129" y="540" on="0"/>
        <pt x="129" y="698" on="1"/>
        <pt x="129" y="858" on="0"/>
        <pt x="217" y="1128" on="0"/>
        <pt x="368" y="1317" on="0"/>
        <pt x="570" y="1451" on="0"/>
        <pt x="797" y="1514" on="0"/>
        <pt x="918" y="1514" on="1"/>
        <pt x="1040" y="1514" on="0"/>
        <pt x="1273" y="1449" on="0"/>
        <pt x="1480" y="1314" on="0"/>
        <pt x="1635" y="1124" on="0"/>
        <pt x="1726" y="855" on="0"/>
        <pt x="1726" y="698" on="1"/>
        <pt x="1726" y="540" on="0"/>
        <pt x="1636" y="272" on="0"/>
        <pt x="1482" y="82" on="0"/>
        <pt x="1277" y="-52" on="0"/>
        <pt x="1046" y="-116" on="0"/>
      </contour>
    </TTGlyph>
    <TTGlyph name="currency" xMin="57" yMin="234" xMax="1088" yMax="1230">
      <contour>
        <pt x="1027" y="234" on="1"/>
        <pt x="840" y="412" on="1"/>
        <pt x="723" y="314" on="0"/>
        <pt x="574" y="314" on="1"/>
        <pt x="419" y="314" on="0"/>
        <pt x="306" y="412" on="1"/>
        <pt x="121" y="235" on="1"/>
        <pt x="58" y="294" on="1"/>
        <pt x="243" y="474" on="1"/>
        <pt x="157" y="590" on="0"/>
        <pt x="157" y="732" on="1"/>
        <pt x="157" y="872" on="0"/>
        <pt x="243" y="989" on="1"/>
        <pt x="57" y="1171" on="1"/>
        <pt x="121" y="1230" on="1"/>
        <pt x="306" y="1053" on="1"/>
        <pt x="419" y="1151" on="0"/>
        <pt x="574" y="1151" on="1"/>
        <pt x="725" y="1151" on="0"/>
        <pt x="840" y="1053" on="1"/>
        <pt x="1027" y="1230" on="1"/>
        <pt x="1088" y="1168" on="1"/>
        <pt x="904" y="989" on="1"/>
        <pt x="990" y="865" on="0"/>
        <pt x="990" y="732" on="1"/>
        <pt x="990" y="585" on="0"/>
        <pt x="905" y="474" on="1"/>
        <pt x="1087" y="295" on="1"/>
      </contour>
      <contour>
        <pt x="574" y="402" on="1"/>
        <pt x="707" y="402" on="0"/>
        <pt x="896" y="596" on="0"/>
        <pt x="896" y="868" on="0"/>
        <pt x="707" y="1063" on="0"/>
        <pt x="574" y="1063" on="1"/>
        <pt x="440" y="1063" on="0"/>
        <pt x="252" y="869" on="0"/>
        <pt x="252" y="595" on="0"/>
        <pt x="440" y="402" on="0"/>
      </contour>
    </TTGlyph>
    <TTGlyph name="d" xMin="97" yMin="-23" xMax="1036" yMax="1532">
      <contour>
        <pt x="561" y="-23" on="1"/>
        <pt x="342" y="-23" on="0"/>
        <pt x="97" y="281" on="0"/>
        <pt x="97" y="549" on="1"/>
        <pt x="97" y="801" on="0"/>
        <pt x="350" y="1116" on="0"/>
        <pt x="557" y="1116" on="1"/>
        <pt x="659" y="1116" on="0"/>
        <pt x="863" y="1028" on="0"/>
        <pt x="916" y="935" on="1"/>
        <pt x="916" y="968" on="1"/>
        <pt x="916" y="1521" on="1"/>
        <pt x="1036" y="1532" on="1"/>
        <pt x="1036" y="0" on="1"/>
        <pt x="933" y="0" on="1"/>
        <pt x="915" y="165" on="1"/>
        <pt x="858" y="72" on="0"/>
        <pt x="663" y="-23" on="0"/>
      </contour>
      <contour>
        <pt x="558" y="75" on="1"/>
        <pt x="651" y="75" on="0"/>
        <pt x="791" y="143" on="0"/>
        <pt x="875" y="267" on="0"/>
        <pt x="916" y="428" on="0"/>
        <pt x="916" y="526" on="1"/>
        <pt x="916" y="1015" on="0"/>
        <pt x="556" y="1015" on="1"/>
        <pt x="471" y="1015" on="0"/>
        <pt x="341" y="934" on="0"/>
        <pt x="266" y="797" on="0"/>
        <pt x="230" y="636" on="0"/>
        <pt x="230" y="547" on="1"/>
        <pt x="230" y="470" on="0"/>
        <pt x="252" y="335" on="0"/>
        <pt x="302" y="213" on="0"/>
        <pt x="376" y="126" on="0"/>
        <pt x="488" y="75" on="0"/>
      </contour>
    </TTGlyph>
    <TTGlyph name="dagger" xMin="73" yMin="125" xMax="756" yMax="1611">
      <contour>
        <pt x="362" y="125" on="1"/>
        <pt x="362" y="1098" on="1"/>
        <pt x="73" y="1098" on="1"/>
        <pt x="73" y="1155" on="1"/>
        <pt x="362" y="1155" on="1"/>
        <pt x="362" y="1611" on="1"/>
        <pt x="461" y="1611" on="1"/>
        <pt x="461" y="1155" on="1"/>
        <pt x="756" y="1155" on="1"/>
        <pt x="756" y="1098" on="1"/>
        <pt x="466" y="1098" on="1"/>
        <pt x="466" y="125" on="1"/>
      </contour>
    </TTGlyph>
    <TTGlyph name="daggerdbl" xMin="98" yMin="218" xMax="837" yMax="1615">
      <contour>
        <pt x="418" y="218" on="1"/>
        <pt x="418" y="534" on="1"/>
        <pt x="98" y="534" on="1"/>
        <pt x="98" y="654" on="1"/>
        <pt x="418" y="654" on="1"/>
        <pt x="418" y="1125" on="1"/>
        <pt x="104" y="1125" on="1"/>
        <pt x="104" y="1249" on="1"/>
        <pt x="418" y="1249" on="1"/>
        <pt x="418" y="1615" on="1"/>
        <pt x="516" y="1615" on="1"/>
        <pt x="516" y="1249" on="1"/>
        <pt x="837" y="1249" on="1"/>
        <pt x="837" y="1125" on="1"/>
        <pt x="516" y="1125" on="1"/>
        <pt x="516" y="654" on="1"/>
        <pt x="828" y="654" on="1"/>
        <pt x="828" y="534" on="1"/>
        <pt x="516" y="534" on="1"/>
        <pt x="516" y="218" on="1"/>
      </contour>
    </TTGlyph>
    <TTGlyph name="dcaron" xMin="97" yMin="-23" xMax="1463" yMax="1532">
      <contour>
        <pt x="1189" y="1082" on="1"/>
        <pt x="1327" y="1532" on="1"/>
        <pt x="1463" y="1532" on="1"/>
        <pt x="1293" y="1082" on="1"/>
      </contour>
      <contour>
        <pt x="561" y="-23" on="1"/>
        <pt x="342" y="-23" on="0"/>
        <pt x="97" y="281" on="0"/>
        <pt x="97" y="549" on="1"/>
        <pt x="97" y="801" on="0"/>
        <pt x="350" y="1116" on="0"/>
        <pt x="557" y="1116" on="1"/>
        <pt x="659" y="1116" on="0"/>
        <pt x="863" y="1028" on="0"/>
        <pt x="916" y="935" on="1"/>
        <pt x="916" y="968" on="1"/>
        <pt x="916" y="1521" on="1"/>
        <pt x="1036" y="1532" on="1"/>
        <pt x="1036" y="0" on="1"/>
        <pt x="933" y="0" on="1"/>
        <pt x="915" y="165" on="1"/>
        <pt x="858" y="72" on="0"/>
        <pt x="663" y="-23" on="0"/>
      </contour>
      <contour>
        <pt x="558" y="75" on="1"/>
        <pt x="651" y="75" on="0"/>
        <pt x="791" y="143" on="0"/>
        <pt x="875" y="267" on="0"/>
        <pt x="916" y="428" on="0"/>
        <pt x="916" y="526" on="1"/>
        <pt x="916" y="1015" on="0"/>
        <pt x="556" y="1015" on="1"/>
        <pt x="471" y="1015" on="0"/>
        <pt x="341" y="934" on="0"/>
        <pt x="266" y="797" on="0"/>
        <pt x="230" y="636" on="0"/>
        <pt x="230" y="547" on="1"/>
        <pt x="230" y="470" on="0"/>
        <pt x="252" y="335" on="0"/>
        <pt x="302" y="213" on="0"/>
        <pt x="376" y="126" on="0"/>
        <pt x="488" y="75" on="0"/>
      </contour>
    </TTGlyph>
    <TTGlyph name="dcroat" xMin="97" yMin="-23" xMax="1138" yMax="1532">
      <contour>
        <pt x="659" y="1254" on="1"/>
        <pt x="659" y="1335" on="1"/>
        <pt x="1138" y="1335" on="1"/>
        <pt x="1138" y="1254" on="1"/>
      </contour>
      <contour>
        <pt x="561" y="-23" on="1"/>
        <pt x="342" y="-23" on="0"/>
        <pt x="97" y="281" on="0"/>
        <pt x="97" y="549" on="1"/>
        <pt x="97" y="801" on="0"/>
        <pt x="350" y="1116" on="0"/>
        <pt x="557" y="1116" on="1"/>
        <pt x="659" y="1116" on="0"/>
        <pt x="863" y="1028" on="0"/>
        <pt x="916" y="935" on="1"/>
        <pt x="916" y="968" on="1"/>
        <pt x="916" y="1521" on="1"/>
        <pt x="1036" y="1532" on="1"/>
        <pt x="1036" y="0" on="1"/>
        <pt x="933" y="0" on="1"/>
        <pt x="915" y="165" on="1"/>
        <pt x="858" y="72" on="0"/>
        <pt x="663" y="-23" on="0"/>
      </contour>
      <contour>
        <pt x="558" y="75" on="1"/>
        <pt x="651" y="75" on="0"/>
        <pt x="791" y="143" on="0"/>
        <pt x="875" y="267" on="0"/>
        <pt x="916" y="428" on="0"/>
        <pt x="916" y="526" on="1"/>
        <pt x="916" y="1015" on="0"/>
        <pt x="556" y="1015" on="1"/>
        <pt x="471" y="1015" on="0"/>
        <pt x="341" y="934" on="0"/>
        <pt x="266" y="797" on="0"/>
        <pt x="230" y="636" on="0"/>
        <pt x="230" y="547" on="1"/>
        <pt x="230" y="470" on="0"/>
        <pt x="252" y="335" on="0"/>
        <pt x="302" y="213" on="0"/>
        <pt x="376" y="126" on="0"/>
        <pt x="488" y="75" on="0"/>
      </contour>
    </TTGlyph>
    <TTGlyph name="degree" xMin="112" yMin="932" xMax="732" yMax="1534">
      <contour>
        <pt x="370" y="1011" on="0"/>
        <pt x="475" y="1011" on="0"/>
        <pt x="566" y="1058" on="0"/>
        <pt x="627" y="1161" on="0"/>
        <pt x="627" y="1231" on="1"/>
        <pt x="627" y="1302" on="0"/>
        <pt x="566" y="1406" on="0"/>
        <pt x="475" y="1454" on="0"/>
        <pt x="422" y="1454" on="1"/>
        <pt x="369" y="1454" on="0"/>
        <pt x="279" y="1406" on="0"/>
        <pt x="219" y="1302" on="0"/>
        <pt x="219" y="1231" on="1"/>
        <pt x="219" y="1161" on="0"/>
        <pt x="279" y="1058" on="0"/>
      </contour>
      <contour>
        <pt x="418" y="932" on="1"/>
        <pt x="359" y="932" on="0"/>
        <pt x="251" y="970" on="0"/>
        <pt x="164" y="1042" on="0"/>
        <pt x="112" y="1158" on="0"/>
        <pt x="112" y="1304" on="0"/>
        <pt x="165" y="1422" on="0"/>
        <pt x="254" y="1494" on="0"/>
        <pt x="363" y="1533" on="0"/>
        <pt x="482" y="1533" on="0"/>
        <pt x="591" y="1495" on="0"/>
        <pt x="679" y="1422" on="0"/>
        <pt x="732" y="1304" on="0"/>
        <pt x="732" y="1231" on="1"/>
        <pt x="732" y="1160" on="0"/>
        <pt x="678" y="1043" on="0"/>
        <pt x="589" y="971" on="0"/>
        <pt x="478" y="932" on="0"/>
      </contour>
    </TTGlyph>
    <TTGlyph name="dieresis" xMin="136" yMin="1266" xMax="649" yMax="1443">
      <contour>
        <pt x="136" y="1266" on="1"/>
        <pt x="136" y="1443" on="1"/>
        <pt x="272" y="1443" on="1"/>
        <pt x="272" y="1266" on="1"/>
      </contour>
      <contour>
        <pt x="512" y="1266" on="1"/>
        <pt x="512" y="1443" on="1"/>
        <pt x="649" y="1443" on="1"/>
        <pt x="649" y="1266" on="1"/>
      </contour>
    </TTGlyph>
    <TTGlyph name="divide" xMin="60" yMin="82" xMax="1017" yMax="1116">
      <contour>
        <pt x="446" y="82" on="1"/>
        <pt x="446" y="284" on="1"/>
        <pt x="637" y="284" on="1"/>
        <pt x="637" y="82" on="1"/>
      </contour>
      <contour>
        <pt x="60" y="554" on="1"/>
        <pt x="60" y="675" on="1"/>
        <pt x="1017" y="675" on="1"/>
        <pt x="1017" y="554" on="1"/>
      </contour>
      <contour>
        <pt x="446" y="913" on="1"/>
        <pt x="446" y="1115" on="1"/>
        <pt x="637" y="1115" on="1"/>
        <pt x="637" y="913" on="1"/>
      </contour>
    </TTGlyph>
    <TTGlyph name="dollar" xMin="97" yMin="-213" xMax="1159" yMax="1741">
      <contour>
        <pt x="679" y="-23" on="1"/>
        <pt x="679" y="-213" on="1"/>
        <pt x="592" y="-213" on="1"/>
        <pt x="592" y="-22" on="1"/>
        <pt x="426" y="-14" on="0"/>
        <pt x="171" y="62" on="0"/>
        <pt x="99" y="105" on="1"/>
        <pt x="147" y="196" on="1"/>
        <pt x="332" y="96" on="0"/>
        <pt x="592" y="84" on="1"/>
        <pt x="592" y="737" on="1"/>
        <pt x="499" y="756" on="1"/>
        <pt x="298" y="796" on="0"/>
        <pt x="97" y="968" on="0"/>
        <pt x="97" y="1127" on="1"/>
        <pt x="97" y="1223" on="0"/>
        <pt x="167" y="1368" on="0"/>
        <pt x="300" y="1459" on="0"/>
        <pt x="478" y="1508" on="0"/>
        <pt x="592" y="1513" on="1"/>
        <pt x="592" y="1741" on="1"/>
        <pt x="679" y="1741" on="1"/>
        <pt x="679" y="1514" on="1"/>
        <pt x="799" y="1510" on="0"/>
        <pt x="1025" y="1450" on="0"/>
        <pt x="1098" y="1413" on="1"/>
        <pt x="1065" y="1315" on="1"/>
        <pt x="1010" y="1345" on="0"/>
        <pt x="796" y="1403" on="0"/>
        <pt x="679" y="1407" on="1"/>
        <pt x="679" y="838" on="1"/>
        <pt x="761" y="821" on="1"/>
        <pt x="861" y="800" on="0"/>
        <pt x="1000" y="742" on="0"/>
        <pt x="1107" y="650" on="0"/>
        <pt x="1159" y="513" on="0"/>
        <pt x="1159" y="419" on="1"/>
        <pt x="1159" y="282" on="0"/>
        <pt x="1036" y="83" on="0"/>
        <pt x="822" y="-19" on="0"/>
      </contour>
      <contour>
        <pt x="592" y="856" on="1"/>
        <pt x="592" y="1406" on="1"/>
        <pt x="410" y="1396" on="0"/>
        <pt x="228" y="1255" on="0"/>
        <pt x="228" y="1114" on="1"/>
        <pt x="228" y="1019" on="0"/>
        <pt x="362" y="904" on="0"/>
        <pt x="493" y="876" on="1"/>
      </contour>
      <contour>
        <pt x="679" y="720" on="1"/>
        <pt x="679" y="82" on="1"/>
        <pt x="846" y="85" on="0"/>
        <pt x="1025" y="262" on="0"/>
        <pt x="1025" y="422" on="1"/>
        <pt x="1025" y="482" on="0"/>
        <pt x="1003" y="564" on="0"/>
        <pt x="943" y="639" on="0"/>
        <pt x="828" y="690" on="0"/>
        <pt x="739" y="708" on="1"/>
      </contour>
    </TTGlyph>
    <TTGlyph name="dotaccent" xMin="106" yMin="1331" xMax="259" yMax="1516">
      <contour>
        <pt x="106" y="1331" on="1"/>
        <pt x="106" y="1516" on="1"/>
        <pt x="259" y="1516" on="1"/>
        <pt x="259" y="1331" on="1"/>
      </contour>
    </TTGlyph>
    <TTGlyph name="dotlessi" xMin="138" yMin="0" xMax="263" yMax="1096">
      <contour>
        <pt x="138" y="0" on="1"/>
        <pt x="138" y="1096" on="1"/>
        <pt x="263" y="1096" on="1"/>
        <pt x="263" y="0" on="1"/>
      </contour>
    </TTGlyph>
    <TTGlyph name="e" xMin="97" yMin="-24" xMax="992" yMax="1116">
      <contour>
        <pt x="591" y="-24" on="1"/>
        <pt x="364" y="-24" on="0"/>
        <pt x="97" y="280" on="0"/>
        <pt x="97" y="540" on="1"/>
        <pt x="97" y="791" on="0"/>
        <pt x="358" y="1111" on="0"/>
        <pt x="565" y="1116" on="1"/>
        <pt x="758" y="1116" on="0"/>
        <pt x="992" y="840" on="0"/>
        <pt x="992" y="608" on="1"/>
        <pt x="992" y="599" on="0"/>
        <pt x="991" y="544" on="0"/>
        <pt x="991" y="533" on="1"/>
        <pt x="228" y="533" on="1"/>
        <pt x="230" y="322" on="0"/>
        <pt x="430" y="75" on="0"/>
        <pt x="594" y="75" on="1"/>
        <pt x="701" y="75" on="0"/>
        <pt x="859" y="125" on="0"/>
        <pt x="945" y="171" on="1"/>
        <pt x="966" y="78" on="1"/>
        <pt x="800" y="-24" on="0"/>
      </contour>
      <contour>
        <pt x="233" y="633" on="1"/>
        <pt x="857" y="633" on="1"/>
        <pt x="857" y="816" on="0"/>
        <pt x="699" y="1011" on="0"/>
        <pt x="561" y="1011" on="1"/>
        <pt x="421" y="1011" on="0"/>
        <pt x="249" y="803" on="0"/>
      </contour>
    </TTGlyph>
    <TTGlyph name="eacute" xMin="97" yMin="-24" xMax="992" yMax="1605">
      <component glyphName="acute" x="381" y="-69" flags="0x1004"/>
      <component glyphName="e" x="0" y="0" flags="0x1204"/>
    </TTGlyph>
    <TTGlyph name="ebreve" xMin="97" yMin="-24" xMax="992" yMax="1470">
      <component glyphName="breve" x="153" y="-138" flags="0x1004"/>
      <component glyphName="e" x="0" y="0" flags="0x1204"/>
    </TTGlyph>
    <TTGlyph name="ecaron" xMin="97" yMin="-24" xMax="992" yMax="1577">
      <component glyphName="caron" x="143" y="-92" flags="0x1004"/>
      <component glyphName="e" x="0" y="0" flags="0x1204"/>
    </TTGlyph>
    <TTGlyph name="ecircumflex" xMin="97" yMin="-24" xMax="992" yMax="1577">
      <component glyphName="circumflex" x="143" y="-92" flags="0x1004"/>
      <component glyphName="e" x="0" y="0" flags="0x1204"/>
    </TTGlyph>
    <TTGlyph name="edieresis" xMin="97" yMin="-24" xMax="992" yMax="1395">
      <component glyphName="dieresis" x="152" y="-48" flags="0x1004"/>
      <component glyphName="e" x="0" y="0" flags="0x1204"/>
    </TTGlyph>
    <TTGlyph name="edotaccent" xMin="97" yMin="-24" xMax="992" yMax="1403">
      <component glyphName="dotaccent" x="362" y="-113" flags="0x1004"/>
      <component glyphName="e" x="0" y="0" flags="0x1204"/>
    </TTGlyph>
    <TTGlyph name="egrave" xMin="97" yMin="-24" xMax="992" yMax="1605">
      <component glyphName="grave" x="48" y="-69" flags="0x1004"/>
      <component glyphName="e" x="0" y="0" flags="0x1204"/>
    </TTGlyph>
    <TTGlyph name="eight" xMin="121" yMin="-23" xMax="1076" yMax="1514">
      <contour>
        <pt x="601" y="-23" on="1"/>
        <pt x="468" y="-23" on="0"/>
        <pt x="253" y="68" on="0"/>
        <pt x="121" y="256" on="0"/>
        <pt x="121" y="384" on="1"/>
        <pt x="121" y="531" on="0"/>
        <pt x="303" y="758" on="0"/>
        <pt x="466" y="803" on="1"/>
        <pt x="316" y="844" on="0"/>
        <pt x="153" y="1017" on="0"/>
        <pt x="153" y="1144" on="1"/>
        <pt x="153" y="1314" on="0"/>
        <pt x="401" y="1514" on="0"/>
        <pt x="602" y="1514" on="1"/>
        <pt x="800" y="1514" on="0"/>
        <pt x="1043" y="1315" on="0"/>
        <pt x="1043" y="1144" on="1"/>
        <pt x="1043" y="1017" on="0"/>
        <pt x="887" y="844" on="0"/>
        <pt x="747" y="803" on="1"/>
        <pt x="900" y="758" on="0"/>
        <pt x="1076" y="531" on="0"/>
        <pt x="1076" y="384" on="1"/>
        <pt x="1076" y="288" on="0"/>
        <pt x="1001" y="131" on="0"/>
        <pt x="872" y="31" on="0"/>
        <pt x="700" y="-23" on="0"/>
      </contour>
      <contour>
        <pt x="601" y="82" on="1"/>
        <pt x="747" y="82" on="0"/>
        <pt x="941" y="244" on="0"/>
        <pt x="941" y="378" on="1"/>
        <pt x="941" y="522" on="0"/>
        <pt x="757" y="711" on="0"/>
        <pt x="601" y="750" on="1"/>
        <pt x="445" y="710" on="0"/>
        <pt x="256" y="521" on="0"/>
        <pt x="256" y="379" on="1"/>
        <pt x="256" y="245" on="0"/>
        <pt x="454" y="82" on="0"/>
      </contour>
      <contour>
        <pt x="601" y="856" on="1"/>
        <pt x="912" y="917" on="0"/>
        <pt x="912" y="1146" on="1"/>
        <pt x="912" y="1271" on="0"/>
        <pt x="730" y="1407" on="0"/>
        <pt x="601" y="1407" on="1"/>
        <pt x="471" y="1407" on="0"/>
        <pt x="286" y="1270" on="0"/>
        <pt x="286" y="1146" on="1"/>
        <pt x="286" y="919" on="0"/>
      </contour>
    </TTGlyph>
    <TTGlyph name="emacron" xMin="97" yMin="-24" xMax="992" yMax="1324">
      <component glyphName="macron" x="-21" y="-52" flags="0x1004"/>
      <component glyphName="e" x="0" y="0" flags="0x1204"/>
    </TTGlyph>
    <TTGlyph name="eogonek" xMin="97" yMin="-433" xMax="992" yMax="1116">
      <component glyphName="ogonek" x="175" y="4" flags="0x1004"/>
      <component glyphName="e" x="0" y="0" flags="0x1204"/>
    </TTGlyph>
    <TTGlyph name="equal" xMin="149" yMin="390" xMax="1091" yMax="941">
      <contour>
        <pt x="150" y="390" on="1"/>
        <pt x="150" y="500" on="1"/>
        <pt x="1090" y="500" on="1"/>
        <pt x="1090" y="390" on="1"/>
      </contour>
      <contour>
        <pt x="149" y="829" on="1"/>
        <pt x="149" y="941" on="1"/>
        <pt x="1091" y="941" on="1"/>
        <pt x="1091" y="829" on="1"/>
      </contour>
    </TTGlyph>
    <TTGlyph name="eth" xMin="101" yMin="-28" xMax="1097" yMax="1546">
      <contour>
        <pt x="593" y="-28" on="1"/>
        <pt x="498" y="-28" on="0"/>
        <pt x="335" y="29" on="0"/>
        <pt x="221" y="128" on="0"/>
        <pt x="140" y="260" on="0"/>
        <pt x="101" y="408" on="0"/>
        <pt x="101" y="487" on="1"/>
        <pt x="101" y="703" on="0"/>
        <pt x="368" y="970" on="0"/>
        <pt x="586" y="970" on="1"/>
        <pt x="636" y="970" on="0"/>
        <pt x="727" y="950" on="0"/>
        <pt x="788" y="925" on="0"/>
        <pt x="861" y="876" on="0"/>
        <pt x="895" y="846" on="0"/>
        <pt x="929" y="816" on="1"/>
        <pt x="883" y="900" on="0"/>
        <pt x="660" y="1153" on="0"/>
        <pt x="554" y="1252" on="1"/>
        <pt x="272" y="1133" on="1"/>
        <pt x="246" y="1229" on="1"/>
        <pt x="483" y="1324" on="1"/>
        <pt x="232" y="1546" on="1"/>
        <pt x="390" y="1546" on="1"/>
        <pt x="579" y="1374" on="1"/>
        <pt x="868" y="1500" on="1"/>
        <pt x="897" y="1408" on="1"/>
        <pt x="649" y="1299" on="1"/>
        <pt x="674" y="1273" on="0"/>
        <pt x="756" y="1188" on="0"/>
        <pt x="806" y="1136" on="0"/>
        <pt x="880" y="1056" on="0"/>
        <pt x="926" y="998" on="0"/>
        <pt x="985" y="915" on="0"/>
        <pt x="1021" y="844" on="0"/>
        <pt x="1061" y="752" on="0"/>
        <pt x="1082" y="663" on="0"/>
        <pt x="1096" y="556" on="0"/>
        <pt x="1096" y="499" on="1"/>
        <pt x="1096" y="496" on="0"/>
        <pt x="1096" y="492" on="1"/>
        <pt x="1096" y="386" on="0"/>
        <pt x="1034" y="201" on="0"/>
        <pt x="914" y="56" on="0"/>
        <pt x="718" y="-28" on="0"/>
      </contour>
      <contour>
        <pt x="598" y="72" on="1"/>
        <pt x="773" y="72" on="0"/>
        <pt x="973" y="301" on="0"/>
        <pt x="973" y="472" on="1"/>
        <pt x="973" y="543" on="0"/>
        <pt x="923" y="682" on="0"/>
        <pt x="830" y="799" on="0"/>
        <pt x="682" y="872" on="0"/>
        <pt x="592" y="872" on="1"/>
        <pt x="482" y="872" on="0"/>
        <pt x="315" y="762" on="0"/>
        <pt x="232" y="590" on="0"/>
        <pt x="232" y="490" on="1"/>
        <pt x="232" y="412" on="0"/>
        <pt x="277" y="266" on="0"/>
        <pt x="364" y="145" on="0"/>
        <pt x="508" y="72" on="0"/>
      </contour>
    </TTGlyph>
    <TTGlyph name="exclam" xMin="202" yMin="-8" xMax="449" yMax="1514">
      <contour>
        <pt x="292" y="419" on="1"/>
        <pt x="233" y="1425" on="1"/>
        <pt x="233" y="1514" on="1"/>
        <pt x="410" y="1514" on="1"/>
        <pt x="410" y="1425" on="1"/>
        <pt x="358" y="419" on="1"/>
      </contour>
      <contour>
        <pt x="325" y="-8" on="1"/>
        <pt x="264" y="-8" on="0"/>
        <pt x="202" y="63" on="0"/>
        <pt x="202" y="111" on="1"/>
        <pt x="202" y="158" on="0"/>
        <pt x="264" y="228" on="0"/>
        <pt x="325" y="228" on="1"/>
        <pt x="387" y="228" on="0"/>
        <pt x="449" y="158" on="0"/>
        <pt x="449" y="111" on="1"/>
        <pt x="449" y="63" on="0"/>
        <pt x="387" y="-8" on="0"/>
      </contour>
    </TTGlyph>
    <TTGlyph name="exclamdown" xMin="202" yMin="-403" xMax="449" yMax="1127">
      <contour>
        <pt x="235" y="-402" on="1"/>
        <pt x="235" y="-312" on="1"/>
        <pt x="285" y="694" on="1"/>
        <pt x="351" y="694" on="1"/>
        <pt x="412" y="-312" on="1"/>
        <pt x="412" y="-402" on="1"/>
      </contour>
      <contour>
        <pt x="325" y="892" on="1"/>
        <pt x="263" y="892" on="0"/>
        <pt x="202" y="962" on="0"/>
        <pt x="202" y="1056" on="0"/>
        <pt x="263" y="1127" on="0"/>
        <pt x="325" y="1127" on="1"/>
        <pt x="386" y="1127" on="0"/>
        <pt x="449" y="1056" on="0"/>
        <pt x="449" y="962" on="0"/>
        <pt x="386" y="892" on="0"/>
      </contour>
    </TTGlyph>
    <TTGlyph name="f" xMin="36" yMin="0" xMax="676" yMax="1550">
      <contour>
        <pt x="216" y="0" on="1"/>
        <pt x="216" y="1005" on="1"/>
        <pt x="36" y="1005" on="1"/>
        <pt x="44" y="1082" on="1"/>
        <pt x="216" y="1096" on="1"/>
        <pt x="216" y="1137" on="1"/>
        <pt x="216" y="1353" on="0"/>
        <pt x="367" y="1549" on="0"/>
        <pt x="523" y="1549" on="1"/>
        <pt x="568" y="1549" on="0"/>
        <pt x="676" y="1534" on="1"/>
        <pt x="667" y="1452" on="1"/>
        <pt x="571" y="1463" on="0"/>
        <pt x="537" y="1463" on="1"/>
        <pt x="423" y="1463" on="0"/>
        <pt x="340" y="1316" on="0"/>
        <pt x="340" y="1131" on="1"/>
        <pt x="340" y="1096" on="1"/>
        <pt x="607" y="1096" on="1"/>
        <pt x="607" y="1005" on="1"/>
        <pt x="340" y="1005" on="1"/>
        <pt x="340" y="0" on="1"/>
      </contour>
    </TTGlyph>
    <TTGlyph name="five" xMin="129" yMin="-23" xMax="1067" yMax="1488">
      <contour>
        <pt x="563" y="-23" on="1"/>
        <pt x="296" y="-23" on="0"/>
        <pt x="129" y="111" on="1"/>
        <pt x="174" y="207" on="1"/>
        <pt x="330" y="82" on="0"/>
        <pt x="569" y="82" on="1"/>
        <pt x="732" y="82" on="0"/>
        <pt x="928" y="301" on="0"/>
        <pt x="928" y="478" on="1"/>
        <pt x="928" y="626" on="0"/>
        <pt x="759" y="823" on="0"/>
        <pt x="634" y="823" on="1"/>
        <pt x="543" y="823" on="0"/>
        <pt x="416" y="773" on="0"/>
        <pt x="335" y="711" on="1"/>
        <pt x="210" y="720" on="1"/>
        <pt x="244" y="1488" on="1"/>
        <pt x="1005" y="1488" on="1"/>
        <pt x="992" y="1377" on="1"/>
        <pt x="353" y="1377" on="1"/>
        <pt x="323" y="832" on="1"/>
        <pt x="450" y="928" on="0"/>
        <pt x="610" y="931" on="1"/>
        <pt x="747" y="933" on="0"/>
        <pt x="959" y="808" on="0"/>
        <pt x="1067" y="604" on="0"/>
        <pt x="1067" y="483" on="1"/>
        <pt x="1067" y="253" on="0"/>
        <pt x="794" y="-23" on="0"/>
      </contour>
    </TTGlyph>
    <TTGlyph name="florin" xMin="11" yMin="-359" xMax="865" yMax="1588">
      <contour>
        <pt x="101" y="-359" on="1"/>
        <pt x="52" y="-359" on="0"/>
        <pt x="11" y="-335" on="1"/>
        <pt x="34" y="-247" on="1"/>
        <pt x="63" y="-260" on="0"/>
        <pt x="96" y="-260" on="1"/>
        <pt x="202" y="-260" on="0"/>
        <pt x="250" y="-11" on="1"/>
        <pt x="253" y="5" on="0"/>
        <pt x="333" y="488" on="0"/>
        <pt x="410" y="955" on="0"/>
        <pt x="410" y="955" on="1"/>
        <pt x="242" y="955" on="1"/>
        <pt x="251" y="1046" on="1"/>
        <pt x="432" y="1046" on="1"/>
        <pt x="460" y="1231" on="1"/>
        <pt x="472" y="1310" on="0"/>
        <pt x="506" y="1422" on="0"/>
        <pt x="570" y="1531" on="0"/>
        <pt x="677" y="1588" on="0"/>
        <pt x="752" y="1588" on="1"/>
        <pt x="801" y="1588" on="0"/>
        <pt x="865" y="1568" on="1"/>
        <pt x="858" y="1471" on="1"/>
        <pt x="807" y="1491" on="0"/>
        <pt x="764" y="1491" on="1"/>
        <pt x="693" y="1491" on="0"/>
        <pt x="607" y="1379" on="0"/>
        <pt x="593" y="1287" on="1"/>
        <pt x="556" y="1046" on="1"/>
        <pt x="759" y="1046" on="1"/>
        <pt x="749" y="956" on="1"/>
        <pt x="538" y="956" on="1"/>
        <pt x="393" y="84" on="1"/>
        <pt x="383" y="24" on="0"/>
        <pt x="368" y="-55" on="0"/>
        <pt x="346" y="-149" on="0"/>
        <pt x="323" y="-209" on="0"/>
        <pt x="291" y="-274" on="0"/>
        <pt x="253" y="-312" on="0"/>
        <pt x="202" y="-345" on="0"/>
        <pt x="139" y="-359" on="0"/>
      </contour>
    </TTGlyph>
    <TTGlyph name="four" xMin="116" yMin="0" xMax="1108" yMax="1521">
      <contour>
        <pt x="798" y="0" on="1"/>
        <pt x="798" y="402" on="1"/>
        <pt x="116" y="402" on="1"/>
        <pt x="116" y="538" on="1"/>
        <pt x="802" y="1521" on="1"/>
        <pt x="922" y="1521" on="1"/>
        <pt x="922" y="512" on="1"/>
        <pt x="1108" y="512" on="1"/>
        <pt x="1093" y="402" on="1"/>
        <pt x="922" y="402" on="1"/>
        <pt x="922" y="0" on="1"/>
      </contour>
      <contour>
        <pt x="253" y="512" on="1"/>
        <pt x="798" y="512" on="1"/>
        <pt x="798" y="1314" on="1"/>
      </contour>
    </TTGlyph>
    <TTGlyph name="fraction" xMin="69" yMin="0" xMax="1033" yMax="1597">
      <contour>
        <pt x="69" y="0" on="1"/>
        <pt x="934" y="1597" on="1"/>
        <pt x="1033" y="1597" on="1"/>
        <pt x="169" y="0" on="1"/>
      </contour>
    </TTGlyph>
    <TTGlyph name="g" xMin="91" yMin="-509" xMax="1034" yMax="1116">
      <contour>
        <pt x="316" y="-509" on="1"/>
        <pt x="301" y="-398" on="1"/>
        <pt x="533" y="-398" on="1"/>
        <pt x="610" y="-398" on="0"/>
        <pt x="728" y="-371" on="0"/>
        <pt x="809" y="-328" on="0"/>
        <pt x="866" y="-251" on="0"/>
        <pt x="898" y="-175" on="0"/>
        <pt x="915" y="-54" on="0"/>
        <pt x="919" y="47" on="0"/>
        <pt x="919" y="124" on="1"/>
        <pt x="919" y="113" on="0"/>
        <pt x="917" y="129" on="1"/>
        <pt x="912" y="198" on="0"/>
        <pt x="912" y="198" on="1"/>
        <pt x="849" y="103" on="0"/>
        <pt x="677" y="0" on="0"/>
        <pt x="553" y="0" on="1"/>
        <pt x="455" y="0" on="0"/>
        <pt x="294" y="70" on="0"/>
        <pt x="191" y="182" on="0"/>
        <pt x="121" y="326" on="0"/>
        <pt x="91" y="469" on="0"/>
        <pt x="91" y="539" on="1"/>
        <pt x="91" y="627" on="0"/>
        <pt x="120" y="786" on="0"/>
        <pt x="192" y="938" on="0"/>
        <pt x="300" y="1049" on="0"/>
        <pt x="470" y="1116" on="0"/>
        <pt x="577" y="1116" on="1"/>
        <pt x="682" y="1116" on="0"/>
        <pt x="843" y="1033" on="0"/>
        <pt x="912" y="942" on="1"/>
        <pt x="924" y="1096" on="1"/>
        <pt x="1034" y="1096" on="1"/>
        <pt x="1034" y="80" on="1"/>
        <pt x="1034" y="14" on="0"/>
        <pt x="1031" y="-67" on="0"/>
        <pt x="1010" y="-206" on="0"/>
        <pt x="973" y="-295" on="0"/>
        <pt x="897" y="-403" on="0"/>
        <pt x="790" y="-465" on="0"/>
        <pt x="623" y="-509" on="0"/>
        <pt x="517" y="-509" on="1"/>
      </contour>
      <contour>
        <pt x="569" y="101" on="1"/>
        <pt x="642" y="101" on="0"/>
        <pt x="760" y="148" on="0"/>
        <pt x="837" y="225" on="0"/>
        <pt x="890" y="329" on="0"/>
        <pt x="912" y="440" on="0"/>
        <pt x="912" y="499" on="1"/>
        <pt x="912" y="613" on="1"/>
        <pt x="912" y="691" on="0"/>
        <pt x="874" y="829" on="0"/>
        <pt x="795" y="946" on="0"/>
        <pt x="657" y="1014" on="0"/>
        <pt x="566" y="1014" on="1"/>
        <pt x="492" y="1014" on="0"/>
        <pt x="373" y="957" on="0"/>
        <pt x="297" y="863" on="0"/>
        <pt x="245" y="737" on="0"/>
        <pt x="224" y="606" on="0"/>
        <pt x="224" y="537" on="1"/>
        <pt x="224" y="476" on="0"/>
        <pt x="243" y="361" on="0"/>
        <pt x="292" y="243" on="0"/>
        <pt x="368" y="156" on="0"/>
        <pt x="491" y="101" on="0"/>
      </contour>
    </TTGlyph>
    <TTGlyph name="gbreve" xMin="91" yMin="-509" xMax="1034" yMax="1470">
      <component glyphName="breve" x="171" y="-138" flags="0x1004"/>
      <component glyphName="g" x="0" y="0" flags="0x1204"/>
    </TTGlyph>
    <TTGlyph name="gcircumflex" xMin="91" yMin="-509" xMax="1034" yMax="1577">
      <component glyphName="circumflex" x="161" y="-92" flags="0x1004"/>
      <component glyphName="g" x="0" y="0" flags="0x1204"/>
    </TTGlyph>
    <TTGlyph name="gcommaaccent" xMin="91" yMin="-509" xMax="1034" yMax="1762">
      <contour>
        <pt x="508" y="1275" on="1"/>
        <pt x="673" y="1762" on="1"/>
        <pt x="771" y="1762" on="1"/>
        <pt x="661" y="1275" on="1"/>
      </contour>
      <contour>
        <pt x="316" y="-509" on="1"/>
        <pt x="301" y="-398" on="1"/>
        <pt x="533" y="-398" on="1"/>
        <pt x="610" y="-398" on="0"/>
        <pt x="728" y="-371" on="0"/>
        <pt x="809" y="-328" on="0"/>
        <pt x="866" y="-251" on="0"/>
        <pt x="898" y="-175" on="0"/>
        <pt x="915" y="-54" on="0"/>
        <pt x="919" y="47" on="0"/>
        <pt x="919" y="124" on="1"/>
        <pt x="919" y="113" on="0"/>
        <pt x="917" y="129" on="1"/>
        <pt x="912" y="198" on="0"/>
        <pt x="912" y="198" on="1"/>
        <pt x="849" y="103" on="0"/>
        <pt x="677" y="0" on="0"/>
        <pt x="553" y="0" on="1"/>
        <pt x="455" y="0" on="0"/>
        <pt x="294" y="70" on="0"/>
        <pt x="191" y="182" on="0"/>
        <pt x="121" y="326" on="0"/>
        <pt x="91" y="469" on="0"/>
        <pt x="91" y="539" on="1"/>
        <pt x="91" y="627" on="0"/>
        <pt x="120" y="786" on="0"/>
        <pt x="192" y="938" on="0"/>
        <pt x="300" y="1049" on="0"/>
        <pt x="470" y="1116" on="0"/>
        <pt x="577" y="1116" on="1"/>
        <pt x="682" y="1116" on="0"/>
        <pt x="843" y="1033" on="0"/>
        <pt x="912" y="942" on="1"/>
        <pt x="924" y="1096" on="1"/>
        <pt x="1034" y="1096" on="1"/>
        <pt x="1034" y="80" on="1"/>
        <pt x="1034" y="14" on="0"/>
        <pt x="1031" y="-67" on="0"/>
        <pt x="1010" y="-206" on="0"/>
        <pt x="973" y="-295" on="0"/>
        <pt x="897" y="-403" on="0"/>
        <pt x="790" y="-465" on="0"/>
        <pt x="623" y="-509" on="0"/>
        <pt x="517" y="-509" on="1"/>
      </contour>
      <contour>
        <pt x="569" y="101" on="1"/>
        <pt x="642" y="101" on="0"/>
        <pt x="760" y="148" on="0"/>
        <pt x="837" y="225" on="0"/>
        <pt x="890" y="329" on="0"/>
        <pt x="912" y="440" on="0"/>
        <pt x="912" y="499" on="1"/>
        <pt x="912" y="613" on="1"/>
        <pt x="912" y="691" on="0"/>
        <pt x="874" y="829" on="0"/>
        <pt x="795" y="946" on="0"/>
        <pt x="657" y="1014" on="0"/>
        <pt x="566" y="1014" on="1"/>
        <pt x="492" y="1014" on="0"/>
        <pt x="373" y="957" on="0"/>
        <pt x="297" y="863" on="0"/>
        <pt x="245" y="737" on="0"/>
        <pt x="224" y="606" on="0"/>
        <pt x="224" y="537" on="1"/>
        <pt x="224" y="476" on="0"/>
        <pt x="243" y="361" on="0"/>
        <pt x="292" y="243" on="0"/>
        <pt x="368" y="156" on="0"/>
        <pt x="491" y="101" on="0"/>
      </contour>
    </TTGlyph>
    <TTGlyph name="gdotaccent" xMin="91" yMin="-509" xMax="1034" yMax="1403">
      <component glyphName="dotaccent" x="380" y="-113" flags="0x1004"/>
      <component glyphName="g" x="0" y="0" flags="0x1204"/>
    </TTGlyph>
    <TTGlyph name="germandbls" xMin="123" yMin="0" xMax="1150" yMax="1548">
      <contour>
        <pt x="123" y="0" on="1"/>
        <pt x="123" y="1060" on="1"/>
        <pt x="123" y="1293" on="0"/>
        <pt x="337" y="1548" on="0"/>
        <pt x="561" y="1548" on="1"/>
        <pt x="748" y="1548" on="0"/>
        <pt x="956" y="1362" on="0"/>
        <pt x="956" y="1205" on="1"/>
        <pt x="956" y="1157" on="0"/>
        <pt x="931" y="1079" on="0"/>
        <pt x="897" y="1027" on="0"/>
        <pt x="830" y="972" on="0"/>
        <pt x="777" y="940" on="0"/>
        <pt x="680" y="883" on="0"/>
        <pt x="650" y="864" on="1"/>
        <pt x="691" y="830" on="0"/>
        <pt x="815" y="750" on="0"/>
        <pt x="916" y="689" on="0"/>
        <pt x="1026" y="606" on="0"/>
        <pt x="1101" y="526" on="0"/>
        <pt x="1150" y="414" on="0"/>
        <pt x="1150" y="351" on="1"/>
        <pt x="1150" y="0" on="0"/>
        <pt x="783" y="0" on="1"/>
        <pt x="416" y="0" on="1"/>
        <pt x="428" y="108" on="1"/>
        <pt x="807" y="108" on="1"/>
        <pt x="909" y="108" on="0"/>
        <pt x="1026" y="243" on="0"/>
        <pt x="1026" y="347" on="1"/>
        <pt x="1026" y="396" on="0"/>
        <pt x="964" y="496" on="0"/>
        <pt x="852" y="588" on="0"/>
        <pt x="753" y="656" on="0"/>
        <pt x="619" y="738" on="0"/>
        <pt x="595" y="755" on="1"/>
        <pt x="586" y="761" on="0"/>
        <pt x="557" y="782" on="0"/>
        <pt x="544" y="791" on="0"/>
        <pt x="526" y="808" on="0"/>
        <pt x="518" y="820" on="0"/>
        <pt x="512" y="836" on="0"/>
        <pt x="512" y="846" on="1"/>
        <pt x="512" y="905" on="0"/>
        <pt x="576" y="945" on="1"/>
        <pt x="601" y="961" on="0"/>
        <pt x="686" y="1010" on="0"/>
        <pt x="729" y="1036" on="0"/>
        <pt x="787" y="1081" on="0"/>
        <pt x="815" y="1122" on="0"/>
        <pt x="836" y="1182" on="0"/>
        <pt x="836" y="1218" on="1"/>
        <pt x="836" y="1323" on="0"/>
        <pt x="698" y="1449" on="0"/>
        <pt x="567" y="1449" on="1"/>
        <pt x="481" y="1449" on="0"/>
        <pt x="356" y="1392" on="0"/>
        <pt x="284" y="1289" on="0"/>
        <pt x="251" y="1161" on="0"/>
        <pt x="251" y="1082" on="1"/>
        <pt x="251" y="0" on="1"/>
      </contour>
    </TTGlyph>
    <TTGlyph name="glyph00379" xMin="20" yMin="-502" xMax="919" yMax="1536">
      <contour>
        <pt x="534" y="-502" on="1"/>
        <pt x="512" y="-351" on="1"/>
        <pt x="564" y="-351" on="1"/>
        <pt x="603" y="-351" on="0"/>
        <pt x="660" y="-342" on="0"/>
        <pt x="701" y="-328" on="0"/>
        <pt x="727" y="-296" on="0"/>
        <pt x="742" y="-267" on="0"/>
        <pt x="749" y="-209" on="0"/>
        <pt x="751" y="-163" on="0"/>
        <pt x="751" y="-121" on="1"/>
        <pt x="751" y="980" on="1"/>
        <pt x="348" y="980" on="1"/>
        <pt x="348" y="0" on="1"/>
        <pt x="180" y="0" on="1"/>
        <pt x="180" y="980" on="1"/>
        <pt x="20" y="980" on="1"/>
        <pt x="20" y="1098" on="1"/>
        <pt x="180" y="1098" on="1"/>
        <pt x="180" y="1206" on="0"/>
        <pt x="203" y="1353" on="0"/>
        <pt x="251" y="1455" on="0"/>
        <pt x="338" y="1512" on="0"/>
        <pt x="453" y="1536" on="0"/>
        <pt x="538" y="1536" on="1"/>
        <pt x="611" y="1536" on="1"/>
        <pt x="631" y="1408" on="1"/>
        <pt x="537" y="1408" on="1"/>
        <pt x="506" y="1408" on="0"/>
        <pt x="458" y="1401" on="0"/>
        <pt x="420" y="1391" on="0"/>
        <pt x="393" y="1367" on="0"/>
        <pt x="373" y="1345" on="0"/>
        <pt x="360" y="1301" on="0"/>
        <pt x="353" y="1264" on="0"/>
        <pt x="349" y="1197" on="0"/>
        <pt x="348" y="1144" on="0"/>
        <pt x="348" y="1098" on="1"/>
        <pt x="919" y="1098" on="1"/>
        <pt x="919" y="-139" on="1"/>
        <pt x="919" y="-245" on="0"/>
        <pt x="892" y="-375" on="0"/>
        <pt x="817" y="-466" on="0"/>
        <pt x="689" y="-502" on="0"/>
        <pt x="586" y="-502" on="1"/>
      </contour>
      <contour>
        <pt x="751" y="1298" on="1"/>
        <pt x="751" y="1496" on="1"/>
        <pt x="919" y="1496" on="1"/>
        <pt x="919" y="1298" on="1"/>
      </contour>
    </TTGlyph>
    <TTGlyph name="glyph00381" xMin="8" yMin="0" xMax="1074" yMax="1488">
      <component glyphName="T" x="0" y="0" flags="0x1004"/>
    </TTGlyph>
    <TTGlyph name="glyph00382" xMin="164" yMin="-648" xMax="404" yMax="-145">
      <contour>
        <pt x="164" y="-648" on="1"/>
        <pt x="241" y="-648" on="1"/>
        <pt x="404" y="-145" on="1"/>
        <pt x="263" y="-145" on="1"/>
      </contour>
    </TTGlyph>
    <TTGlyph name="glyph00383" xMin="150" yMin="561" xMax="318" yMax="759">
      <contour>
        <pt x="150" y="561" on="1"/>
        <pt x="318" y="561" on="1"/>
        <pt x="318" y="759" on="1"/>
        <pt x="150" y="759" on="1"/>
      </contour>
    </TTGlyph>
    <TTGlyph name="glyph00384" xMin="35" yMin="-23" xMax="643" yMax="1351">
      <component glyphName="t" x="0" y="0" flags="0x1004"/>
    </TTGlyph>
    <TTGlyph name="grave" xMin="184" yMin="1287" xMax="533" yMax="1674">
      <contour>
        <pt x="460" y="1287" on="1"/>
        <pt x="184" y="1674" on="1"/>
        <pt x="342" y="1674" on="1"/>
        <pt x="533" y="1287" on="1"/>
      </contour>
    </TTGlyph>
    <TTGlyph name="greater" xMin="113" yMin="122" xMax="1070" yMax="1165">
      <contour>
        <pt x="113" y="122" on="1"/>
        <pt x="113" y="250" on="1"/>
        <pt x="919" y="622" on="1"/>
        <pt x="116" y="1042" on="1"/>
        <pt x="116" y="1165" on="1"/>
        <pt x="1070" y="656" on="1"/>
        <pt x="1070" y="577" on="1"/>
      </contour>
    </TTGlyph>
    <TTGlyph name="greaterequal" xMin="109" yMin="12" xMax="1073" yMax="1341">
      <contour>
        <pt x="144" y="240" on="1"/>
        <pt x="144" y="365" on="1"/>
        <pt x="935" y="774" on="1"/>
        <pt x="149" y="1217" on="1"/>
        <pt x="149" y="1341" on="1"/>
        <pt x="1051" y="809" on="1"/>
        <pt x="1051" y="741" on="1"/>
      </contour>
      <contour>
        <pt x="109" y="12" on="1"/>
        <pt x="109" y="130" on="1"/>
        <pt x="1073" y="131" on="1"/>
        <pt x="1073" y="12" on="1"/>
      </contour>
    </TTGlyph>
    <TTGlyph name="guillemotleft" xMin="107" yMin="157" xMax="849" yMax="959">
      <contour>
        <pt x="391" y="157" on="1"/>
        <pt x="141" y="503" on="1"/>
        <pt x="107" y="553" on="1"/>
        <pt x="394" y="959" on="1"/>
        <pt x="508" y="935" on="1"/>
        <pt x="237" y="561" on="1"/>
        <pt x="503" y="182" on="1"/>
      </contour>
      <contour>
        <pt x="752" y="157" on="1"/>
        <pt x="460" y="573" on="1"/>
        <pt x="754" y="959" on="1"/>
        <pt x="849" y="935" on="1"/>
        <pt x="597" y="561" on="1"/>
        <pt x="846" y="182" on="1"/>
      </contour>
    </TTGlyph>
    <TTGlyph name="guillemotright" xMin="97" yMin="157" xMax="844" yMax="959">
      <contour>
        <pt x="192" y="157" on="1"/>
        <pt x="97" y="182" on="1"/>
        <pt x="349" y="562" on="1"/>
        <pt x="99" y="935" on="1"/>
        <pt x="192" y="959" on="1"/>
        <pt x="486" y="547" on="1"/>
      </contour>
      <contour>
        <pt x="564" y="157" on="1"/>
        <pt x="455" y="182" on="1"/>
        <pt x="721" y="562" on="1"/>
        <pt x="460" y="935" on="1"/>
        <pt x="567" y="959" on="1"/>
        <pt x="844" y="547" on="1"/>
      </contour>
    </TTGlyph>
    <TTGlyph name="guilsinglleft" xMin="150" yMin="187" xMax="488" yMax="993">
      <contour>
        <pt x="372" y="187" on="1"/>
        <pt x="150" y="593" on="1"/>
        <pt x="377" y="993" on="1"/>
        <pt x="488" y="993" on="1"/>
        <pt x="270" y="593" on="1"/>
        <pt x="483" y="187" on="1"/>
      </contour>
    </TTGlyph>
    <TTGlyph name="guilsinglright" xMin="155" yMin="187" xMax="493" yMax="993">
      <contour>
        <pt x="155" y="187" on="1"/>
        <pt x="373" y="595" on="1"/>
        <pt x="161" y="993" on="1"/>
        <pt x="272" y="993" on="1"/>
        <pt x="493" y="595" on="1"/>
        <pt x="267" y="187" on="1"/>
      </contour>
    </TTGlyph>
    <TTGlyph name="h" xMin="147" yMin="0" xMax="1009" yMax="1532">
      <contour>
        <pt x="147" y="0" on="1"/>
        <pt x="147" y="1521" on="1"/>
        <pt x="271" y="1532" on="1"/>
        <pt x="271" y="1009" on="1"/>
        <pt x="271" y="988" on="0"/>
        <pt x="271" y="972" on="0"/>
        <pt x="270" y="970" on="0"/>
        <pt x="269" y="950" on="0"/>
        <pt x="268" y="930" on="1"/>
        <pt x="402" y="1116" on="0"/>
        <pt x="652" y="1116" on="1"/>
        <pt x="1009" y="1116" on="0"/>
        <pt x="1009" y="685" on="1"/>
        <pt x="1009" y="0" on="1"/>
        <pt x="886" y="0" on="1"/>
        <pt x="886" y="661" on="1"/>
        <pt x="886" y="846" on="0"/>
        <pt x="772" y="1011" on="0"/>
        <pt x="628" y="1011" on="1"/>
        <pt x="485" y="1011" on="0"/>
        <pt x="295" y="860" on="0"/>
        <pt x="273" y="741" on="1"/>
        <pt x="271" y="701" on="0"/>
        <pt x="271" y="622" on="1"/>
        <pt x="271" y="0" on="1"/>
      </contour>
    </TTGlyph>
    <TTGlyph name="hbar" xMin="28" yMin="0" xMax="967" yMax="1507">
      <contour>
        <pt x="117" y="0" on="1"/>
        <pt x="117" y="1300" on="1"/>
        <pt x="28" y="1300" on="1"/>
        <pt x="28" y="1403" on="1"/>
        <pt x="117" y="1403" on="1"/>
        <pt x="117" y="1486" on="1"/>
        <pt x="246" y="1507" on="1"/>
        <pt x="246" y="1403" on="1"/>
        <pt x="512" y="1403" on="1"/>
        <pt x="512" y="1300" on="1"/>
        <pt x="246" y="1300" on="1"/>
        <pt x="246" y="933" on="1"/>
        <pt x="394" y="1127" on="0"/>
        <pt x="652" y="1127" on="1"/>
        <pt x="738" y="1127" on="0"/>
        <pt x="864" y="1056" on="0"/>
        <pt x="935" y="925" on="0"/>
        <pt x="967" y="763" on="0"/>
        <pt x="967" y="662" on="1"/>
        <pt x="967" y="0" on="1"/>
        <pt x="839" y="0" on="1"/>
        <pt x="839" y="593" on="1"/>
        <pt x="839" y="686" on="0"/>
        <pt x="829" y="812" on="0"/>
        <pt x="799" y="920" on="0"/>
        <pt x="746" y="981" on="0"/>
        <pt x="661" y="1015" on="0"/>
        <pt x="600" y="1015" on="1"/>
        <pt x="533" y="1015" on="0"/>
        <pt x="404" y="963" on="0"/>
        <pt x="313" y="884" on="0"/>
        <pt x="252" y="791" on="0"/>
        <pt x="246" y="750" on="1"/>
        <pt x="246" y="0" on="1"/>
      </contour>
    </TTGlyph>
    <TTGlyph name="hcircumflex" xMin="147" yMin="0" xMax="1009" yMax="1993">
      <component glyphName="circumflex" x="176" y="324" flags="0x1004"/>
      <component glyphName="h" x="0" y="0" flags="0x1204"/>
    </TTGlyph>
    <TTGlyph name="hungarumlaut" xMin="118" yMin="1328" xMax="612" yMax="1646">
      <contour>
        <pt x="118" y="1328" on="1"/>
        <pt x="294" y="1646" on="1"/>
        <pt x="414" y="1646" on="1"/>
        <pt x="201" y="1328" on="1"/>
      </contour>
      <contour>
        <pt x="315" y="1328" on="1"/>
        <pt x="497" y="1646" on="1"/>
        <pt x="612" y="1646" on="1"/>
        <pt x="403" y="1328" on="1"/>
      </contour>
    </TTGlyph>
    <TTGlyph name="hyphen" xMin="93" yMin="531" xMax="577" yMax="641">
      <contour>
        <pt x="93" y="531" on="1"/>
        <pt x="93" y="641" on="1"/>
        <pt x="577" y="641" on="1"/>
        <pt x="577" y="531" on="1"/>
      </contour>
    </TTGlyph>
    <TTGlyph name="i" xMin="160" yMin="0" xMax="285" yMax="1488">
      <contour>
        <pt x="160" y="0" on="1"/>
        <pt x="160" y="1096" on="1"/>
        <pt x="285" y="1096" on="1"/>
        <pt x="285" y="0" on="1"/>
      </contour>
      <contour>
        <pt x="160" y="1320" on="1"/>
        <pt x="160" y="1488" on="1"/>
        <pt x="284" y="1488" on="1"/>
        <pt x="284" y="1320" on="1"/>
      </contour>
    </TTGlyph>
    <TTGlyph name="iacute" xMin="138" yMin="0" xMax="511" yMax="1605">
      <component glyphName="acute" x="37" y="-69" flags="0x1004"/>
      <component glyphName="dotlessi" x="0" y="0" flags="0x1204"/>
    </TTGlyph>
    <TTGlyph name="ibreve" xMin="-32" yMin="0" xMax="433" yMax="1470">
      <component glyphName="breve" x="-191" y="-138" flags="0x1004"/>
      <component glyphName="dotlessi" x="0" y="0" flags="0x1204"/>
    </TTGlyph>
    <TTGlyph name="icircumflex" xMin="-65" yMin="0" xMax="466" yMax="1577">
      <component glyphName="circumflex" x="-201" y="-92" flags="0x1004"/>
      <component glyphName="dotlessi" x="0" y="0" flags="0x1204"/>
    </TTGlyph>
    <TTGlyph name="idieresis" xMin="-56" yMin="0" xMax="457" yMax="1395">
      <component glyphName="dieresis" x="-192" y="-48" flags="0x1004"/>
      <component glyphName="dotlessi" x="0" y="0" flags="0x1204"/>
    </TTGlyph>
    <TTGlyph name="igrave" xMin="-112" yMin="0" xMax="263" yMax="1605">
      <component glyphName="grave" x="-296" y="-69" flags="0x1004"/>
      <component glyphName="dotlessi" x="0" y="0" flags="0x1204"/>
    </TTGlyph>
    <TTGlyph name="ij" xMin="160" yMin="-550" xMax="731" yMax="1488">
      <component glyphName="i" x="0" y="0" flags="0x1004"/>
      <component glyphName="j" x="445" y="0" flags="0x1004"/>
    </TTGlyph>
    <TTGlyph name="imacron" xMin="-109" yMin="0" xMax="510" yMax="1324">
      <component glyphName="macron" x="-365" y="-52" flags="0x1004"/>
      <component glyphName="dotlessi" x="0" y="0" flags="0x1204"/>
    </TTGlyph>
    <TTGlyph name="iogonek" xMin="-18" yMin="-409" xMax="309" yMax="1488">
      <component glyphName="ogonek" x="-138" y="28" flags="0x1004"/>
      <component glyphName="i" x="0" y="0" flags="0x1204"/>
    </TTGlyph>
    <TTGlyph name="itilde" xMin="-85" yMin="0" xMax="486" yMax="1404">
      <component glyphName="tilde" x="-234" y="-118" flags="0x1004"/>
      <component glyphName="dotlessi" x="0" y="0" flags="0x1204"/>
    </TTGlyph>
    <TTGlyph name="j" xMin="-77" yMin="-550" xMax="286" yMax="1488">
      <contour>
        <pt x="-58" y="-550" on="1"/>
        <pt x="-77" y="-450" on="1"/>
        <pt x="-28" y="-450" on="1"/>
        <pt x="42" y="-450" on="0"/>
        <pt x="120" y="-429" on="0"/>
        <pt x="155" y="-360" on="0"/>
        <pt x="161" y="-297" on="0"/>
        <pt x="161" y="-222" on="1"/>
        <pt x="161" y="-220" on="0"/>
        <pt x="161" y="-219" on="1"/>
        <pt x="161" y="1096" on="1"/>
        <pt x="286" y="1096" on="1"/>
        <pt x="286" y="-247" on="1"/>
        <pt x="286" y="-341" on="0"/>
        <pt x="261" y="-453" on="0"/>
        <pt x="192" y="-524" on="0"/>
        <pt x="83" y="-550" on="0"/>
        <pt x="-9" y="-550" on="1"/>
      </contour>
      <contour>
        <pt x="161" y="1321" on="1"/>
        <pt x="161" y="1488" on="1"/>
        <pt x="286" y="1488" on="1"/>
        <pt x="286" y="1321" on="1"/>
      </contour>
    </TTGlyph>
    <TTGlyph name="jcircumflex" xMin="-165" yMin="-594" xMax="367" yMax="1577">
      <component glyphName="circumflex" x="-300" y="-92" flags="0x1004"/>
      <component glyphName="uni0237" x="0" y="0" flags="0x1204"/>
    </TTGlyph>
    <TTGlyph name="k" xMin="149" yMin="0" xMax="976" yMax="1532">
      <contour>
        <pt x="149" y="0" on="1"/>
        <pt x="149" y="1522" on="1"/>
        <pt x="272" y="1532" on="1"/>
        <pt x="272" y="663" on="1"/>
        <pt x="272" y="568" on="1"/>
        <pt x="281" y="579" on="0"/>
        <pt x="391" y="699" on="0"/>
        <pt x="398" y="707" on="1"/>
        <pt x="777" y="1096" on="1"/>
        <pt x="944" y="1096" on="1"/>
        <pt x="485" y="638" on="1"/>
        <pt x="976" y="0" on="1"/>
        <pt x="819" y="0" on="1"/>
        <pt x="400" y="568" on="1"/>
        <pt x="272" y="450" on="1"/>
        <pt x="272" y="0" on="1"/>
      </contour>
    </TTGlyph>
    <TTGlyph name="kcommaaccent" xMin="149" yMin="-605" xMax="976" yMax="1532">
      <component glyphName="glyph00382" x="278" y="43" flags="0x1004"/>
      <component glyphName="k" x="0" y="0" flags="0x1204"/>
    </TTGlyph>
    <TTGlyph name="kgreenlandic" xMin="149" yMin="0" xMax="976" yMax="1096">
      <contour>
        <pt x="149" y="0" on="1"/>
        <pt x="149" y="1096" on="1"/>
        <pt x="272" y="1096" on="1"/>
        <pt x="272" y="541" on="1"/>
        <pt x="281" y="552" on="0"/>
        <pt x="391" y="672" on="0"/>
        <pt x="398" y="680" on="1"/>
        <pt x="777" y="1096" on="1"/>
        <pt x="944" y="1096" on="1"/>
        <pt x="485" y="611" on="1"/>
        <pt x="976" y="0" on="1"/>
        <pt x="819" y="0" on="1"/>
        <pt x="400" y="541" on="1"/>
        <pt x="272" y="423" on="1"/>
        <pt x="272" y="0" on="1"/>
      </contour>
    </TTGlyph>
    <TTGlyph name="l" xMin="157" yMin="-23" xMax="581" yMax="1532">
      <contour>
        <pt x="423" y="-23" on="1"/>
        <pt x="285" y="-23" on="0"/>
        <pt x="157" y="102" on="0"/>
        <pt x="157" y="243" on="1"/>
        <pt x="157" y="1522" on="1"/>
        <pt x="279" y="1532" on="1"/>
        <pt x="279" y="250" on="1"/>
        <pt x="279" y="150" on="0"/>
        <pt x="352" y="74" on="0"/>
        <pt x="426" y="74" on="1"/>
        <pt x="486" y="74" on="0"/>
        <pt x="576" y="97" on="1"/>
        <pt x="581" y="1" on="1"/>
        <pt x="483" y="-23" on="0"/>
      </contour>
    </TTGlyph>
    <TTGlyph name="lacute" xMin="157" yMin="-23" xMax="680" yMax="2021">
      <component glyphName="acute" x="206" y="347" flags="0x1004"/>
      <component glyphName="l" x="0" y="0" flags="0x1204"/>
    </TTGlyph>
    <TTGlyph name="lcaron" xMin="157" yMin="-23" xMax="1008" yMax="1532">
      <contour>
        <pt x="734" y="1082" on="1"/>
        <pt x="872" y="1532" on="1"/>
        <pt x="1008" y="1532" on="1"/>
        <pt x="838" y="1082" on="1"/>
      </contour>
      <contour>
        <pt x="423" y="-23" on="1"/>
        <pt x="285" y="-23" on="0"/>
        <pt x="157" y="102" on="0"/>
        <pt x="157" y="243" on="1"/>
        <pt x="157" y="1522" on="1"/>
        <pt x="279" y="1532" on="1"/>
        <pt x="279" y="250" on="1"/>
        <pt x="279" y="150" on="0"/>
        <pt x="352" y="74" on="0"/>
        <pt x="426" y="74" on="1"/>
        <pt x="486" y="74" on="0"/>
        <pt x="576" y="97" on="1"/>
        <pt x="581" y="1" on="1"/>
        <pt x="483" y="-23" on="0"/>
      </contour>
    </TTGlyph>
    <TTGlyph name="lcommaaccent" xMin="157" yMin="-628" xMax="581" yMax="1532">
      <component glyphName="glyph00382" x="85" y="20" flags="0x1004"/>
      <component glyphName="l" x="0" y="0" flags="0x1204"/>
    </TTGlyph>
    <TTGlyph name="ldot" xMin="157" yMin="-23" xMax="895" yMax="1532">
      <component glyphName="glyph00383" x="577" y="0" flags="0x1004"/>
      <component glyphName="l" x="0" y="0" flags="0x1004"/>
    </TTGlyph>
    <TTGlyph name="less" xMin="98" yMin="113" xMax="1054" yMax="1158">
      <contour>
        <pt x="1052" y="113" on="1"/>
        <pt x="98" y="579" on="1"/>
        <pt x="98" y="658" on="1"/>
        <pt x="1054" y="1158" on="1"/>
        <pt x="1054" y="1032" on="1"/>
        <pt x="247" y="622" on="1"/>
        <pt x="1052" y="240" on="1"/>
      </contour>
    </TTGlyph>
    <TTGlyph name="lessequal" xMin="84" yMin="12" xMax="1056" yMax="1338">
      <contour>
        <pt x="1022" y="237" on="1"/>
        <pt x="124" y="736" on="1"/>
        <pt x="124" y="809" on="1"/>
        <pt x="1022" y="1338" on="1"/>
        <pt x="1022" y="1214" on="1"/>
        <pt x="239" y="780" on="1"/>
        <pt x="1022" y="362" on="1"/>
      </contour>
      <contour>
        <pt x="84" y="12" on="1"/>
        <pt x="84" y="131" on="1"/>
        <pt x="1056" y="130" on="1"/>
        <pt x="1056" y="12" on="1"/>
      </contour>
    </TTGlyph>
    <TTGlyph name="logicalnot" xMin="99" yMin="268" xMax="1076" yMax="817">
      <contour>
        <pt x="967" y="268" on="1"/>
        <pt x="967" y="707" on="1"/>
        <pt x="99" y="707" on="1"/>
        <pt x="99" y="817" on="1"/>
        <pt x="1076" y="817" on="1"/>
        <pt x="1076" y="268" on="1"/>
      </contour>
    </TTGlyph>
    <TTGlyph name="lozenge" xMin="82" yMin="-49" xMax="1019" yMax="1635">
      <contour>
        <pt x="496" y="-49" on="1"/>
        <pt x="82" y="791" on="1"/>
        <pt x="503" y="1635" on="1"/>
        <pt x="605" y="1635" on="1"/>
        <pt x="1019" y="794" on="1"/>
        <pt x="596" y="-49" on="1"/>
      </contour>
      <contour>
        <pt x="544" y="77" on="1"/>
        <pt x="642" y="263" on="0"/>
        <pt x="916" y="791" on="1"/>
        <pt x="902" y="819" on="0"/>
        <pt x="627" y="1359" on="0"/>
        <pt x="557" y="1502" on="1"/>
        <pt x="482" y="1365" on="0"/>
        <pt x="204" y="830" on="0"/>
        <pt x="184" y="793" on="1"/>
        <pt x="224" y="714" on="0"/>
        <pt x="473" y="211" on="0"/>
      </contour>
    </TTGlyph>
    <TTGlyph name="lslash" xMin="31" yMin="-25" xMax="579" yMax="1507">
      <contour>
        <pt x="395" y="-25" on="1"/>
        <pt x="358" y="-25" on="0"/>
        <pt x="299" y="-19" on="0"/>
        <pt x="251" y="0" on="0"/>
        <pt x="215" y="19" on="0"/>
        <pt x="187" y="61" on="0"/>
        <pt x="168" y="97" on="0"/>
        <pt x="155" y="167" on="0"/>
        <pt x="148" y="223" on="0"/>
        <pt x="144" y="325" on="0"/>
        <pt x="143" y="406" on="0"/>
        <pt x="143" y="474" on="1"/>
        <pt x="143" y="493" on="1"/>
        <pt x="31" y="394" on="1"/>
        <pt x="31" y="514" on="1"/>
        <pt x="143" y="613" on="1"/>
        <pt x="143" y="1487" on="1"/>
        <pt x="272" y="1507" on="1"/>
        <pt x="272" y="729" on="1"/>
        <pt x="456" y="892" on="1"/>
        <pt x="456" y="770" on="1"/>
        <pt x="272" y="608" on="1"/>
        <pt x="272" y="427" on="1"/>
        <pt x="272" y="378" on="0"/>
        <pt x="272" y="325" on="0"/>
        <pt x="274" y="251" on="0"/>
        <pt x="278" y="214" on="0"/>
        <pt x="285" y="162" on="0"/>
        <pt x="295" y="139" on="0"/>
        <pt x="311" y="107" on="0"/>
        <pt x="330" y="94" on="0"/>
        <pt x="357" y="80" on="0"/>
        <pt x="390" y="76" on="0"/>
        <pt x="411" y="76" on="1"/>
        <pt x="434" y="76" on="0"/>
        <pt x="564" y="88" on="1"/>
        <pt x="579" y="-12" on="1"/>
        <pt x="470" y="-25" on="0"/>
      </contour>
    </TTGlyph>
    <TTGlyph name="m" xMin="147" yMin="0" xMax="1665" yMax="1116">
      <contour>
        <pt x="150" y="0" on="1"/>
        <pt x="147" y="994" on="0"/>
        <pt x="147" y="1096" on="1"/>
        <pt x="255" y="1096" on="1"/>
        <pt x="271" y="928" on="1"/>
        <pt x="319" y="1010" on="0"/>
        <pt x="510" y="1116" on="0"/>
        <pt x="617" y="1116" on="1"/>
        <pt x="880" y="1116" on="0"/>
        <pt x="947" y="909" on="1"/>
        <pt x="1064" y="1116" on="0"/>
        <pt x="1316" y="1116" on="1"/>
        <pt x="1496" y="1116" on="0"/>
        <pt x="1665" y="911" on="0"/>
        <pt x="1665" y="708" on="1"/>
        <pt x="1665" y="0" on="1"/>
        <pt x="1541" y="0" on="1"/>
        <pt x="1541" y="536" on="1"/>
        <pt x="1541" y="612" on="0"/>
        <pt x="1537" y="714" on="0"/>
        <pt x="1522" y="834" on="0"/>
        <pt x="1491" y="910" on="0"/>
        <pt x="1441" y="978" on="0"/>
        <pt x="1363" y="1010" on="0"/>
        <pt x="1310" y="1010" on="1"/>
        <pt x="1184" y="1010" on="0"/>
        <pt x="1009" y="861" on="0"/>
        <pt x="975" y="726" on="1"/>
        <pt x="977" y="624" on="0"/>
        <pt x="980" y="568" on="1"/>
        <pt x="980" y="0" on="1"/>
        <pt x="857" y="0" on="1"/>
        <pt x="857" y="558" on="1"/>
        <pt x="857" y="643" on="0"/>
        <pt x="847" y="768" on="0"/>
        <pt x="817" y="888" on="0"/>
        <pt x="766" y="964" on="0"/>
        <pt x="681" y="1010" on="0"/>
        <pt x="622" y="1010" on="1"/>
        <pt x="486" y="1010" on="0"/>
        <pt x="303" y="865" on="0"/>
        <pt x="276" y="740" on="1"/>
        <pt x="274" y="699" on="0"/>
        <pt x="274" y="623" on="1"/>
        <pt x="274" y="0" on="1"/>
      </contour>
    </TTGlyph>
    <TTGlyph name="macron" xMin="256" yMin="1270" xMax="875" yMax="1376">
      <contour>
        <pt x="256" y="1270" on="1"/>
        <pt x="256" y="1376" on="1"/>
        <pt x="874" y="1376" on="1"/>
        <pt x="874" y="1270" on="1"/>
      </contour>
    </TTGlyph>
    <TTGlyph name="minus" xMin="123" yMin="578" xMax="1098" yMax="701">
      <contour>
        <pt x="123" y="578" on="1"/>
        <pt x="123" y="701" on="1"/>
        <pt x="1098" y="701" on="1"/>
        <pt x="1098" y="578" on="1"/>
      </contour>
    </TTGlyph>
    <TTGlyph name="multiply" xMin="172" yMin="261" xMax="942" yMax="1031">
      <contour>
        <pt x="864" y="261" on="1"/>
        <pt x="557" y="569" on="1"/>
        <pt x="249" y="262" on="1"/>
        <pt x="172" y="339" on="1"/>
        <pt x="480" y="646" on="1"/>
        <pt x="173" y="954" on="1"/>
        <pt x="250" y="1031" on="1"/>
        <pt x="557" y="723" on="1"/>
        <pt x="865" y="1030" on="1"/>
        <pt x="942" y="953" on="1"/>
        <pt x="634" y="646" on="1"/>
        <pt x="941" y="338" on="1"/>
      </contour>
    </TTGlyph>
    <TTGlyph name="n" xMin="147" yMin="0" xMax="1012" yMax="1116">
      <contour>
        <pt x="147" y="0" on="1"/>
        <pt x="147" y="1096" on="1"/>
        <pt x="255" y="1096" on="1"/>
        <pt x="272" y="927" on="1"/>
        <pt x="331" y="1015" on="0"/>
        <pt x="530" y="1116" on="0"/>
        <pt x="645" y="1116" on="1"/>
        <pt x="834" y="1116" on="0"/>
        <pt x="1012" y="908" on="0"/>
        <pt x="1012" y="680" on="1"/>
        <pt x="1012" y="0" on="1"/>
        <pt x="887" y="0" on="1"/>
        <pt x="887" y="736" on="1"/>
        <pt x="882" y="882" on="0"/>
        <pt x="768" y="1010" on="0"/>
        <pt x="638" y="1010" on="1"/>
        <pt x="489" y="1010" on="0"/>
        <pt x="300" y="860" on="0"/>
        <pt x="276" y="741" on="1"/>
        <pt x="272" y="694" on="0"/>
        <pt x="272" y="643" on="1"/>
        <pt x="272" y="0" on="1"/>
      </contour>
    </TTGlyph>
    <TTGlyph name="nacute" xMin="147" yMin="0" xMax="1012" yMax="1605">
      <component glyphName="acute" x="416" y="-69" flags="0x1004"/>
      <component glyphName="n" x="0" y="0" flags="0x1204"/>
    </TTGlyph>
    <TTGlyph name="ncaron" xMin="147" yMin="0" xMax="1012" yMax="1577">
      <component glyphName="caron" x="178" y="-92" flags="0x1004"/>
      <component glyphName="n" x="0" y="0" flags="0x1204"/>
    </TTGlyph>
    <TTGlyph name="ncommaaccent" xMin="147" yMin="-605" xMax="1012" yMax="1116">
      <component glyphName="glyph00382" x="296" y="43" flags="0x1004"/>
      <component glyphName="n" x="0" y="0" flags="0x1204"/>
    </TTGlyph>
    <TTGlyph name="nine" xMin="93" yMin="0" xMax="1056" yMax="1514">
      <contour>
        <pt x="265" y="0" on="1"/>
        <pt x="824" y="677" on="1"/>
        <pt x="768" y="641" on="0"/>
        <pt x="625" y="596" on="0"/>
        <pt x="557" y="596" on="1"/>
        <pt x="436" y="596" on="0"/>
        <pt x="226" y="703" on="0"/>
        <pt x="93" y="912" on="0"/>
        <pt x="93" y="1046" on="1"/>
        <pt x="93" y="1141" on="0"/>
        <pt x="161" y="1311" on="0"/>
        <pt x="285" y="1439" on="0"/>
        <pt x="470" y="1514" on="0"/>
        <pt x="581" y="1514" on="1"/>
        <pt x="697" y="1514" on="0"/>
        <pt x="881" y="1435" on="0"/>
        <pt x="996" y="1300" on="0"/>
        <pt x="1056" y="1127" on="0"/>
        <pt x="1056" y="1030" on="1"/>
        <pt x="1056" y="883" on="0"/>
        <pt x="967" y="681" on="0"/>
        <pt x="824" y="478" on="1"/>
        <pt x="725" y="358" on="1"/>
        <pt x="626" y="239" on="0"/>
        <pt x="428" y="0" on="0"/>
        <pt x="428" y="0" on="1"/>
      </contour>
      <contour>
        <pt x="577" y="704" on="1"/>
        <pt x="666" y="704" on="0"/>
        <pt x="805" y="762" on="0"/>
        <pt x="889" y="860" on="0"/>
        <pt x="932" y="982" on="0"/>
        <pt x="932" y="1050" on="1"/>
        <pt x="932" y="1120" on="0"/>
        <pt x="887" y="1247" on="0"/>
        <pt x="802" y="1347" on="0"/>
        <pt x="667" y="1407" on="0"/>
        <pt x="584" y="1407" on="1"/>
        <pt x="474" y="1407" on="0"/>
        <pt x="304" y="1301" on="0"/>
        <pt x="219" y="1139" on="0"/>
        <pt x="219" y="1047" on="1"/>
        <pt x="219" y="898" on="0"/>
        <pt x="415" y="704" on="0"/>
      </contour>
    </TTGlyph>
    <TTGlyph name="notequal" xMin="98" yMin="50" xMax="1039" yMax="1243">
      <contour>
        <pt x="337" y="50" on="1"/>
        <pt x="247" y="68" on="1"/>
        <pt x="364" y="378" on="1"/>
        <pt x="106" y="378" on="1"/>
        <pt x="100" y="479" on="1"/>
        <pt x="420" y="479" on="1"/>
        <pt x="586" y="823" on="1"/>
        <pt x="106" y="823" on="1"/>
        <pt x="98" y="930" on="1"/>
        <pt x="636" y="930" on="1"/>
        <pt x="779" y="1243" on="1"/>
        <pt x="871" y="1231" on="1"/>
        <pt x="755" y="931" on="1"/>
        <pt x="1032" y="931" on="1"/>
        <pt x="1039" y="823" on="1"/>
        <pt x="706" y="823" on="1"/>
        <pt x="535" y="479" on="1"/>
        <pt x="1034" y="479" on="1"/>
        <pt x="1039" y="378" on="1"/>
        <pt x="484" y="378" on="1"/>
      </contour>
    </TTGlyph>
    <TTGlyph name="ntilde" xMin="147" yMin="0" xMax="1012" yMax="1404">
      <component glyphName="tilde" x="144" y="-118" flags="0x1004"/>
      <component glyphName="n" x="0" y="0" flags="0x1204"/>
    </TTGlyph>
    <TTGlyph name="numbersign" xMin="109" yMin="-28" xMax="984" yMax="1464">
      <contour>
        <pt x="180" y="-28" on="1"/>
        <pt x="254" y="414" on="1"/>
        <pt x="109" y="414" on="1"/>
        <pt x="119" y="505" on="1"/>
        <pt x="270" y="505" on="1"/>
        <pt x="348" y="951" on="1"/>
        <pt x="185" y="951" on="1"/>
        <pt x="195" y="1041" on="1"/>
        <pt x="363" y="1041" on="1"/>
        <pt x="437" y="1464" on="1"/>
        <pt x="541" y="1464" on="1"/>
        <pt x="467" y="1041" on="1"/>
        <pt x="737" y="1041" on="1"/>
        <pt x="811" y="1464" on="1"/>
        <pt x="915" y="1464" on="1"/>
        <pt x="841" y="1041" on="1"/>
        <pt x="984" y="1041" on="1"/>
        <pt x="969" y="952" on="1"/>
        <pt x="826" y="952" on="1"/>
        <pt x="747" y="505" on="1"/>
        <pt x="902" y="505" on="1"/>
        <pt x="892" y="414" on="1"/>
        <pt x="732" y="414" on="1"/>
        <pt x="655" y="-28" on="1"/>
        <pt x="550" y="-28" on="1"/>
        <pt x="628" y="414" on="1"/>
        <pt x="358" y="414" on="1"/>
        <pt x="281" y="-28" on="1"/>
      </contour>
      <contour>
        <pt x="374" y="505" on="1"/>
        <pt x="644" y="505" on="1"/>
        <pt x="721" y="952" on="1"/>
        <pt x="452" y="952" on="1"/>
      </contour>
    </TTGlyph>
    <TTGlyph name="o" xMin="97" yMin="-24" xMax="1093" yMax="1116">
      <contour>
        <pt x="601" y="75" on="1"/>
        <pt x="721" y="75" on="0"/>
        <pt x="886" y="202" on="0"/>
        <pt x="961" y="410" on="0"/>
        <pt x="961" y="545" on="1"/>
        <pt x="961" y="757" on="0"/>
        <pt x="781" y="1015" on="0"/>
        <pt x="597" y="1015" on="1"/>
        <pt x="477" y="1015" on="0"/>
        <pt x="308" y="886" on="0"/>
        <pt x="230" y="677" on="0"/>
        <pt x="230" y="542" on="1"/>
        <pt x="230" y="337" on="0"/>
        <pt x="421" y="75" on="0"/>
      </contour>
      <contour>
        <pt x="592" y="-24" on="1"/>
        <pt x="443" y="-24" on="0"/>
        <pt x="216" y="126" on="0"/>
        <pt x="97" y="383" on="0"/>
        <pt x="97" y="545" on="1"/>
        <pt x="97" y="667" on="0"/>
        <pt x="166" y="876" on="0"/>
        <pt x="294" y="1029" on="0"/>
        <pt x="484" y="1116" on="0"/>
        <pt x="600" y="1116" on="1"/>
        <pt x="754" y="1116" on="0"/>
        <pt x="980" y="965" on="0"/>
        <pt x="1093" y="710" on="0"/>
        <pt x="1093" y="547" on="1"/>
        <pt x="1093" y="383" on="0"/>
        <pt x="977" y="127" on="0"/>
        <pt x="747" y="-24" on="0"/>
      </contour>
    </TTGlyph>
    <TTGlyph name="oacute" xMin="97" yMin="-24" xMax="1093" yMax="1605">
      <component glyphName="acute" x="432" y="-69" flags="0x1004"/>
      <component glyphName="o" x="0" y="0" flags="0x1204"/>
    </TTGlyph>
    <TTGlyph name="obreve" xMin="97" yMin="-24" xMax="1093" yMax="1470">
      <component glyphName="breve" x="204" y="-138" flags="0x1004"/>
      <component glyphName="o" x="0" y="0" flags="0x1204"/>
    </TTGlyph>
    <TTGlyph name="ocircumflex" xMin="97" yMin="-24" xMax="1093" yMax="1577">
      <component glyphName="circumflex" x="194" y="-92" flags="0x1004"/>
      <component glyphName="o" x="0" y="0" flags="0x1204"/>
    </TTGlyph>
    <TTGlyph name="odieresis" xMin="97" yMin="-24" xMax="1093" yMax="1395">
      <component glyphName="dieresis" x="202" y="-48" flags="0x1004"/>
      <component glyphName="o" x="0" y="0" flags="0x1204"/>
    </TTGlyph>
    <TTGlyph name="oe" xMin="97" yMin="-24" xMax="1836" yMax="1116">
      <contour>
        <pt x="586" y="-24" on="1"/>
        <pt x="437" y="-24" on="0"/>
        <pt x="213" y="126" on="0"/>
        <pt x="97" y="383" on="0"/>
        <pt x="97" y="545" on="1"/>
        <pt x="97" y="709" on="0"/>
        <pt x="212" y="965" on="0"/>
        <pt x="440" y="1116" on="0"/>
        <pt x="594" y="1116" on="1"/>
        <pt x="750" y="1116" on="0"/>
        <pt x="966" y="963" on="0"/>
        <pt x="1020" y="828" on="1"/>
        <pt x="1073" y="962" on="0"/>
        <pt x="1279" y="1113" on="0"/>
        <pt x="1419" y="1116" on="1"/>
        <pt x="1611" y="1116" on="0"/>
        <pt x="1836" y="841" on="0"/>
        <pt x="1836" y="608" on="1"/>
        <pt x="1836" y="599" on="0"/>
        <pt x="1835" y="544" on="0"/>
        <pt x="1835" y="533" on="1"/>
        <pt x="1082" y="533" on="1"/>
        <pt x="1084" y="322" on="0"/>
        <pt x="1284" y="75" on="0"/>
        <pt x="1448" y="75" on="1"/>
        <pt x="1496" y="75" on="0"/>
        <pt x="1576" y="85" on="0"/>
        <pt x="1654" y="113" on="0"/>
        <pt x="1692" y="128" on="0"/>
        <pt x="1778" y="173" on="0"/>
        <pt x="1789" y="179" on="1"/>
        <pt x="1810" y="78" on="1"/>
        <pt x="1725" y="26" on="0"/>
        <pt x="1558" y="-24" on="0"/>
        <pt x="1445" y="-24" on="1"/>
        <pt x="1290" y="-24" on="0"/>
        <pt x="1072" y="126" on="0"/>
        <pt x="1019" y="264" on="1"/>
        <pt x="964" y="129" on="0"/>
        <pt x="743" y="-24" on="0"/>
      </contour>
      <contour>
        <pt x="595" y="75" on="1"/>
        <pt x="685" y="75" on="0"/>
        <pt x="824" y="147" on="0"/>
        <pt x="909" y="276" on="0"/>
        <pt x="951" y="444" on="0"/>
        <pt x="951" y="545" on="1"/>
        <pt x="951" y="648" on="0"/>
        <pt x="910" y="815" on="0"/>
        <pt x="826" y="944" on="0"/>
        <pt x="685" y="1015" on="0"/>
        <pt x="591" y="1015" on="1"/>
        <pt x="471" y="1015" on="0"/>
        <pt x="305" y="886" on="0"/>
        <pt x="230" y="678" on="0"/>
        <pt x="230" y="542" on="1"/>
        <pt x="230" y="443" on="0"/>
        <pt x="274" y="276" on="0"/>
        <pt x="362" y="147" on="0"/>
        <pt x="503" y="75" on="0"/>
      </contour>
      <contour>
        <pt x="1087" y="633" on="1"/>
        <pt x="1701" y="633" on="1"/>
        <pt x="1701" y="639" on="0"/>
        <pt x="1701" y="644" on="1"/>
        <pt x="1699" y="823" on="0"/>
        <pt x="1549" y="1011" on="0"/>
        <pt x="1415" y="1011" on="1"/>
        <pt x="1275" y="1011" on="0"/>
        <pt x="1103" y="803" on="0"/>
      </contour>
    </TTGlyph>
    <TTGlyph name="ogonek" xMin="120" yMin="-437" xMax="447" yMax="-14">
      <contour>
        <pt x="307" y="-437" on="1"/>
        <pt x="225" y="-437" on="0"/>
        <pt x="120" y="-340" on="0"/>
        <pt x="120" y="-258" on="1"/>
        <pt x="120" y="-131" on="0"/>
        <pt x="311" y="-14" on="1"/>
        <pt x="428" y="-14" on="1"/>
        <pt x="324" y="-93" on="0"/>
        <pt x="222" y="-198" on="0"/>
        <pt x="222" y="-246" on="1"/>
        <pt x="222" y="-288" on="0"/>
        <pt x="281" y="-337" on="0"/>
        <pt x="313" y="-337" on="1"/>
        <pt x="344" y="-337" on="0"/>
        <pt x="369" y="-335" on="0"/>
        <pt x="414" y="-322" on="0"/>
        <pt x="447" y="-307" on="1"/>
        <pt x="447" y="-408" on="1"/>
        <pt x="373" y="-437" on="0"/>
      </contour>
    </TTGlyph>
    <TTGlyph name="ograve" xMin="97" yMin="-24" xMax="1093" yMax="1605">
      <component glyphName="grave" x="98" y="-69" flags="0x1004"/>
      <component glyphName="o" x="0" y="0" flags="0x1204"/>
    </TTGlyph>
    <TTGlyph name="ohungarumlaut" xMin="97" yMin="-24" xMax="1093" yMax="1536">
      <component glyphName="hungarumlaut" x="334" y="-110" flags="0x1004"/>
      <component glyphName="o" x="0" y="0" flags="0x1204"/>
    </TTGlyph>
    <TTGlyph name="omacron" xMin="97" yMin="-24" xMax="1093" yMax="1324">
      <component glyphName="macron" x="30" y="-52" flags="0x1004"/>
      <component glyphName="o" x="0" y="0" flags="0x1204"/>
    </TTGlyph>
    <TTGlyph name="one" xMin="34" yMin="0" xMax="402" yMax="1488">
      <contour>
        <pt x="274" y="0" on="1"/>
        <pt x="274" y="1356" on="1"/>
        <pt x="242" y="1333" on="0"/>
        <pt x="103" y="1265" on="0"/>
        <pt x="34" y="1241" on="1"/>
        <pt x="34" y="1349" on="1"/>
        <pt x="244" y="1446" on="0"/>
        <pt x="297" y="1488" on="1"/>
        <pt x="402" y="1488" on="1"/>
        <pt x="402" y="0" on="1"/>
      </contour>
    </TTGlyph>
    <TTGlyph name="onehalf" xMin="139" yMin="0" xMax="1452" yMax="1514">
      <contour>
        <pt x="149" y="681" on="1"/>
        <pt x="149" y="747" on="1"/>
        <pt x="253" y="747" on="1"/>
        <pt x="253" y="1416" on="1"/>
        <pt x="224" y="1394" on="0"/>
        <pt x="139" y="1344" on="1"/>
        <pt x="139" y="1425" on="1"/>
        <pt x="233" y="1479" on="0"/>
        <pt x="261" y="1514" on="1"/>
        <pt x="346" y="1514" on="1"/>
        <pt x="346" y="747" on="1"/>
        <pt x="453" y="747" on="1"/>
        <pt x="453" y="681" on="1"/>
      </contour>
      <contour>
        <pt x="892" y="0" on="1"/>
        <pt x="892" y="77" on="1"/>
        <pt x="1175" y="380" on="0"/>
        <pt x="1349" y="604" on="0"/>
        <pt x="1349" y="679" on="1"/>
        <pt x="1349" y="749" on="0"/>
        <pt x="1254" y="832" on="0"/>
        <pt x="1192" y="832" on="1"/>
        <pt x="1134" y="832" on="0"/>
        <pt x="1036" y="776" on="0"/>
        <pt x="991" y="704" on="1"/>
        <pt x="909" y="735" on="1"/>
        <pt x="946" y="824" on="0"/>
        <pt x="1099" y="920" on="0"/>
        <pt x="1189" y="920" on="1"/>
        <pt x="1298" y="920" on="0"/>
        <pt x="1452" y="786" on="0"/>
        <pt x="1452" y="671" on="1"/>
        <pt x="1452" y="627" on="0"/>
        <pt x="1419" y="536" on="0"/>
        <pt x="1376" y="462" on="0"/>
        <pt x="1281" y="352" on="0"/>
        <pt x="1210" y="277" on="0"/>
        <pt x="1066" y="130" on="0"/>
        <pt x="1021" y="82" on="1"/>
        <pt x="1435" y="82" on="1"/>
        <pt x="1443" y="0" on="1"/>
      </contour>
      <contour>
        <pt x="270" y="0" on="1"/>
        <pt x="1158" y="1514" on="1"/>
        <pt x="1251" y="1514" on="1"/>
        <pt x="370" y="0" on="1"/>
      </contour>
    </TTGlyph>
    <TTGlyph name="onequarter" xMin="139" yMin="0" xMax="1463" yMax="1514">
      <contour>
        <pt x="149" y="681" on="1"/>
        <pt x="149" y="747" on="1"/>
        <pt x="253" y="747" on="1"/>
        <pt x="253" y="1416" on="1"/>
        <pt x="224" y="1394" on="0"/>
        <pt x="139" y="1344" on="1"/>
        <pt x="139" y="1425" on="1"/>
        <pt x="233" y="1479" on="0"/>
        <pt x="261" y="1514" on="1"/>
        <pt x="346" y="1514" on="1"/>
        <pt x="346" y="747" on="1"/>
        <pt x="453" y="747" on="1"/>
        <pt x="453" y="681" on="1"/>
      </contour>
      <contour>
        <pt x="1270" y="0" on="1"/>
        <pt x="1270" y="218" on="1"/>
        <pt x="895" y="218" on="1"/>
        <pt x="895" y="289" on="1"/>
        <pt x="1270" y="861" on="1"/>
        <pt x="1363" y="861" on="1"/>
        <pt x="1363" y="300" on="1"/>
        <pt x="1455" y="300" on="1"/>
        <pt x="1463" y="218" on="1"/>
        <pt x="1363" y="218" on="1"/>
        <pt x="1363" y="0" on="1"/>
      </contour>
      <contour>
        <pt x="281" y="0" on="1"/>
        <pt x="1169" y="1514" on="1"/>
        <pt x="1262" y="1514" on="1"/>
        <pt x="381" y="0" on="1"/>
      </contour>
      <contour>
        <pt x="995" y="300" on="1"/>
        <pt x="1270" y="300" on="1"/>
        <pt x="1269" y="685" on="0"/>
        <pt x="1270" y="727" on="1"/>
      </contour>
    </TTGlyph>
    <TTGlyph name="ordfeminine" xMin="133" yMin="720" xMax="682" yMax="1624">
      <contour>
        <pt x="358" y="892" on="1"/>
        <pt x="305" y="892" on="0"/>
        <pt x="206" y="932" on="0"/>
        <pt x="133" y="1024" on="0"/>
        <pt x="133" y="1088" on="1"/>
        <pt x="133" y="1141" on="0"/>
        <pt x="178" y="1219" on="0"/>
        <pt x="248" y="1267" on="0"/>
        <pt x="366" y="1302" on="0"/>
        <pt x="478" y="1319" on="0"/>
        <pt x="560" y="1326" on="1"/>
        <pt x="560" y="1349" on="1"/>
        <pt x="560" y="1449" on="0"/>
        <pt x="499" y="1547" on="0"/>
        <pt x="424" y="1547" on="1"/>
        <pt x="364" y="1547" on="0"/>
        <pt x="218" y="1509" on="0"/>
        <pt x="178" y="1481" on="1"/>
        <pt x="141" y="1554" on="1"/>
        <pt x="259" y="1624" on="0"/>
        <pt x="428" y="1624" on="1"/>
        <pt x="529" y="1624" on="0"/>
        <pt x="656" y="1504" on="0"/>
        <pt x="656" y="1371" on="1"/>
        <pt x="656" y="1027" on="1"/>
        <pt x="656" y="902" on="1"/>
        <pt x="595" y="902" on="1"/>
        <pt x="572" y="1010" on="1"/>
        <pt x="544" y="951" on="0"/>
        <pt x="429" y="892" on="0"/>
      </contour>
      <contour>
        <pt x="363" y="968" on="1"/>
        <pt x="369" y="968" on="1"/>
        <pt x="459" y="970" on="0"/>
        <pt x="563" y="1103" on="0"/>
        <pt x="563" y="1217" on="1"/>
        <pt x="563" y="1256" on="1"/>
        <pt x="529" y="1254" on="0"/>
        <pt x="493" y="1251" on="0"/>
        <pt x="413" y="1241" on="0"/>
        <pt x="363" y="1228" on="0"/>
        <pt x="297" y="1204" on="0"/>
        <pt x="260" y="1174" on="0"/>
        <pt x="232" y="1129" on="0"/>
        <pt x="232" y="1101" on="1"/>
        <pt x="232" y="1098" on="1"/>
        <pt x="235" y="968" on="0"/>
      </contour>
      <contour>
        <pt x="144" y="720" on="1"/>
        <pt x="144" y="798" on="1"/>
        <pt x="682" y="798" on="1"/>
        <pt x="682" y="720" on="1"/>
      </contour>
    </TTGlyph>
    <TTGlyph name="oslash" xMin="97" yMin="-311" xMax="1093" yMax="1410">
      <contour>
        <pt x="284" y="-311" on="1"/>
        <pt x="220" y="-283" on="1"/>
        <pt x="351" y="38" on="1"/>
        <pt x="231" y="107" on="0"/>
        <pt x="97" y="375" on="0"/>
        <pt x="97" y="545" on="1"/>
        <pt x="97" y="667" on="0"/>
        <pt x="166" y="876" on="0"/>
        <pt x="294" y="1029" on="0"/>
        <pt x="484" y="1116" on="0"/>
        <pt x="600" y="1116" on="1"/>
        <pt x="694" y="1116" on="0"/>
        <pt x="778" y="1086" on="1"/>
        <pt x="910" y="1410" on="1"/>
        <pt x="979" y="1386" on="1"/>
        <pt x="844" y="1055" on="1"/>
        <pt x="963" y="987" on="0"/>
        <pt x="1093" y="718" on="0"/>
        <pt x="1093" y="547" on="1"/>
        <pt x="1093" y="383" on="0"/>
        <pt x="977" y="127" on="0"/>
        <pt x="747" y="-24" on="0"/>
        <pt x="592" y="-24" on="1"/>
        <pt x="498" y="-24" on="0"/>
        <pt x="414" y="7" on="1"/>
      </contour>
      <contour>
        <pt x="392" y="139" on="1"/>
        <pt x="739" y="990" on="1"/>
        <pt x="675" y="1015" on="0"/>
        <pt x="597" y="1015" on="1"/>
        <pt x="477" y="1015" on="0"/>
        <pt x="308" y="886" on="0"/>
        <pt x="230" y="677" on="0"/>
        <pt x="230" y="542" on="1"/>
        <pt x="230" y="410" on="0"/>
        <pt x="312" y="198" on="0"/>
      </contour>
      <contour>
        <pt x="601" y="75" on="1"/>
        <pt x="721" y="75" on="0"/>
        <pt x="886" y="202" on="0"/>
        <pt x="961" y="410" on="0"/>
        <pt x="961" y="545" on="1"/>
        <pt x="961" y="840" on="0"/>
        <pt x="802" y="955" on="1"/>
        <pt x="454" y="104" on="1"/>
        <pt x="520" y="75" on="0"/>
      </contour>
    </TTGlyph>
    <TTGlyph name="otilde" xMin="97" yMin="-24" xMax="1093" yMax="1404">
      <component glyphName="tilde" x="160" y="-118" flags="0x1004"/>
      <component glyphName="o" x="0" y="0" flags="0x1204"/>
    </TTGlyph>
    <TTGlyph name="p" xMin="147" yMin="-488" xMax="1078" yMax="1116">
      <contour>
        <pt x="147" y="-488" on="1"/>
        <pt x="147" y="1096" on="1"/>
        <pt x="258" y="1096" on="1"/>
        <pt x="269" y="940" on="1"/>
        <pt x="346" y="1028" on="0"/>
        <pt x="505" y="1116" on="0"/>
        <pt x="611" y="1116" on="1"/>
        <pt x="845" y="1116" on="0"/>
        <pt x="1078" y="805" on="0"/>
        <pt x="1078" y="535" on="1"/>
        <pt x="1078" y="289" on="0"/>
        <pt x="832" y="-24" on="0"/>
        <pt x="622" y="-24" on="1"/>
        <pt x="514" y="-24" on="0"/>
        <pt x="322" y="78" on="0"/>
        <pt x="266" y="161" on="1"/>
        <pt x="271" y="38" on="0"/>
        <pt x="271" y="-81" on="1"/>
        <pt x="271" y="-479" on="1"/>
      </contour>
      <contour>
        <pt x="614" y="78" on="1"/>
        <pt x="699" y="78" on="0"/>
        <pt x="831" y="160" on="0"/>
        <pt x="909" y="296" on="0"/>
        <pt x="948" y="457" on="0"/>
        <pt x="948" y="544" on="1"/>
        <pt x="948" y="632" on="0"/>
        <pt x="910" y="792" on="0"/>
        <pt x="833" y="929" on="0"/>
        <pt x="699" y="1011" on="0"/>
        <pt x="613" y="1011" on="1"/>
        <pt x="520" y="1011" on="0"/>
        <pt x="385" y="944" on="0"/>
        <pt x="306" y="820" on="0"/>
        <pt x="270" y="662" on="0"/>
        <pt x="270" y="563" on="1"/>
        <pt x="270" y="449" on="0"/>
        <pt x="304" y="279" on="0"/>
        <pt x="381" y="146" on="0"/>
        <pt x="517" y="78" on="0"/>
      </contour>
    </TTGlyph>
    <TTGlyph name="paragraph" xMin="80" yMin="0" xMax="927" yMax="1515">
      <contour>
        <pt x="495" y="0" on="1"/>
        <pt x="493" y="863" on="0"/>
        <pt x="492" y="863" on="1"/>
        <pt x="395" y="863" on="0"/>
        <pt x="236" y="921" on="0"/>
        <pt x="135" y="1018" on="0"/>
        <pt x="81" y="1137" on="0"/>
        <pt x="81" y="1201" on="1"/>
        <pt x="81" y="1262" on="0"/>
        <pt x="131" y="1372" on="0"/>
        <pt x="228" y="1461" on="0"/>
        <pt x="388" y="1514" on="0"/>
        <pt x="488" y="1514" on="1"/>
        <pt x="926" y="1514" on="1"/>
        <pt x="926" y="1417" on="1"/>
        <pt x="854" y="1417" on="1"/>
        <pt x="854" y="0" on="1"/>
        <pt x="762" y="0" on="1"/>
        <pt x="762" y="1417" on="1"/>
        <pt x="589" y="1417" on="1"/>
        <pt x="589" y="0" on="1"/>
      </contour>
    </TTGlyph>
    <TTGlyph name="parenleft" xMin="108" yMin="-239" xMax="495" yMax="1514">
      <contour>
        <pt x="379" y="-239" on="1"/>
        <pt x="252" y="-63" on="0"/>
        <pt x="108" y="395" on="0"/>
        <pt x="108" y="627" on="1"/>
        <pt x="108" y="1111" on="0"/>
        <pt x="376" y="1514" on="1"/>
        <pt x="495" y="1514" on="1"/>
        <pt x="355" y="1277" on="0"/>
        <pt x="242" y="863" on="0"/>
        <pt x="242" y="633" on="1"/>
        <pt x="242" y="182" on="0"/>
        <pt x="495" y="-239" on="1"/>
      </contour>
    </TTGlyph>
    <TTGlyph name="parenright" xMin="94" yMin="-239" xMax="482" yMax="1514">
      <contour>
        <pt x="95" y="-239" on="1"/>
        <pt x="348" y="183" on="0"/>
        <pt x="348" y="633" on="1"/>
        <pt x="348" y="862" on="0"/>
        <pt x="234" y="1277" on="0"/>
        <pt x="94" y="1514" on="1"/>
        <pt x="212" y="1514" on="1"/>
        <pt x="482" y="1104" on="0"/>
        <pt x="482" y="627" on="1"/>
        <pt x="482" y="394" on="0"/>
        <pt x="337" y="-61" on="0"/>
        <pt x="210" y="-239" on="1"/>
      </contour>
    </TTGlyph>
    <TTGlyph name="period" xMin="183" yMin="-8" xMax="399" yMax="199">
      <contour>
        <pt x="290" y="-8" on="1"/>
        <pt x="237" y="-8" on="0"/>
        <pt x="183" y="54" on="0"/>
        <pt x="183" y="96" on="1"/>
        <pt x="183" y="137" on="0"/>
        <pt x="237" y="199" on="0"/>
        <pt x="290" y="199" on="1"/>
        <pt x="345" y="199" on="0"/>
        <pt x="399" y="137" on="0"/>
        <pt x="399" y="96" on="1"/>
        <pt x="399" y="54" on="0"/>
        <pt x="345" y="-8" on="0"/>
      </contour>
    </TTGlyph>
    <TTGlyph name="periodcentered" xMin="169" yMin="610" xMax="320" yMax="772">
      <contour>
        <pt x="170" y="610" on="1"/>
        <pt x="170" y="772" on="1"/>
        <pt x="320" y="772" on="1"/>
        <pt x="320" y="610" on="1"/>
      </contour>
    </TTGlyph>
    <TTGlyph name="plus" xMin="108" yMin="157" xMax="993" yMax="1135">
      <contour>
        <pt x="500" y="157" on="1"/>
        <pt x="500" y="600" on="1"/>
        <pt x="108" y="600" on="1"/>
        <pt x="108" y="700" on="1"/>
        <pt x="502" y="700" on="1"/>
        <pt x="502" y="1135" on="1"/>
        <pt x="610" y="1135" on="1"/>
        <pt x="610" y="700" on="1"/>
        <pt x="992" y="700" on="1"/>
        <pt x="992" y="600" on="1"/>
        <pt x="610" y="600" on="1"/>
        <pt x="610" y="157" on="1"/>
      </contour>
    </TTGlyph>
    <TTGlyph name="plusminus" xMin="95" yMin="0" xMax="1070" yMax="1213">
      <contour>
        <pt x="526" y="215" on="1"/>
        <pt x="526" y="654" on="1"/>
        <pt x="95" y="654" on="1"/>
        <pt x="95" y="765" on="1"/>
        <pt x="525" y="765" on="1"/>
        <pt x="525" y="1213" on="1"/>
        <pt x="632" y="1213" on="1"/>
        <pt x="632" y="765" on="1"/>
        <pt x="1067" y="765" on="1"/>
        <pt x="1067" y="654" on="1"/>
        <pt x="635" y="654" on="1"/>
        <pt x="635" y="215" on="1"/>
      </contour>
      <contour>
        <pt x="95" y="0" on="1"/>
        <pt x="95" y="121" on="1"/>
        <pt x="1070" y="121" on="1"/>
        <pt x="1070" y="0" on="1"/>
      </contour>
    </TTGlyph>
    <TTGlyph name="q" xMin="97" yMin="-488" xMax="1032" yMax="1116">
      <contour>
        <pt x="908" y="-488" on="1"/>
        <pt x="908" y="13" on="1"/>
        <pt x="908" y="97" on="0"/>
        <pt x="913" y="165" on="1"/>
        <pt x="855" y="72" on="0"/>
        <pt x="654" y="-24" on="0"/>
        <pt x="554" y="-24" on="1"/>
        <pt x="410" y="-24" on="0"/>
        <pt x="200" y="122" on="0"/>
        <pt x="97" y="371" on="0"/>
        <pt x="97" y="532" on="1"/>
        <pt x="97" y="705" on="0"/>
        <pt x="200" y="965" on="0"/>
        <pt x="413" y="1116" on="0"/>
        <pt x="562" y="1116" on="1"/>
        <pt x="767" y="1116" on="0"/>
        <pt x="913" y="931" on="1"/>
        <pt x="921" y="1096" on="1"/>
        <pt x="1032" y="1096" on="1"/>
        <pt x="1032" y="-481" on="1"/>
      </contour>
      <contour>
        <pt x="554" y="84" on="1"/>
        <pt x="900" y="84" on="0"/>
        <pt x="905" y="525" on="1"/>
        <pt x="905" y="637" on="0"/>
        <pt x="868" y="809" on="0"/>
        <pt x="788" y="940" on="0"/>
        <pt x="650" y="1009" on="0"/>
        <pt x="553" y="1009" on="1"/>
        <pt x="482" y="1009" on="0"/>
        <pt x="369" y="955" on="0"/>
        <pt x="297" y="865" on="0"/>
        <pt x="248" y="743" on="0"/>
        <pt x="228" y="614" on="0"/>
        <pt x="228" y="544" on="1"/>
        <pt x="228" y="451" on="0"/>
        <pt x="262" y="293" on="0"/>
        <pt x="335" y="160" on="0"/>
        <pt x="466" y="84" on="0"/>
      </contour>
    </TTGlyph>
    <TTGlyph name="question" xMin="83" yMin="-1" xMax="742" yMax="1517">
      <contour>
        <pt x="314" y="395" on="1"/>
        <pt x="309" y="449" on="0"/>
        <pt x="366" y="601" on="0"/>
        <pt x="455" y="761" on="0"/>
        <pt x="545" y="925" on="0"/>
        <pt x="609" y="1102" on="0"/>
        <pt x="609" y="1174" on="1"/>
        <pt x="608" y="1281" on="0"/>
        <pt x="483" y="1410" on="0"/>
        <pt x="382" y="1410" on="1"/>
        <pt x="308" y="1410" on="0"/>
        <pt x="164" y="1359" on="0"/>
        <pt x="117" y="1330" on="1"/>
        <pt x="83" y="1426" on="1"/>
        <pt x="143" y="1468" on="0"/>
        <pt x="323" y="1517" on="0"/>
        <pt x="394" y="1517" on="1"/>
        <pt x="556" y="1517" on="0"/>
        <pt x="742" y="1321" on="0"/>
        <pt x="742" y="1173" on="1"/>
        <pt x="742" y="1105" on="0"/>
        <pt x="696" y="965" on="0"/>
        <pt x="616" y="823" on="0"/>
        <pt x="527" y="684" on="0"/>
        <pt x="418" y="489" on="0"/>
        <pt x="379" y="395" on="1"/>
      </contour>
      <contour>
        <pt x="363" y="-1" on="1"/>
        <pt x="313" y="-1" on="0"/>
        <pt x="262" y="57" on="0"/>
        <pt x="262" y="96" on="1"/>
        <pt x="262" y="134" on="0"/>
        <pt x="313" y="192" on="0"/>
        <pt x="363" y="192" on="1"/>
        <pt x="414" y="192" on="0"/>
        <pt x="464" y="135" on="0"/>
        <pt x="464" y="57" on="0"/>
        <pt x="414" y="-1" on="0"/>
      </contour>
    </TTGlyph>
    <TTGlyph name="questiondown" xMin="99" yMin="-391" xMax="758" yMax="1127">
      <component glyphName="question" x="841" y="1126" scale="-1.0" flags="0x1004"/>
    </TTGlyph>
    <TTGlyph name="quotedbl" xMin="153" yMin="1034" xMax="530" yMax="1514">
      <contour>
        <pt x="168" y="1034" on="1"/>
        <pt x="153" y="1514" on="1"/>
        <pt x="271" y="1514" on="1"/>
        <pt x="239" y="1034" on="1"/>
      </contour>
      <contour>
        <pt x="427" y="1034" on="1"/>
        <pt x="412" y="1514" on="1"/>
        <pt x="530" y="1514" on="1"/>
        <pt x="498" y="1034" on="1"/>
      </contour>
    </TTGlyph>
    <TTGlyph name="quotedblbase" xMin="111" yMin="-240" xMax="621" yMax="218">
      <contour>
        <pt x="111" y="-240" on="1"/>
        <pt x="192" y="218" on="1"/>
        <pt x="321" y="218" on="1"/>
        <pt x="204" y="-240" on="1"/>
      </contour>
      <contour>
        <pt x="409" y="-240" on="1"/>
        <pt x="487" y="218" on="1"/>
        <pt x="621" y="218" on="1"/>
        <pt x="498" y="-240" on="1"/>
      </contour>
    </TTGlyph>
    <TTGlyph name="quotedblleft" xMin="104" yMin="1161" xMax="732" yMax="1619">
      <contour>
        <pt x="104" y="1161" on="1"/>
        <pt x="341" y="1619" on="1"/>
        <pt x="420" y="1619" on="1"/>
        <pt x="259" y="1161" on="1"/>
      </contour>
      <contour>
        <pt x="419" y="1161" on="1"/>
        <pt x="653" y="1619" on="1"/>
        <pt x="732" y="1619" on="1"/>
        <pt x="573" y="1161" on="1"/>
      </contour>
    </TTGlyph>
    <TTGlyph name="quotedblright" xMin="113" yMin="1161" xMax="619" yMax="1619">
      <contour>
        <pt x="113" y="1161" on="1"/>
        <pt x="200" y="1619" on="1"/>
        <pt x="335" y="1619" on="1"/>
        <pt x="206" y="1161" on="1"/>
      </contour>
      <contour>
        <pt x="394" y="1161" on="1"/>
        <pt x="481" y="1619" on="1"/>
        <pt x="619" y="1619" on="1"/>
        <pt x="492" y="1161" on="1"/>
      </contour>
    </TTGlyph>
    <TTGlyph name="quoteleft" xMin="104" yMin="1161" xMax="420" yMax="1619">
      <contour>
        <pt x="104" y="1161" on="1"/>
        <pt x="344" y="1619" on="1"/>
        <pt x="420" y="1619" on="1"/>
        <pt x="258" y="1161" on="1"/>
      </contour>
    </TTGlyph>
    <TTGlyph name="quoteright" xMin="166" yMin="1161" xMax="382" yMax="1619">
      <contour>
        <pt x="166" y="1161" on="1"/>
        <pt x="252" y="1619" on="1"/>
        <pt x="382" y="1619" on="1"/>
        <pt x="259" y="1161" on="1"/>
      </contour>
    </TTGlyph>
    <TTGlyph name="quotesinglbase" xMin="130" yMin="-240" xMax="349" yMax="218">
      <contour>
        <pt x="130" y="-240" on="1"/>
        <pt x="215" y="218" on="1"/>
        <pt x="349" y="218" on="1"/>
        <pt x="227" y="-240" on="1"/>
      </contour>
    </TTGlyph>
    <TTGlyph name="quotesingle" xMin="137" yMin="1020" xMax="267" yMax="1514">
      <contour>
        <pt x="152" y="1020" on="1"/>
        <pt x="137" y="1514" on="1"/>
        <pt x="267" y="1514" on="1"/>
        <pt x="247" y="1020" on="1"/>
      </contour>
    </TTGlyph>
    <TTGlyph name="r" xMin="147" yMin="0" xMax="685" yMax="1102">
      <contour>
        <pt x="149" y="0" on="1"/>
        <pt x="147" y="965" on="0"/>
        <pt x="147" y="1096" on="1"/>
        <pt x="249" y="1096" on="1"/>
        <pt x="257" y="880" on="1"/>
        <pt x="316" y="978" on="0"/>
        <pt x="498" y="1102" on="0"/>
        <pt x="597" y="1102" on="1"/>
        <pt x="638" y="1102" on="0"/>
        <pt x="685" y="1095" on="1"/>
        <pt x="676" y="992" on="1"/>
        <pt x="640" y="998" on="0"/>
        <pt x="600" y="998" on="1"/>
        <pt x="461" y="998" on="0"/>
        <pt x="272" y="779" on="0"/>
        <pt x="272" y="629" on="1"/>
        <pt x="272" y="0" on="1"/>
      </contour>
    </TTGlyph>
    <TTGlyph name="racute" xMin="147" yMin="0" xMax="727" yMax="1605">
      <component glyphName="acute" x="252" y="-69" flags="0x1004"/>
      <component glyphName="r" x="0" y="0" flags="0x1204"/>
    </TTGlyph>
    <TTGlyph name="rcaron" xMin="147" yMin="0" xMax="685" yMax="1577">
      <component glyphName="caron" x="14" y="-92" flags="0x1004"/>
      <component glyphName="r" x="0" y="0" flags="0x1204"/>
    </TTGlyph>
    <TTGlyph name="rcommaaccent" xMin="147" yMin="-605" xMax="685" yMax="1102">
      <component glyphName="glyph00382" x="132" y="43" flags="0x1004"/>
      <component glyphName="r" x="0" y="0" flags="0x1204"/>
    </TTGlyph>
    <TTGlyph name="registered" xMin="129" yMin="-116" xMax="1726" yMax="1514">
      <contour>
        <pt x="623" y="212" on="1"/>
        <pt x="623" y="1202" on="1"/>
        <pt x="966" y="1202" on="1"/>
        <pt x="1138" y="1202" on="0"/>
        <pt x="1302" y="1063" on="0"/>
        <pt x="1302" y="936" on="1"/>
        <pt x="1302" y="891" on="0"/>
        <pt x="1277" y="810" on="0"/>
        <pt x="1224" y="734" on="0"/>
        <pt x="1125" y="684" on="0"/>
        <pt x="1058" y="678" on="1"/>
        <pt x="1077" y="652" on="0"/>
        <pt x="1115" y="594" on="0"/>
        <pt x="1174" y="500" on="0"/>
        <pt x="1216" y="431" on="0"/>
        <pt x="1316" y="266" on="0"/>
        <pt x="1349" y="212" on="1"/>
        <pt x="1214" y="212" on="1"/>
        <pt x="1021" y="544" on="0"/>
        <pt x="941" y="658" on="1"/>
        <pt x="735" y="658" on="1"/>
        <pt x="735" y="212" on="1"/>
      </contour>
      <contour>
        <pt x="736" y="754" on="1"/>
        <pt x="941" y="754" on="1"/>
        <pt x="1071" y="754" on="0"/>
        <pt x="1190" y="827" on="0"/>
        <pt x="1190" y="924" on="1"/>
        <pt x="1190" y="1034" on="0"/>
        <pt x="1078" y="1107" on="0"/>
        <pt x="931" y="1107" on="1"/>
        <pt x="736" y="1107" on="1"/>
      </contour>
      <contour>
        <pt x="927" y="-24" on="1"/>
        <pt x="1032" y="-24" on="0"/>
        <pt x="1230" y="33" on="0"/>
        <pt x="1406" y="151" on="0"/>
        <pt x="1538" y="318" on="0"/>
        <pt x="1614" y="555" on="0"/>
        <pt x="1614" y="694" on="1"/>
        <pt x="1614" y="834" on="0"/>
        <pt x="1535" y="1075" on="0"/>
        <pt x="1400" y="1245" on="0"/>
        <pt x="1222" y="1366" on="0"/>
        <pt x="1020" y="1424" on="0"/>
        <pt x="915" y="1424" on="1"/>
        <pt x="812" y="1424" on="0"/>
        <pt x="618" y="1368" on="0"/>
        <pt x="445" y="1250" on="0"/>
        <pt x="316" y="1083" on="0"/>
        <pt x="241" y="843" on="0"/>
        <pt x="241" y="701" on="1"/>
        <pt x="241" y="583" on="0"/>
        <pt x="295" y="376" on="0"/>
        <pt x="391" y="219" on="0"/>
        <pt x="520" y="95" on="0"/>
        <pt x="674" y="17" on="0"/>
        <pt x="840" y="-24" on="0"/>
      </contour>
      <contour>
        <pt x="924" y="-116" on="1"/>
        <pt x="803" y="-116" on="0"/>
        <pt x="574" y="-52" on="0"/>
        <pt x="370" y="81" on="0"/>
        <pt x="218" y="270" on="0"/>
        <pt x="129" y="540" on="0"/>
        <pt x="129" y="698" on="1"/>
        <pt x="129" y="858" on="0"/>
        <pt x="217" y="1128" on="0"/>
        <pt x="368" y="1317" on="0"/>
        <pt x="570" y="1451" on="0"/>
        <pt x="797" y="1514" on="0"/>
        <pt x="918" y="1514" on="1"/>
        <pt x="1040" y="1514" on="0"/>
        <pt x="1273" y="1449" on="0"/>
        <pt x="1480" y="1314" on="0"/>
        <pt x="1635" y="1124" on="0"/>
        <pt x="1726" y="855" on="0"/>
        <pt x="1726" y="698" on="1"/>
        <pt x="1726" y="540" on="0"/>
        <pt x="1636" y="272" on="0"/>
        <pt x="1482" y="82" on="0"/>
        <pt x="1277" y="-52" on="0"/>
        <pt x="1046" y="-116" on="0"/>
      </contour>
    </TTGlyph>
    <TTGlyph name="ring" xMin="129" yMin="1316" xMax="495" yMax="1673">
      <contour>
        <pt x="276" y="1388" on="0"/>
        <pt x="352" y="1388" on="0"/>
        <pt x="407" y="1444" on="0"/>
        <pt x="407" y="1495" on="1"/>
        <pt x="406" y="1545" on="0"/>
        <pt x="351" y="1602" on="0"/>
        <pt x="313" y="1602" on="1"/>
        <pt x="275" y="1602" on="0"/>
        <pt x="220" y="1545" on="0"/>
        <pt x="220" y="1494" on="1"/>
        <pt x="220" y="1444" on="0"/>
      </contour>
      <contour>
        <pt x="315" y="1317" on="1"/>
        <pt x="240" y="1317" on="0"/>
        <pt x="129" y="1412" on="0"/>
        <pt x="129" y="1495" on="1"/>
        <pt x="129" y="1579" on="0"/>
        <pt x="237" y="1673" on="0"/>
        <pt x="312" y="1673" on="1"/>
        <pt x="386" y="1673" on="0"/>
        <pt x="495" y="1578" on="0"/>
        <pt x="495" y="1495" on="1"/>
        <pt x="495" y="1410" on="0"/>
        <pt x="388" y="1317" on="0"/>
      </contour>
    </TTGlyph>
    <TTGlyph name="s" xMin="109" yMin="-25" xMax="852" yMax="1116">
      <contour>
        <pt x="467" y="-25" on="1"/>
        <pt x="361" y="-25" on="0"/>
        <pt x="175" y="27" on="0"/>
        <pt x="121" y="63" on="1"/>
        <pt x="139" y="167" on="1"/>
        <pt x="304" y="81" on="0"/>
        <pt x="455" y="81" on="1"/>
        <pt x="726" y="81" on="0"/>
        <pt x="736" y="282" on="1"/>
        <pt x="736" y="366" on="0"/>
        <pt x="627" y="462" on="0"/>
        <pt x="463" y="514" on="1"/>
        <pt x="377" y="544" on="0"/>
        <pt x="368" y="547" on="1"/>
        <pt x="111" y="625" on="0"/>
        <pt x="109" y="824" on="1"/>
        <pt x="109" y="939" on="0"/>
        <pt x="312" y="1116" on="0"/>
        <pt x="658" y="1116" on="0"/>
        <pt x="810" y="1048" on="1"/>
        <pt x="768" y="956" on="1"/>
        <pt x="614" y="1014" on="0"/>
        <pt x="482" y="1014" on="1"/>
        <pt x="366" y="1014" on="0"/>
        <pt x="233" y="910" on="0"/>
        <pt x="233" y="822" on="1"/>
        <pt x="233" y="748" on="0"/>
        <pt x="320" y="669" on="0"/>
        <pt x="449" y="633" on="1"/>
        <pt x="463" y="629" on="0"/>
        <pt x="538" y="601" on="0"/>
        <pt x="542" y="600" on="1"/>
        <pt x="715" y="547" on="0"/>
        <pt x="852" y="402" on="0"/>
        <pt x="852" y="277" on="1"/>
        <pt x="849" y="133" on="0"/>
        <pt x="640" y="-25" on="0"/>
      </contour>
    </TTGlyph>
    <TTGlyph name="sacute" xMin="109" yMin="-25" xMax="852" yMax="1605">
      <component glyphName="acute" x="317" y="-69" flags="0x1004"/>
      <component glyphName="s" x="0" y="0" flags="0x1204"/>
    </TTGlyph>
    <TTGlyph name="scaron" xMin="109" yMin="-25" xMax="852" yMax="1577">
      <component glyphName="caron" x="79" y="-92" flags="0x1004"/>
      <component glyphName="s" x="0" y="0" flags="0x1204"/>
    </TTGlyph>
    <TTGlyph name="scedilla" xMin="109" yMin="-432" xMax="852" yMax="1116">
      <component glyphName="cedilla" x="206" y="-22" flags="0x1004"/>
      <component glyphName="s" x="0" y="0" flags="0x1204"/>
    </TTGlyph>
    <TTGlyph name="scircumflex" xMin="109" yMin="-25" xMax="852" yMax="1577">
      <component glyphName="circumflex" x="79" y="-92" flags="0x1004"/>
      <component glyphName="s" x="0" y="0" flags="0x1204"/>
    </TTGlyph>
    <TTGlyph name="scommaaccent" xMin="109" yMin="-630" xMax="852" yMax="1116">
      <component glyphName="glyph00382" x="196" y="18" flags="0x1004"/>
      <component glyphName="s" x="0" y="0" flags="0x1204"/>
    </TTGlyph>
    <TTGlyph name="semicolon" xMin="152" yMin="-302" xMax="376" yMax="1136">
      <contour>
        <pt x="152" y="-302" on="1"/>
        <pt x="208" y="165" on="1"/>
        <pt x="370" y="165" on="1"/>
        <pt x="245" y="-302" on="1"/>
      </contour>
      <contour>
        <pt x="197" y="928" on="1"/>
        <pt x="197" y="1136" on="1"/>
        <pt x="376" y="1136" on="1"/>
        <pt x="376" y="928" on="1"/>
      </contour>
    </TTGlyph>
    <TTGlyph name="seven" xMin="116" yMin="0" xMax="942" yMax="1488">
      <contour>
        <pt x="276" y="0" on="1"/>
        <pt x="817" y="1377" on="1"/>
        <pt x="116" y="1377" on="1"/>
        <pt x="131" y="1488" on="1"/>
        <pt x="926" y="1488" on="1"/>
        <pt x="942" y="1365" on="1"/>
        <pt x="414" y="0" on="1"/>
      </contour>
    </TTGlyph>
    <TTGlyph name="six" xMin="121" yMin="-23" xMax="1084" yMax="1488">
      <contour>
        <pt x="604" y="-23" on="1"/>
        <pt x="493" y="-23" on="0"/>
        <pt x="307" y="60" on="0"/>
        <pt x="187" y="199" on="0"/>
        <pt x="121" y="377" on="0"/>
        <pt x="121" y="473" on="1"/>
        <pt x="121" y="517" on="0"/>
        <pt x="131" y="591" on="0"/>
        <pt x="145" y="655" on="0"/>
        <pt x="186" y="737" on="0"/>
        <pt x="219" y="799" on="0"/>
        <pt x="299" y="913" on="0"/>
        <pt x="360" y="997" on="0"/>
        <pt x="423" y="1081" on="1"/>
        <pt x="474" y="1145" on="0"/>
        <pt x="650" y="1348" on="0"/>
        <pt x="712" y="1418" on="1"/>
        <pt x="775" y="1488" on="1"/>
        <pt x="912" y="1488" on="1"/>
        <pt x="387" y="849" on="1"/>
        <pt x="447" y="884" on="0"/>
        <pt x="569" y="916" on="0"/>
        <pt x="646" y="916" on="1"/>
        <pt x="732" y="916" on="0"/>
        <pt x="892" y="843" on="0"/>
        <pt x="1012" y="719" on="0"/>
        <pt x="1084" y="542" on="0"/>
        <pt x="1084" y="444" on="1"/>
        <pt x="1084" y="251" on="0"/>
        <pt x="812" y="-23" on="0"/>
      </contour>
      <contour>
        <pt x="602" y="88" on="1"/>
        <pt x="758" y="88" on="0"/>
        <pt x="955" y="301" on="0"/>
        <pt x="955" y="443" on="1"/>
        <pt x="955" y="542" on="0"/>
        <pt x="875" y="708" on="0"/>
        <pt x="714" y="813" on="0"/>
        <pt x="607" y="813" on="1"/>
        <pt x="521" y="813" on="0"/>
        <pt x="384" y="754" on="0"/>
        <pt x="298" y="653" on="0"/>
        <pt x="253" y="522" on="0"/>
        <pt x="253" y="448" on="1"/>
        <pt x="253" y="381" on="0"/>
        <pt x="302" y="252" on="0"/>
        <pt x="389" y="150" on="0"/>
        <pt x="523" y="88" on="0"/>
      </contour>
    </TTGlyph>
    <TTGlyph name="slash" xMin="49" yMin="-174" xMax="863" yMax="1514">
      <contour>
        <pt x="49" y="-174" on="1"/>
        <pt x="750" y="1514" on="1"/>
        <pt x="863" y="1514" on="1"/>
        <pt x="161" y="-174" on="1"/>
      </contour>
    </TTGlyph>
    <TTGlyph name="sterling" xMin="91" yMin="0" xMax="1055" yMax="1515">
      <contour>
        <pt x="101" y="0" on="1"/>
        <pt x="92" y="105" on="1"/>
        <pt x="277" y="169" on="0"/>
        <pt x="277" y="436" on="1"/>
        <pt x="277" y="696" on="1"/>
        <pt x="91" y="696" on="1"/>
        <pt x="91" y="800" on="1"/>
        <pt x="277" y="800" on="1"/>
        <pt x="277" y="890" on="1"/>
        <pt x="277" y="961" on="0"/>
        <pt x="284" y="1078" on="0"/>
        <pt x="306" y="1211" on="0"/>
        <pt x="342" y="1314" on="0"/>
        <pt x="406" y="1412" on="0"/>
        <pt x="491" y="1476" on="0"/>
        <pt x="616" y="1515" on="0"/>
        <pt x="693" y="1515" on="1"/>
        <pt x="889" y="1515" on="0"/>
        <pt x="1037" y="1390" on="1"/>
        <pt x="971" y="1303" on="1"/>
        <pt x="841" y="1407" on="0"/>
        <pt x="690" y="1407" on="1"/>
        <pt x="533" y="1407" on="0"/>
        <pt x="405" y="1186" on="0"/>
        <pt x="405" y="977" on="1"/>
        <pt x="405" y="800" on="1"/>
        <pt x="832" y="800" on="1"/>
        <pt x="832" y="695" on="1"/>
        <pt x="405" y="695" on="1"/>
        <pt x="405" y="526" on="1"/>
        <pt x="405" y="461" on="0"/>
        <pt x="400" y="371" on="0"/>
        <pt x="383" y="268" on="0"/>
        <pt x="352" y="195" on="0"/>
        <pt x="297" y="123" on="0"/>
        <pt x="257" y="96" on="1"/>
        <pt x="307" y="99" on="0"/>
        <pt x="446" y="114" on="0"/>
        <pt x="516" y="114" on="1"/>
        <pt x="1041" y="114" on="1"/>
        <pt x="1055" y="0" on="1"/>
      </contour>
    </TTGlyph>
    <TTGlyph name="t" xMin="35" yMin="-23" xMax="643" yMax="1351">
      <contour>
        <pt x="456" y="-23" on="1"/>
        <pt x="318" y="-23" on="0"/>
        <pt x="190" y="102" on="0"/>
        <pt x="190" y="243" on="1"/>
        <pt x="190" y="1005" on="1"/>
        <pt x="35" y="1005" on="1"/>
        <pt x="44" y="1080" on="1"/>
        <pt x="192" y="1094" on="1"/>
        <pt x="225" y="1345" on="1"/>
        <pt x="312" y="1351" on="1"/>
        <pt x="312" y="1096" on="1"/>
        <pt x="632" y="1096" on="1"/>
        <pt x="632" y="1005" on="1"/>
        <pt x="312" y="1005" on="1"/>
        <pt x="312" y="269" on="1"/>
        <pt x="312" y="153" on="0"/>
        <pt x="388" y="74" on="0"/>
        <pt x="484" y="74" on="1"/>
        <pt x="546" y="74" on="0"/>
        <pt x="638" y="97" on="1"/>
        <pt x="643" y="1" on="1"/>
        <pt x="522" y="-23" on="0"/>
      </contour>
    </TTGlyph>
    <TTGlyph name="tcaron" xMin="35" yMin="-23" xMax="1070" yMax="1351">
      <contour>
        <pt x="796" y="901" on="1"/>
        <pt x="934" y="1351" on="1"/>
        <pt x="1070" y="1351" on="1"/>
        <pt x="900" y="901" on="1"/>
      </contour>
      <contour>
        <pt x="456" y="-23" on="1"/>
        <pt x="318" y="-23" on="0"/>
        <pt x="190" y="102" on="0"/>
        <pt x="190" y="243" on="1"/>
        <pt x="190" y="1005" on="1"/>
        <pt x="35" y="1005" on="1"/>
        <pt x="44" y="1080" on="1"/>
        <pt x="192" y="1094" on="1"/>
        <pt x="225" y="1345" on="1"/>
        <pt x="312" y="1351" on="1"/>
        <pt x="312" y="1096" on="1"/>
        <pt x="632" y="1096" on="1"/>
        <pt x="632" y="1005" on="1"/>
        <pt x="312" y="1005" on="1"/>
        <pt x="312" y="269" on="1"/>
        <pt x="312" y="153" on="0"/>
        <pt x="388" y="74" on="0"/>
        <pt x="484" y="74" on="1"/>
        <pt x="546" y="74" on="0"/>
        <pt x="638" y="97" on="1"/>
        <pt x="643" y="1" on="1"/>
        <pt x="522" y="-23" on="0"/>
      </contour>
    </TTGlyph>
    <TTGlyph name="thorn" xMin="147" yMin="-488" xMax="1078" yMax="1514">
      <contour>
        <pt x="147" y="-488" on="1"/>
        <pt x="147" y="1514" on="1"/>
        <pt x="271" y="1514" on="1"/>
        <pt x="271" y="907" on="1"/>
        <pt x="311" y="986" on="0"/>
        <pt x="489" y="1115" on="0"/>
        <pt x="611" y="1116" on="1"/>
        <pt x="833" y="1116" on="0"/>
        <pt x="1078" y="816" on="0"/>
        <pt x="1078" y="560" on="1"/>
        <pt x="1078" y="395" on="0"/>
        <pt x="980" y="136" on="0"/>
        <pt x="772" y="-23" on="0"/>
        <pt x="625" y="-23" on="1"/>
        <pt x="558" y="-23" on="0"/>
        <pt x="429" y="17" on="0"/>
        <pt x="306" y="113" on="0"/>
        <pt x="271" y="183" on="1"/>
        <pt x="271" y="-479" on="1"/>
      </contour>
      <contour>
        <pt x="621" y="78" on="1"/>
        <pt x="683" y="78" on="0"/>
        <pt x="786" y="123" on="0"/>
        <pt x="856" y="201" on="0"/>
        <pt x="907" y="298" on="0"/>
        <pt x="935" y="410" on="0"/>
        <pt x="948" y="513" on="0"/>
        <pt x="948" y="564" on="1"/>
        <pt x="948" y="622" on="0"/>
        <pt x="929" y="737" on="0"/>
        <pt x="880" y="860" on="0"/>
        <pt x="804" y="952" on="0"/>
        <pt x="679" y="1011" on="0"/>
        <pt x="599" y="1011" on="1"/>
        <pt x="513" y="1011" on="0"/>
        <pt x="382" y="936" on="0"/>
        <pt x="307" y="807" on="0"/>
        <pt x="270" y="653" on="0"/>
        <pt x="270" y="564" on="1"/>
        <pt x="270" y="487" on="0"/>
        <pt x="291" y="351" on="0"/>
        <pt x="342" y="224" on="0"/>
        <pt x="420" y="133" on="0"/>
        <pt x="543" y="78" on="0"/>
      </contour>
    </TTGlyph>
    <TTGlyph name="three" xMin="156" yMin="-23" xMax="995" yMax="1516">
      <contour>
        <pt x="532" y="-23" on="1"/>
        <pt x="401" y="-23" on="0"/>
        <pt x="195" y="49" on="0"/>
        <pt x="156" y="86" on="1"/>
        <pt x="203" y="189" on="1"/>
        <pt x="339" y="83" on="0"/>
        <pt x="520" y="83" on="1"/>
        <pt x="679" y="83" on="0"/>
        <pt x="866" y="250" on="0"/>
        <pt x="866" y="404" on="1"/>
        <pt x="866" y="483" on="0"/>
        <pt x="820" y="602" on="0"/>
        <pt x="743" y="675" on="0"/>
        <pt x="626" y="723" on="0"/>
        <pt x="503" y="742" on="0"/>
        <pt x="424" y="745" on="1"/>
        <pt x="366" y="745" on="1"/>
        <pt x="366" y="857" on="1"/>
        <pt x="410" y="857" on="1"/>
        <pt x="466" y="859" on="0"/>
        <pt x="557" y="870" on="0"/>
        <pt x="658" y="893" on="0"/>
        <pt x="732" y="935" on="0"/>
        <pt x="794" y="996" on="0"/>
        <pt x="826" y="1088" on="0"/>
        <pt x="826" y="1147" on="1"/>
        <pt x="826" y="1409" on="0"/>
        <pt x="534" y="1409" on="1"/>
        <pt x="434" y="1409" on="0"/>
        <pt x="258" y="1352" on="0"/>
        <pt x="203" y="1302" on="1"/>
        <pt x="157" y="1406" on="1"/>
        <pt x="285" y="1516" on="0"/>
        <pt x="569" y="1516" on="1"/>
        <pt x="641" y="1516" on="0"/>
        <pt x="774" y="1473" on="0"/>
        <pt x="883" y="1391" on="0"/>
        <pt x="948" y="1253" on="0"/>
        <pt x="948" y="1166" on="1"/>
        <pt x="948" y="883" on="0"/>
        <pt x="687" y="804" on="1"/>
        <pt x="990" y="726" on="0"/>
        <pt x="995" y="410" on="1"/>
        <pt x="998" y="217" on="0"/>
        <pt x="741" y="-23" on="0"/>
      </contour>
    </TTGlyph>
    <TTGlyph name="threequarters" xMin="129" yMin="0" xMax="1533" yMax="1514">
      <contour>
        <pt x="359" y="625" on="1"/>
        <pt x="293" y="625" on="0"/>
        <pt x="167" y="665" on="0"/>
        <pt x="129" y="703" on="1"/>
        <pt x="167" y="771" on="1"/>
        <pt x="223" y="728" on="0"/>
        <pt x="307" y="703" on="0"/>
        <pt x="355" y="703" on="1"/>
        <pt x="419" y="703" on="0"/>
        <pt x="518" y="794" on="0"/>
        <pt x="518" y="863" on="1"/>
        <pt x="518" y="1035" on="0"/>
        <pt x="325" y="1035" on="1"/>
        <pt x="236" y="1035" on="1"/>
        <pt x="236" y="1109" on="1"/>
        <pt x="316" y="1109" on="1"/>
        <pt x="396" y="1109" on="0"/>
        <pt x="491" y="1185" on="0"/>
        <pt x="487" y="1271" on="1"/>
        <pt x="484" y="1331" on="0"/>
        <pt x="402" y="1408" on="0"/>
        <pt x="336" y="1408" on="1"/>
        <pt x="292" y="1408" on="0"/>
        <pt x="197" y="1378" on="0"/>
        <pt x="174" y="1358" on="1"/>
        <pt x="133" y="1429" on="1"/>
        <pt x="165" y="1452" on="0"/>
        <pt x="278" y="1484" on="0"/>
        <pt x="335" y="1484" on="1"/>
        <pt x="384" y="1484" on="0"/>
        <pt x="471" y="1461" on="0"/>
        <pt x="543" y="1413" on="0"/>
        <pt x="585" y="1329" on="0"/>
        <pt x="585" y="1273" on="1"/>
        <pt x="585" y="1237" on="0"/>
        <pt x="567" y="1177" on="0"/>
        <pt x="547" y="1142" on="0"/>
        <pt x="503" y="1105" on="0"/>
        <pt x="479" y="1091" on="0"/>
        <pt x="452" y="1076" on="1"/>
        <pt x="605" y="1033" on="0"/>
        <pt x="605" y="870" on="1"/>
        <pt x="605" y="754" on="0"/>
        <pt x="466" y="625" on="0"/>
      </contour>
      <contour>
        <pt x="1340" y="0" on="1"/>
        <pt x="1340" y="218" on="1"/>
        <pt x="965" y="218" on="1"/>
        <pt x="965" y="289" on="1"/>
        <pt x="1340" y="861" on="1"/>
        <pt x="1433" y="861" on="1"/>
        <pt x="1433" y="300" on="1"/>
        <pt x="1525" y="300" on="1"/>
        <pt x="1533" y="218" on="1"/>
        <pt x="1433" y="218" on="1"/>
        <pt x="1433" y="0" on="1"/>
      </contour>
      <contour>
        <pt x="351" y="0" on="1"/>
        <pt x="1239" y="1514" on="1"/>
        <pt x="1332" y="1514" on="1"/>
        <pt x="451" y="0" on="1"/>
      </contour>
      <contour>
        <pt x="1065" y="300" on="1"/>
        <pt x="1340" y="300" on="1"/>
        <pt x="1339" y="685" on="0"/>
        <pt x="1340" y="727" on="1"/>
      </contour>
    </TTGlyph>
    <TTGlyph name="tilde" xMin="150" yMin="1336" xMax="720" yMax="1522">
      <contour>
        <pt x="150" y="1336" on="1"/>
        <pt x="153" y="1443" on="0"/>
        <pt x="236" y="1522" on="0"/>
        <pt x="309" y="1522" on="1"/>
        <pt x="355" y="1522" on="0"/>
        <pt x="549" y="1426" on="0"/>
        <pt x="573" y="1426" on="1"/>
        <pt x="589" y="1426" on="0"/>
        <pt x="611" y="1444" on="0"/>
        <pt x="623" y="1480" on="0"/>
        <pt x="627" y="1502" on="0"/>
        <pt x="629" y="1522" on="1"/>
        <pt x="720" y="1522" on="1"/>
        <pt x="716" y="1421" on="0"/>
        <pt x="645" y="1336" on="0"/>
        <pt x="579" y="1336" on="1"/>
        <pt x="535" y="1336" on="0"/>
        <pt x="324" y="1439" on="0"/>
        <pt x="301" y="1439" on="1"/>
        <pt x="248" y="1439" on="0"/>
        <pt x="240" y="1336" on="1"/>
      </contour>
    </TTGlyph>
</ttFont>
